<?xml version="1.0" standalone="no"?>
<!DOCTYPE svg PUBLIC "-//W3C//DTD SVG 1.1//EN" "http://www.w3.org/Graphics/SVG/1.1/DTD/svg11.dtd" >
<svg>
<metadata>
Created by FontForge 20090914 at Fri Dec  9 12:35:03 2016
 By www-data
HTF Gotham  Copr. 2003 The Hoefler Type Foundry, Inc. Info: www.typography.com
</metadata>
<defs>
<font id="GothamBlack-Italic" horiz-adv-x="500" >
  <font-face 
    font-family="Gotham Black"
    font-weight="900"
    font-style="italic"
    font-stretch="normal"
    units-per-em="1000"
    panose-1="2 0 6 3 4 0 0 9 0 4"
    ascent="800"
    descent="-200"
    x-height="541"
    cap-height="700"
    bbox="-145 -180 1311 932"
    underline-thickness="20"
    underline-position="-113"
    slope="-12"
    unicode-range="U+0020-U+FB02"
  />
<missing-glyph 
 />
    <glyph glyph-name="fi" unicode="fi" horiz-adv-x="719" 
d="M546 541h190l-145 -541h-190zM594 730h198l-38 -140h-198zM118 388h-63.999l41 153h63l3 11c16.667 66 44 113.333 82 142s88 43 150 43c23.333 0 44.833 -1.5 64.5 -4.5s38.5 -7.5 56.5 -13.5l-35 -133c-10 3.33301 -20.833 6.16602 -32.5 8.49902
s-22.167 3.5 -31.5 3.5c-19.333 0 -34.333 -4.16699 -45 -12.5s-18.334 -21.166 -23.001 -38.499l-3 -9h122l-40 -150h-118l-105 -388h-190z" />
    <glyph glyph-name="fl" unicode="fl" horiz-adv-x="719" 
d="M597 730h190l-196 -730h-190zM118 388h-63.999l41 153h63l3 11c16.667 66 44 113.333 82 142s88 43 150 43c23.333 0 44.833 -1.5 64.5 -4.5s38.5 -7.5 56.5 -13.5l-35 -133c-10 3.33301 -20.833 6.16602 -32.5 8.49902s-22.167 3.5 -31.5 3.5
c-19.333 0 -34.333 -4.16699 -45 -12.5s-18.334 -21.166 -23.001 -38.499l-3 -9h122l-40 -150h-118l-105 -388h-190z" />
    <glyph glyph-name=".notdef" 
 />
    <glyph glyph-name="space" unicode=" " horiz-adv-x="277" 
 />
    <glyph glyph-name="exclam" unicode="!" horiz-adv-x="322" 
d="M35 170h198l-46 -170h-197zM145 615l23 85h217l-24 -85l-162 -387h-99z" />
    <glyph glyph-name="quotedbl" unicode="&#x22;" horiz-adv-x="540" 
d="M162 700h204l-1 -5l-198 -354h-100zM422 700h204l-1 -5l-198 -354h-101z" />
    <glyph glyph-name="numbersign" unicode="#" horiz-adv-x="697" 
d="M416 292l42 120h-135l-42 -120h135zM85 135h-82l36 161h103l39 112h-94l36 161h115l46 131h145l-46 -131h126l46 131h145l-46 -131h82l-36 -161h-102l-40 -112h95l-36 -161h-115l-48 -135h-145l48 135h-127l-47 -135h-145z" />
    <glyph glyph-name="dollar" unicode="$" horiz-adv-x="656" 
d="M348 152c26.667 1.33301 46.833 6.83398 60.5 16.501s20.5 23.167 20.5 40.5c0 10.667 -3.33301 19.667 -10 27s-19.667 14.666 -39 21.999zM374.999 549.001c-28.667 0 -49.667 -5.33301 -63 -16s-20 -23.667 -20 -39c0 -11.333 3.83301 -20.333 11.5 -27
s21.5 -13.667 41.5 -21zM207.999 9.00098c-46 8.66699 -88.3291 22.665 -126.996 41.998s-72 43 -100 71l116 121c26 -21.333 52 -38.833 78 -52.5s53.333 -23.5 82 -29.5l37 122c-30 9.33301 -56.833 19.5 -80.5 30.5s-43.834 23.833 -60.501 38.5
s-29.334 31.834 -38.001 51.501s-13 42.834 -13 69.501c0 31.333 7.16699 60.833 21.5 88.5s34.666 51.667 60.999 72s58 36.5 95 48.5s78.5 18 124.5 18h9l17 58h104l-20 -69c36.667 -8.66699 69.667 -20.5 99 -35.5s55.666 -32.5 78.999 -52.5l-107 -130
c-16 13.333 -34 25.5 -54 36.5s-41.667 20.167 -65 27.5l-35 -115c28.667 -9.33301 54.5 -19.666 77.5 -30.999s42.667 -24.333 59 -39s28.833 -31.834 37.5 -51.501s13 -42.5 13 -68.5c0 -34 -7.33301 -65.167 -22 -93.5s-35.5 -52.5 -62.5 -72.5
s-59.167 -35.667 -96.5 -47s-78.333 -17 -123 -17h-5l-28 -98h-104z" />
    <glyph glyph-name="percent" unicode="%" horiz-adv-x="923" 
d="M688 95c12.667 0 24 3.16699 34 9.5s18.5 14.666 25.5 24.999s12.5 21.833 16.5 34.5s6 25.334 6 38.001c0 18.667 -5 33.834 -15 45.501s-23.667 17.5 -41 17.5c-12.667 0 -24 -3.16699 -34 -9.5s-18.5 -14.5 -25.5 -24.5s-12.5 -21.5 -16.5 -34.5s-6 -25.833 -6 -38.5
c0 -18.667 5 -33.834 15 -45.501s23.667 -17.5 41 -17.5zM252 435c12 0 23 3.16699 33 9.5s18.5 14.5 25.5 24.5s12.5 21.333 16.5 34s6 25.667 6 39c0 18.667 -5 33.834 -15 45.501s-23.667 17.5 -41 17.5c-12 0 -23 -3.16699 -33 -9.5s-18.5 -14.666 -25.5 -24.999
s-12.5 -21.833 -16.5 -34.5s-6 -25.334 -6 -38.001c0 -18.667 5 -33.834 15 -45.501s23.667 -17.5 41 -17.5zM683 -10c-26.667 0 -50.334 4.16797 -71.001 12.501s-38.167 19.666 -52.5 33.999s-25.166 31.5 -32.499 51.5s-11 41.667 -11 65c0 26.667 4.83301 53 14.5 79
s23.334 49.333 41.001 70s39 37.167 64 49.5s52.833 18.5 83.5 18.5c26.667 0 50.334 -4.16699 71.001 -12.5s38.167 -19.666 52.5 -33.999s25.166 -31.5 32.499 -51.5s11 -41.667 11 -65c0 -27.333 -4.83301 -53.833 -14.5 -79.5s-23.334 -48.834 -41.001 -69.501
s-39 -37.167 -64 -49.5s-52.833 -18.5 -83.5 -18.5zM757 700.001h141l-690 -700h-140zM247 330.001c-26.667 0 -50.501 4 -71.501 12s-38.667 19.333 -53 34s-25.166 32 -32.499 52s-11 41.667 -11 65c0 26.667 4.83301 53 14.5 79s23.334 49.333 41.001 70
s39 37.167 64 49.5s52.833 18.5 83.5 18.5c26.667 0 50.334 -4.16699 71.001 -12.5s38.167 -19.666 52.5 -33.999s25.166 -31.5 32.499 -51.5s11 -41.667 11 -65c0 -27.333 -4.83301 -53.833 -14.5 -79.5s-23.334 -48.834 -41.001 -69.501s-39 -37.167 -64 -49.5
s-52.5 -18.5 -82.5 -18.5z" />
    <glyph glyph-name="ampersand" unicode="&#x26;" horiz-adv-x="700" 
d="M278 133c31.333 0 65.667 11 103 33l-95 135c-60 -25.333 -90 -60 -90 -104c0 -18.667 7.16699 -34 21.5 -46s34.5 -18 60.5 -18zM363.001 442c34 12.667 58.167 25.501 72.5 38.501s21.5 29.167 21.5 48.5c0 14.667 -4.66699 27 -14 37s-22 15 -38 15
c-19.333 0 -35 -6.66699 -47 -20s-18 -29.333 -18 -48c0 -10.667 1.66699 -21.834 5 -33.501s9.33301 -24.167 18 -37.5zM468.001 55.001c-33.333 -21.333 -67.833 -37.6641 -103.5 -48.9971s-72.5 -17 -110.5 -17c-37.333 0 -70.833 4.5 -100.5 13.5s-55 21.833 -76 38.5
s-37 36.834 -48 60.501s-16.5 50.5 -16.5 80.5c0 54 18.167 99.5 54.5 136.5s85.166 65.5 146.499 85.5c-10 19.333 -17.833 38.666 -23.5 57.999s-8.5 38.666 -8.5 57.999c0 26.667 5.16699 51.667 15.5 75s25.166 43.666 44.499 60.999s42.666 31.166 69.999 41.499
s58 15.5 92 15.5c30.667 0 58.834 -4.5 84.501 -13.5s47.667 -21.333 66 -37s32.5 -34.334 42.5 -56.001s15 -45.167 15 -70.5c0 -86.667 -57.667 -150.667 -173 -192l61 -83c24 26 48 56.667 72 92l113 -79c-15.333 -23.333 -31.166 -45.166 -47.499 -65.499
s-33.166 -39.833 -50.499 -58.5l57 -77l-127 -87z" />
    <glyph glyph-name="quotesingle" unicode="'" horiz-adv-x="282" 
d="M162 700h207l-1 -5l-198 -354h-103z" />
    <glyph glyph-name="parenleft" unicode="(" horiz-adv-x="455" 
d="M242 -143c-62.667 48 -111.165 101.333 -145.498 160s-51.5 125.334 -51.5 200.001c0 59.333 10.167 114.833 30.5 166.5s48.666 98.5 84.999 140.5s79.833 79 130.5 111s106 58 166 78l56 -129c-48 -21.333 -89.833 -45.833 -125.5 -73.5
s-65.334 -57.334 -89.001 -89.001s-41.167 -64.334 -52.5 -98.001s-17 -67.5 -17 -101.5c0 -47.333 10.333 -91.166 31 -131.499s50.667 -81.5 90 -123.5z" />
    <glyph glyph-name="parenright" unicode=")" horiz-adv-x="455" 
d="M-50 -11c48.667 21.333 90.832 45.834 126.499 73.501s65.167 57.167 88.5 88.5s40.666 64 51.999 98s17 68 17 102c0 47.333 -10.333 91.166 -31 131.499s-50.667 81.5 -90 123.5l109 110c62.667 -48 111 -101.5 145 -160.5s51 -125.5 51 -199.5
c0 -59.333 -10.167 -114.833 -30.5 -166.5s-48.666 -98.5 -84.999 -140.5s-79.666 -79 -129.999 -111s-105.5 -58 -165.5 -78z" />
    <glyph glyph-name="asterisk" unicode="*" horiz-adv-x="436" 
d="M183 356l58 121l-122 -58l-28 103l135 10l-112 77l77 76l76 -112l10 134l102 -27l-58 -122l122 59l28 -104l-135 -10l112 -77l-77 -75l-76 112l-10 -134z" />
    <glyph glyph-name="plus" unicode="+" horiz-adv-x="650" 
d="M237 268h-168l45 168h168l46 172h175l-46 -172h168l-45 -168h-168l-46 -172h-175z" />
    <glyph glyph-name="comma" unicode="," horiz-adv-x="302" 
d="M-74 -92c40 4 70.333 13.832 91 29.499s34 37.167 40 64.5h-77l53 195h197l-45 -168c-8.66699 -32 -19.5 -59.833 -32.5 -83.5s-29.5 -43.5 -49.5 -59.5s-43.833 -28.167 -71.5 -36.5s-60.167 -13.166 -97.5 -14.499z" />
    <glyph glyph-name="hyphen" unicode="-" horiz-adv-x="417" 
d="M78 396h328l-44 -167h-329z" />
    <glyph glyph-name="hyphen" unicode="&#xad;" horiz-adv-x="417" 
d="M78 396h328l-44 -167h-329z" />
    <glyph glyph-name="period" unicode="." horiz-adv-x="302" 
d="M32 195h198l-53 -195h-197z" />
    <glyph glyph-name="slash" unicode="/" horiz-adv-x="535" 
d="M537 798h166l-682 -926h-166z" />
    <glyph glyph-name="zero" unicode="0" horiz-adv-x="726" 
d="M347 157c26.667 0 50.833 8.33203 72.5 24.999s40 37.834 55 63.501s26.5 53.834 34.5 84.501s12 60.334 12 89.001c0 42 -9.33301 73 -28 93s-43 30 -73 30c-26.667 0 -50.667 -8.33301 -72 -25s-39.5 -37.834 -54.5 -63.501s-26.5 -53.834 -34.5 -84.501
s-12 -60.334 -12 -89.001c0 -41.333 9.16699 -72.166 27.5 -92.499s42.5 -30.5 72.5 -30.5zM329.999 -14.001c-43.333 0 -82.334 7.16895 -117.001 21.502s-64 34.166 -88 59.499s-42.5 55.333 -55.5 90s-19.5 72.334 -19.5 113.001c0 55.333 9.16699 109.666 27.5 162.999
s44.333 100.833 78 142.5s74.334 75.167 122.001 100.5s100.834 38 159.501 38c44 0 83.333 -7.16699 118 -21.5s64 -34.333 88 -60s42.5 -55.834 55.5 -90.501s19.5 -72 19.5 -112c0 -56 -9.16699 -110.5 -27.5 -163.5s-44.5 -100.333 -78.5 -142
s-74.833 -75.167 -122.5 -100.5s-100.834 -38 -159.501 -38z" />
    <glyph glyph-name="one" unicode="1" horiz-adv-x="430" 
d="M222 517l-117 -28l-4 157l222 59h141l-189 -705h-191z" />
    <glyph glyph-name="two" unicode="2" horiz-adv-x="627" 
d="M8 150l356.001 232.001c30.667 20.667 51.834 39 63.501 55s17.5 32.333 17.5 49c0 17.333 -5.83301 31.166 -17.5 41.499s-28.5 15.5 -50.5 15.5c-25.333 0 -51.333 -7.83301 -78 -23.5s-53.667 -36.834 -81 -63.501l-113 119c36.667 40 78.667 72.667 126 98
s102 38 164 38c38 0 72.167 -5 102.5 -15s56.166 -23.833 77.499 -41.5s37.666 -38.667 48.999 -63s17 -51.166 17 -80.499c0 -21.333 -3 -42 -9 -62s-16 -39.833 -30 -59.5s-32.833 -39.5 -56.5 -59.5s-53.167 -41 -88.5 -63l-171 -109h279l-43 -158h-555z" />
    <glyph glyph-name="three" unicode="3" horiz-adv-x="611" 
d="M256 -14c-64.667 0 -120.165 11.665 -166.498 34.998s-84.166 56.666 -113.499 99.999l132 109c19.333 -25.333 40.666 -44.666 63.999 -57.999s51.333 -20 84 -20c17.333 0 33.166 2.33301 47.499 7s26.666 10.834 36.999 18.501s18.333 16.5 24 26.5s8.5 20.333 8.5 31
c0 42.667 -36.333 64 -109 64h-67l-4 100l196 144h-262l42 157h506l-38 -139l-214 -149c44 -12 78.667 -32.167 104 -60.5s38 -64.833 38 -109.5c0 -38 -7.5 -72.833 -22.5 -104.5s-36.167 -58.667 -63.5 -81s-60 -39.666 -98 -51.999s-79.667 -18.5 -125 -18.5z" />
    <glyph glyph-name="four" unicode="4" horiz-adv-x="679" 
d="M388 280l53 199l-218 -199h165zM349 136h-321l-21 142l476 427h205l-113 -424h89l-40 -145h-88l-37 -136h-186z" />
    <glyph glyph-name="five" unicode="5" horiz-adv-x="612" 
d="M261 -13c-29.333 0 -58.0029 3.33398 -86.0029 10.001s-54.333 15.667 -79 27s-47.167 24.5 -67.5 39.5s-37.166 30.833 -50.499 47.5l122 114c24.667 -24 50.334 -42.333 77.001 -55s56.667 -19 90 -19c37.333 0 67 9.33301 89 28s33 41 33 67
c0 21.333 -8.33301 39.166 -25 53.499s-43 21.5 -79 21.5c-17.333 0 -34.666 -2.66699 -51.999 -8s-33 -12.333 -47 -21l-99 69l111 339h462l-43 -160h-306l-32 -97c27.333 9.33301 57 14 89 14s61.333 -4.5 88 -13.5s49.5 -22 68.5 -39s33.667 -37.333 44 -61
s15.5 -50.5 15.5 -80.5c0 -38.667 -7.66699 -74.667 -23 -108s-37 -62.5 -65 -87.5s-62 -44.667 -102 -59s-84.333 -21.5 -133 -21.5z" />
    <glyph glyph-name="six" unicode="6" horiz-adv-x="654" 
d="M317 134c16.667 0 31.8311 3.16992 45.498 9.50293s25.334 14.666 35.001 24.999s17.167 22.166 22.5 35.499s8 27 8 41c0 23.333 -7.66699 42.166 -23 56.499s-35.666 21.5 -60.999 21.5c-17.333 0 -33 -3 -47 -9s-26 -14 -36 -24s-17.667 -21.667 -23 -35
s-8 -27.333 -8 -42c0 -22.667 7.33301 -40.667 22 -54c7.33301 -7.33301 16.5 -13.333 27.5 -18s23.5 -7 37.5 -7zM316.997 -12.9971c-40.667 0 -77.8311 5.99902 -111.498 17.999s-61.834 29.333 -84.501 52c-48 48 -72 112.333 -72 193c0 31.333 2.83301 63 8.5 95
s14.334 63.167 26.001 93.5s26 59.333 43 87s36.833 52.834 59.5 75.501c34 34 73.667 61.167 119 81.5s97.333 30.5 156 30.5c46 0 88.167 -6.66699 126.5 -20s71.5 -32 99.5 -56l-97 -137c-18 16 -39 29 -63 39s-48.667 15 -74 15c-54 0 -99.333 -18.333 -136 -55
c-26 -26 -45.667 -58 -59 -96c17.333 15.333 40 28.333 68 39s58.667 16 92 16c27.333 0 53.166 -4.16699 77.499 -12.5s45.666 -20.666 63.999 -36.999s32.833 -36.333 43.5 -60s16 -50.5 16 -80.5c0 -38.667 -7.83301 -75 -23.5 -109s-37.167 -63.833 -64.5 -89.5
s-59.333 -45.834 -96 -60.501s-76 -22 -118 -22z" />
    <glyph glyph-name="seven" unicode="7" horiz-adv-x="614" 
d="M418 537h-316l44 163h540l-40 -146l-428 -554h-222z" />
    <glyph glyph-name="eight" unicode="8" horiz-adv-x="664" 
d="M316 133c30 0 55.5 7.5 76.5 22.5s31.5 35.167 31.5 60.5c0.666992 23.333 -9 41.666 -29 54.999s-43.667 20 -71 20c-30 0 -55.5 -7.66699 -76.5 -23s-31.5 -35 -31.5 -59c0 -12 2.5 -22.667 7.5 -32s12.167 -17.166 21.5 -23.499s20 -11.333 32 -15s25 -5.5 39 -5.5z
M380 417c26.667 0 49.499 7.33301 68.499 22s28.5 33.667 28.5 57c0.666992 21.333 -7.66602 38.5 -24.999 51.5s-39 19.5 -65 19.5c-26.667 0 -49.5 -7.33301 -68.5 -22s-28.5 -33.667 -28.5 -57c-0.666992 -22 7.83301 -39.333 25.5 -52s39.167 -19 64.5 -19zM304.999 -10
c-38 0 -74.166 4.49512 -108.499 13.4951s-64.166 22 -89.499 39s-45.5 37.667 -60.5 62s-22.5 51.5 -22.5 81.5c0 50 15.5 90.667 46.5 122s72.5 54 124.5 68c-24.667 14.667 -43.5 33.334 -56.5 56.001s-19.5 48 -19.5 76c0 24.667 6 49 18 73s29.667 45.5 53 64.5
s52.333 34.5 87 46.5s75 18 121 18c38.667 0 74 -4.83301 106 -14.5s59.333 -23.167 82 -40.5s40.167 -37.666 52.5 -60.999s18.5 -48.333 18.5 -75c0 -43.333 -13.333 -79.666 -40 -108.999s-63.334 -50.666 -110.001 -63.999c31.333 -13.333 56.333 -31.666 75 -54.999
s28 -53 28 -89c0 -29.333 -7.16699 -57 -21.5 -83s-34.833 -48.5 -61.5 -67.5s-58.834 -34 -96.501 -45s-79.5 -16.5 -125.5 -16.5z" />
    <glyph glyph-name="nine" unicode="9" horiz-adv-x="654" 
d="M354 374c16.667 0 31.834 3.00391 45.501 9.00391s25.5 14.333 35.5 25s17.667 22.667 23 36s8 27.666 8 42.999c0 21.333 -7 39.666 -21 54.999c-16 16 -37.667 24 -65 24c-16.667 0 -31.834 -3 -45.501 -9s-25.5 -14.333 -35.5 -25s-17.667 -22.834 -23 -36.501
s-8 -27.834 -8 -42.501c0 -24 8 -43.167 24 -57.5s36.667 -21.5 62 -21.5zM238 -12.9961c-46 0 -88.6689 6.99902 -128.002 20.999s-74.333 34 -105 60l97 136c20.667 -17.333 42.834 -31.333 66.501 -42s48.5 -16 74.5 -16c53.333 0 99 19 137 57
c25.333 24.667 44.333 55 57 91c-17.333 -15.333 -39.833 -28.166 -67.5 -38.499s-58.167 -15.5 -91.5 -15.5c-27.333 0 -53.166 4.16699 -77.499 12.5s-45.666 20.5 -63.999 36.5s-32.833 35.833 -43.5 59.5s-16 50.834 -16 81.501c0 40 7.83301 77.333 23.5 112
s37.167 64.667 64.5 90s59.333 45.333 96 60s76 22 118 22c39.333 0 76.166 -6 110.499 -18s62.833 -29.333 85.5 -52c23.333 -23.333 41.333 -51.333 54 -84s19 -71.334 19 -116.001c0 -62 -11.667 -123.5 -35 -184.5s-58 -114.5 -104 -160.5
c-34 -34 -73.5 -61.167 -118.5 -81.5s-95.833 -30.5 -152.5 -30.5z" />
    <glyph glyph-name="colon" unicode=":" horiz-adv-x="307" 
d="M35 195h197l-52 -195h-198zM127 541h198l-53 -195h-197z" />
    <glyph glyph-name="semicolon" unicode=";" horiz-adv-x="307" 
d="M-72 -94c40 4 70.333 13.832 91 29.499s34 37.167 40 64.5h-77l53 195h197l-45 -168c-8.66699 -32 -19.5 -59.833 -32.5 -83.5s-29.5 -43.5 -49.5 -59.5s-43.833 -28.167 -71.5 -36.5s-60.167 -13.166 -97.5 -14.499zM127 540.999h198l-53 -195h-197z" />
    <glyph glyph-name="semicolon" unicode="&#x37e;" horiz-adv-x="307" 
d="M-72 -94c40 4 70.333 13.832 91 29.499s34 37.167 40 64.5h-77l53 195h197l-45 -168c-8.66699 -32 -19.5 -59.833 -32.5 -83.5s-29.5 -43.5 -49.5 -59.5s-43.833 -28.167 -71.5 -36.5s-60.167 -13.166 -97.5 -14.499zM127 540.999h198l-53 -195h-197z" />
    <glyph glyph-name="less" unicode="&#x3c;" horiz-adv-x="644" 
d="M68 263l48 177l550 198l-50 -185l-356 -110l298 -109l-45 -169z" />
    <glyph glyph-name="equal" unicode="=" horiz-adv-x="639" 
d="M83 301h491l-44 -167h-492zM155 570h492l-45 -167h-492z" />
    <glyph glyph-name="greater" unicode="&#x3e;" horiz-adv-x="644" 
d="M70 250l356 110l-298 109l45 169l445 -198l-48 -177l-550 -198z" />
    <glyph glyph-name="question" unicode="?" horiz-adv-x="540" 
d="M113 170h197l-46 -170h-197zM186 396l9.00098 8.00098c60 5.33301 105.333 15.166 136 29.499s46 33.5 46 57.5c0 15.333 -5.33301 27.5 -16 36.5s-27.667 13.5 -51 13.5c-43.333 0 -88.333 -18 -135 -54l-78 135c33.333 28.667 71.166 50.5 113.499 65.5
s86.833 22.5 133.5 22.5c34.667 0 66 -4.66699 94 -14s51.833 -22.333 71.5 -39s34.667 -36 45 -58s15.5 -45.667 15.5 -71c0 -56.667 -20.167 -105 -60.5 -145s-103.833 -67 -190.5 -81l-30 -74h-121z" />
    <glyph glyph-name="at" unicode="@" horiz-adv-x="965" 
d="M460 191c14 0 27.668 3.33008 41.001 9.99707s25 15.667 35 27s18 24.833 24 40.5s9 32.167 9 49.5c0 20.667 -6.5 37.334 -19.5 50.001s-29.833 19 -50.5 19c-14.667 0 -28.5 -3.33301 -41.5 -10s-24.5 -15.667 -34.5 -27s-17.833 -24.666 -23.5 -39.999
s-8.5 -31.666 -8.5 -48.999c0 -21.333 6.16699 -38.333 18.5 -51s29.166 -19 50.499 -19zM462.001 -154.003c-61.333 0 -117.5 9.33008 -168.5 27.9971s-94.833 45 -131.5 79s-65 74.833 -85 122.5s-30 100.5 -30 158.5c0 64.667 12.5 126.167 37.5 184.5
s59.5 109.5 103.5 153.5s95.833 78.833 155.5 104.5s124.167 38.5 193.5 38.5c63.333 0 119.833 -9 169.5 -27s91.834 -42.667 126.501 -74s61 -67.833 79 -109.5s27 -85.834 27 -132.501c0 -55.333 -7 -102.833 -21 -142.5s-32.5 -72.167 -55.5 -97.5
s-49 -44.166 -78 -56.499s-58.5 -18.5 -88.5 -18.5c-36.667 0 -68 7.66699 -94 23s-45.333 35 -58 59c-19.333 -21.333 -41.666 -40 -66.999 -56s-56 -24 -92 -24c-21.333 0 -41.5 3.83301 -60.5 11.5s-35.5 19 -49.5 34s-25 33 -33 54s-12 45.167 -12 72.5
c0 40.667 6.66699 78.667 20 114s31.333 65.833 54 91.5s48.667 45.834 78 60.501s60 22 92 22c33.333 0 60.166 -7 80.499 -21s36.5 -31 48.5 -51l21 67l147 -40l-80 -254c-10 -32 -9.83301 -56.667 0.5 -74s29.5 -26 57.5 -26c16 0 32.833 5.5 50.5 16.5
s33.667 27.167 48 48.5s26.333 48 36 80s14.5 68.667 14.5 110c0 40.667 -8.16699 79.334 -24.5 116.001s-40 68.5 -71 95.5s-68.833 48.5 -113.5 64.5s-95.334 24 -152.001 24c-64 0 -123.333 -11.833 -178 -35.5s-102.167 -55.667 -142.5 -96
s-71.833 -87.166 -94.5 -140.499s-34 -109.666 -34 -168.999c0 -52 9 -99.5 27 -142.5s43.5 -79.667 76.5 -110s72.5 -54 118.5 -71s97 -25.5 153 -25.5c37.333 0 72 3.66699 104 11s65.667 18.666 101 33.999l16 -37c-36.667 -16.667 -72.667 -28.667 -108 -36
s-73.333 -11 -114 -11z" />
    <glyph glyph-name="A" unicode="A" horiz-adv-x="775" 
d="M475 276l-25 201l-131 -201h156zM413 705h190l109 -705h-204l-17 125h-270l-84 -125h-211z" />
    <glyph glyph-name="B" unicode="B" horiz-adv-x="714" 
d="M366 156c34 0 60.5 6.83301 79.5 20.5s28.5 31.5 28.5 53.5c0 36.667 -28.667 55 -86 55h-134l-35 -129h147zM422 421c34.667 0 61 6.33301 79 19s27 30 27 52c0 16 -6.5 28.667 -19.5 38s-34.5 14 -64.5 14h-121l-32 -123h131zM176 700h291
c48 0 88.167 -4.5 120.5 -13.5s58.333 -21.333 78 -37s33.667 -33.667 42 -54s12.5 -41.5 12.5 -63.5c0 -44.667 -13.833 -82.667 -41.5 -114s-66.167 -53 -115.5 -65c31.333 -11.333 56.833 -28.5 76.5 -51.5s29.5 -52.5 29.5 -88.5c0 -30 -6.33301 -58 -19 -84
s-32.167 -48.5 -58.5 -67.5s-59.5 -34 -99.5 -45s-87 -16.5 -141 -16.5h-363z" />
    <glyph glyph-name="C" unicode="C" horiz-adv-x="727" 
d="M382 -14c-48.667 0 -93.1689 7.16504 -133.502 21.498s-75.166 34.833 -104.499 61.5s-52.166 58.834 -68.499 96.501s-24.5 79.834 -24.5 126.501c0 52 10.167 103.167 30.5 153.5s49.333 95.333 87 135s83.5 71.834 137.5 96.501s114.667 37 182 37
c72 0 132 -16 180 -48s82.667 -75 104 -129l-168 -90c-14 28.667 -32.333 50.834 -55 66.501s-51.334 23.5 -86.001 23.5c-29.333 0 -56.666 -6.33301 -81.999 -19s-47.333 -29.667 -66 -51s-33.5 -45.833 -44.5 -73.5s-16.5 -56.834 -16.5 -87.501
c0 -44.667 13.167 -79.834 39.5 -105.501s59.833 -38.5 100.5 -38.5c30.667 0 57.667 6.16699 81 18.5s46.333 29.833 69 52.5l131 -116c-34 -38.667 -74.667 -70.167 -122 -94.5s-104.333 -36.5 -171 -36.5z" />
    <glyph glyph-name="D" unicode="D" horiz-adv-x="761" 
d="M293 172c40.667 0 78.332 6 112.999 18s63.667 29.667 87 53c18.667 18.667 33.334 40.667 44.001 66s16 52 16 80c0 21.333 -3 39.833 -9 55.5s-14.667 29.167 -26 40.5c-13.333 13.333 -31 23.833 -53 31.5s-50 11.5 -84 11.5h-56l-96 -356h64zM175.998 700
l226 0.00195312c68 0 124 -8.33301 168 -25s79.333 -38.334 106 -65.001c50.667 -50.667 76 -119 76 -205c0 -52.667 -9.66699 -102.334 -29 -149.001s-48 -89 -86 -127c-42 -42 -93.333 -74 -154 -96s-131.667 -33 -213 -33h-282z" />
    <glyph glyph-name="E" unicode="E" horiz-adv-x="669" 
d="M176 700h561l-45 -165h-368l-29 -106h334l-41 -153h-334l-30 -111h374l-44 -165h-566z" />
    <glyph glyph-name="F" unicode="F" horiz-adv-x="652" 
d="M176 700h560l-46 -170h-365l-32 -119h330l-43 -161h-330l-67 -250h-195z" />
    <glyph glyph-name="G" unicode="G" horiz-adv-x="762" 
d="M387 -14c-42 0 -83.165 5.99805 -123.498 17.998s-76.333 30.667 -108 56s-57.167 57.333 -76.5 96s-29 85 -29 139c0 56 10.833 109.167 32.5 159.5s52.334 94.833 92.001 133.5s87 69.334 142 92.001s115.833 34 182.5 34c34.667 0 67.167 -3.33301 97.5 -10
s57.666 -15.5 81.999 -26.5s45.833 -23.667 64.5 -38s34 -29.166 46 -44.499l-130 -126c-20.667 20.667 -45.167 37.834 -73.5 51.501s-61.5 20.5 -99.5 20.5c-35.333 0 -67.5 -6.33301 -96.5 -19s-54 -29.834 -75 -51.501s-37.333 -47 -49 -76s-17.5 -59.5 -17.5 -91.5
c0 -24.667 4.16699 -46.334 12.5 -65.001s19.666 -34.167 33.999 -46.5s31 -21.666 50 -27.999s39.167 -9.5 60.5 -9.5c19.333 0 36.666 1.83301 51.999 5.5s29 8.16699 41 13.5l28 94h-135l37 142h321l-100 -353c-34.667 -20 -74 -36.667 -118 -50s-92 -20 -144 -20z" />
    <glyph glyph-name="H" unicode="H" horiz-adv-x="757" 
d="M176 700h195l-71 -262h247l70 262h195l-188 -700h-195l72 266h-247l-71 -266h-195z" />
    <glyph glyph-name="I" unicode="I" horiz-adv-x="325" 
d="M181 700h194l-188 -700h-194z" />
    <glyph glyph-name="J" unicode="J" horiz-adv-x="568" 
d="M197 -12c-49.333 0 -95 10.5 -137 31.5s-75.667 51.5 -101 91.5l132 115c18 -24.667 35.833 -42.167 53.5 -52.5s37.167 -15.5 58.5 -15.5c28.667 0 53.667 10.667 75 32c4.66699 4.66699 9.16699 10.167 13.5 16.5s8.5 14 12.5 23s8.16699 20 12.5 33
s9.16602 28.5 14.499 46.5l105 391h193l-114 -428c-13.333 -50 -28 -91.167 -44 -123.5s-36 -60.5 -60 -84.5c-25.333 -24.667 -55.666 -43.5 -90.999 -56.5s-76.333 -19.5 -123 -19.5z" />
    <glyph glyph-name="K" unicode="K" horiz-adv-x="722" 
d="M176 700h195l-76 -280l289 280h247l-330 -307l156 -393h-210l-101 270l-121 -111l-42 -159h-195z" />
    <glyph glyph-name="L" unicode="L" horiz-adv-x="617" 
d="M176 700h195l-142 -530h334l-46 -170h-529z" />
    <glyph glyph-name="M" unicode="M" horiz-adv-x="866" 
d="M176 700h196l93 -271l238 271h218l-188 -700h-195l107 402l-251 -274h-4l-103 272l-107 -400h-192z" />
    <glyph glyph-name="N" unicode="N" horiz-adv-x="781" 
d="M176 700h181l181 -389l105 389h193l-188 -700h-170l-189 403l-108 -403h-193z" />
    <glyph glyph-name="O" unicode="O" horiz-adv-x="813" 
d="M403 161c30.667 0 58.5029 6.66699 83.5029 20s46.167 30.833 63.5 52.5s30.833 45.667 40.5 72s14.5 52.5 14.5 78.5c0 22 -3.33301 42.5 -10 61.5s-16.5 35.5 -29.5 49.5s-29 24.833 -48 32.5s-40.833 11.5 -65.5 11.5c-30.667 0 -58.334 -6.66699 -83.001 -20
s-45.834 -30.833 -63.501 -52.5s-31.334 -45.667 -41.001 -72s-14.5 -52.5 -14.5 -78.5c0 -22 3.33301 -42.5 10 -61.5s16.5 -35.5 29.5 -49.5s29 -24.833 48 -32.5s40.833 -11.5 65.5 -11.5zM386.003 -13c-50 0 -95.5 8 -136.5 24s-76.167 38 -105.5 66
s-52 61.167 -68 99.5s-24 79.833 -24 124.5c0 53.333 10.333 104.833 31 154.5s49.5 93.5 86.5 131.5s81 68.5 132 91.5s106.833 34.5 167.5 34.5c50 0 95.5 -8 136.5 -24s76.167 -38 105.5 -66s52 -61.167 68 -99.5s24 -79.833 24 -124.5
c0 -53.333 -10.333 -104.833 -31 -154.5s-49.5 -93.5 -86.5 -131.5s-81 -68.5 -132 -91.5s-106.833 -34.5 -167.5 -34.5z" />
    <glyph glyph-name="P" unicode="P" horiz-adv-x="672" 
d="M350 352c48 0 85.167 9.83398 111.5 29.501s39.5 46.167 39.5 79.5c0 19.333 -6.66699 35.666 -20 48.999c-18 18 -45.667 27 -83 27h-72l-49 -185h73zM176 700.001l229 0.000976562c57.333 0 105.333 -6 144 -18s70.667 -30.667 96 -56
c36.667 -36.667 55 -84.334 55 -143.001c0 -43.333 -8.5 -82.5 -25.5 -117.5s-40.667 -64.667 -71 -89s-66.833 -43 -109.5 -56s-90 -19.5 -142 -19.5h-115l-54 -201h-195z" />
    <glyph glyph-name="Q" unicode="Q" horiz-adv-x="813" 
d="M402 157c9.33301 0 18.1689 0.833008 26.502 2.5s16.166 3.83398 23.499 6.50098l-77 104l139 92l60 -94c10 17.333 17.667 35.833 23 55.5s8 39.167 8 58.5c0 22.667 -3.33301 43.667 -10 63s-16.5 36 -29.5 50s-29 24.833 -48 32.5s-40.833 11.5 -65.5 11.5
c-30.667 0 -58.5 -6.83301 -83.5 -20.5s-46.333 -31.167 -64 -52.5s-31.334 -45.333 -41.001 -72s-14.5 -53.334 -14.5 -80.001c0 -22.667 3.33301 -43.667 10 -63s16.5 -36 29.5 -50s29 -24.833 48 -32.5s40.833 -11.5 65.5 -11.5zM558.003 24
c-53.333 -24.667 -110.667 -37 -172 -37c-50 0 -95.5 8 -136.5 24s-76.167 38 -105.5 66s-52 61.167 -68 99.5s-24 79.833 -24 124.5c0 53.333 10.333 104.833 31 154.5s49.5 93.5 86.5 131.5s81 68.5 132 91.5s106.833 34.5 167.5 34.5c50 0 95.5 -8 136.5 -24
s76.167 -38 105.5 -66s52 -61.167 68 -99.5s24 -79.833 24 -124.5c0 -52 -10.167 -102.333 -30.5 -151s-48.5 -92 -84.5 -130l53 -72l-138 -91z" />
    <glyph glyph-name="R" unicode="R" horiz-adv-x="720" 
d="M391 364c44 0 79 8.66699 105 26s39 41 39 71c0 18 -6 33.667 -18 47c-16 16 -44.667 24 -86 24h-105l-46 -168h111zM176 700l264 0.000976562c58.667 0 107.667 -6.33301 147 -19s70.666 -30.667 93.999 -54c18.667 -18.667 32.334 -40.167 41.001 -64.5
s13 -50.5 13 -78.5c0 -58.667 -17 -109.834 -51 -153.501s-87 -75.167 -159 -94.5l108 -236h-214l-93 212h-86l-57 -212h-195z" />
    <glyph glyph-name="S" unicode="S" horiz-adv-x="645" 
d="M302 -12c-68.667 0 -130.496 11.1641 -185.496 33.4971s-101.5 53.833 -139.5 94.5l125 129c68.667 -63.333 140.667 -95 216 -95c23.333 0 42.333 4.66699 57 14s22 22 22 38c0 6.66699 -1.5 12.834 -4.5 18.501s-8.83301 11.334 -17.5 17.001s-20.5 12 -35.5 19
s-34.833 15.167 -59.5 24.5c-28 10.667 -53.167 21.834 -75.5 33.501s-41.333 25 -57 40s-27.834 32.167 -36.501 51.5s-13 42 -13 68c0 34.667 7.5 66.667 22.5 96s35.667 54.5 62 75.5s57.666 37.333 93.999 49s75.833 17.5 118.5 17.5c62 0 116.833 -9.33301 164.5 -28
s88.5 -44 122.5 -76l-120 -134c-26.667 23.333 -55.167 42 -85.5 56s-63.5 21 -99.5 21c-23.333 0 -41.833 -4.83301 -55.5 -14.5s-20.5 -21.5 -20.5 -35.5c0 -7.33301 1.66699 -13.5 5 -18.5s9.16602 -10.167 17.499 -15.5s20.166 -11.333 35.499 -18s35 -14.667 59 -24
c26.667 -10 51.167 -21 73.5 -33s41.5 -25.5 57.5 -40.5s28.5 -32.5 37.5 -52.5s13.5 -43 13.5 -69c0 -36 -7.33301 -68.833 -22 -98.5s-35.167 -55.167 -61.5 -76.5s-57.833 -37.833 -94.5 -49.5s-76.667 -17.5 -120 -17.5z" />
    <glyph glyph-name="T" unicode="T" horiz-adv-x="645" 
d="M294 530h-210l46 170h613l-45 -170h-210l-142 -530h-195z" />
    <glyph glyph-name="U" unicode="U" horiz-adv-x="760" 
d="M342 -13c-90.667 0 -160.499 21.499 -209.499 64.499s-73.5 103.167 -73.5 180.5c0 17.333 1.33301 35.5 4 54.5s6.66699 38.167 12 57.5l96 356h196l-99 -370c-3.33301 -11.333 -5.83301 -22.333 -7.5 -33s-2.5 -21.667 -2.5 -33c0 -32 9.33301 -57 28 -75
s45.667 -27 81 -27c38 0 69.333 12.333 94 37c13.333 12.667 24.666 28.167 33.999 46.5s17.666 41.5 24.999 69.5l104 385h196l-111 -414c-24.667 -91.333 -61 -161 -109 -209c-31.333 -31.333 -68.666 -54.166 -111.999 -68.499s-92 -21.5 -146 -21.5z" />
    <glyph glyph-name="V" unicode="V" horiz-adv-x="739" 
d="M109 700h212l39 -440l275 440h219l-471 -705h-181z" />
    <glyph glyph-name="W" unicode="W" horiz-adv-x="1102" 
d="M117 700h201l13 -405l242 407h168l27 -407l230 405h211l-423 -705h-174l-32 398l-245 -398h-173z" />
    <glyph glyph-name="X" unicode="X" horiz-adv-x="713" 
d="M266 366l-145 334h213l77 -197l173 197h234l-324 -348l154 -352h-214l-84 216l-190 -216h-235z" />
    <glyph glyph-name="Y" unicode="Y" horiz-adv-x="677" 
d="M232 271l-141 429h209l69 -262l211 262h232l-391 -450l-67 -250h-195z" />
    <glyph glyph-name="Z" unicode="Z" horiz-adv-x="681" 
d="M1 141l446 395h-328l45 164h595l-38 -141l-446 -395h341l-44 -164h-608z" />
    <glyph glyph-name="bracketleft" unicode="[" horiz-adv-x="468" 
d="M197 700h346l-35 -129h-176l-154 -572h176l-34 -129h-346z" />
    <glyph glyph-name="backslash" unicode="\" horiz-adv-x="535" 
d="M109 798h153l207 -926h-153z" />
    <glyph glyph-name="bracketright" unicode="]" horiz-adv-x="468" 
d="M-32 -1h176l153 572h-176l35 129h346l-223 -830h-346z" />
    <glyph glyph-name="asciicircum" unicode="^" 
d="M288 699h128l89 -206h-123l-50 97l-102 -97h-141z" />
    <glyph glyph-name="underscore" unicode="_" horiz-adv-x="600" 
d="M-86 -44h604l-31 -116h-604z" />
    <glyph glyph-name="grave" unicode="`" 
d="M222 715l179 57l55 -185h-123z" />
    <glyph glyph-name="a" unicode="a" horiz-adv-x="597" 
d="M240 106c24.667 0 47.501 9.33496 68.501 28.002s35.167 42 42.5 70l5 18c-10.667 3.33301 -21.834 6.16602 -33.501 8.49902s-24.167 3.5 -37.5 3.5c-30 0 -54 -6.83301 -72 -20.5s-27 -32.834 -27 -57.501c0 -15.333 5 -27.5 15 -36.5s23 -13.5 39 -13.5z
M152.001 -10.998c-44.667 0 -81.0049 13.166 -109.005 39.499s-42 62.166 -42 107.499c0 30 5.66699 56.667 17 80s27.5 43.333 48.5 60s46 29.334 75 38.001s61.5 13 97.5 13c24.667 0 48.334 -1.83301 71.001 -5.5s44.667 -8.83398 66 -15.501l2 7
c1.33301 4.66699 2.5 9.66699 3.5 15s1.5 11.333 1.5 18c0 17.333 -7.16699 31.333 -21.5 42s-38.166 16 -71.499 16c-25.333 0 -51.166 -2.66699 -77.499 -8s-49.166 -11.666 -68.499 -18.999l-27 138c28.667 10 61.5 18 98.5 24s75.167 9 114.5 9
c81.333 0 141.833 -15.167 181.5 -45.5s59.5 -72.5 59.5 -126.5c0 -24 -3.66699 -50 -11 -78l-80 -298h-187l15 58c-23.333 -21.333 -47.166 -38.166 -71.499 -50.499s-52.5 -18.5 -84.5 -18.5z" />
    <glyph glyph-name="b" unicode="b" horiz-adv-x="672" 
d="M320 146c18 0 34.999 4 50.999 12s30 19 42 33s21.5 30.5 28.5 49.5s10.5 39.167 10.5 60.5c0 29.333 -8.33301 52.5 -25 69.5s-39 25.5 -67 25.5c-18 0 -35.167 -4.16699 -51.5 -12.5s-30.666 -19.5 -42.999 -33.5s-22 -30.333 -29 -49s-10.5 -38.334 -10.5 -59.001
c0 -29.333 8.66699 -52.666 26 -69.999s40 -26 68 -26zM352.999 -12c-40.667 0 -73.998 8.00488 -99.998 24.0049s-47.333 36.667 -64 62l-20 -74h-190l195 730h190l-66 -246c21.333 21.333 44.833 38.166 70.5 50.499s53.5 18.5 83.5 18.5c26.667 0 51.667 -5 75 -15
s43.666 -24.5 60.999 -43.5s31 -42.333 41 -70s15 -58.834 15 -93.501c0 -48.667 -7.83301 -93.834 -23.5 -135.501s-36.834 -77.834 -63.501 -108.501s-57.667 -54.834 -93 -72.501s-72.333 -26.5 -111 -26.5z" />
    <glyph glyph-name="c" unicode="c" horiz-adv-x="563" 
d="M281 -13c-36.667 0 -70.499 5.50098 -101.499 16.501s-57.667 26.667 -80 47s-39.833 45.166 -52.5 74.499s-19 62.333 -19 99c0 45.333 8.5 88 25.5 128s40.167 74.833 69.5 104.5s63.666 53 102.999 70s81.666 25.5 126.999 25.5
c31.333 0 59.666 -3.83301 84.999 -11.5s47.5 -18.167 66.5 -31.5s35 -29 48 -47s23.167 -37.333 30.5 -58l-149 -77c-9.33301 21.333 -21 38 -35 50s-33.333 18 -58 18c-18 0 -34.833 -4.5 -50.5 -13.5s-29.5 -21 -41.5 -36s-21.333 -32.167 -28 -51.5s-10 -39.333 -10 -60
c0 -28 8 -50 24 -66s35.667 -24 59 -24c20 0 37.833 4.16699 53.5 12.5s31.834 20.833 48.501 37.5l116 -101c-27.333 -32 -59.166 -57.667 -95.499 -77s-81.5 -29 -135.5 -29z" />
    <glyph glyph-name="d" unicode="d" horiz-adv-x="672" 
d="M312 145c18 0 35.168 4.16699 51.501 12.5s30.666 19.5 42.999 33.5s22 30.333 29 49s10.5 38.334 10.5 59.001c0 29.333 -8.66699 52.666 -26 69.999s-40 26 -68 26c-18 0 -35 -4 -51 -12s-30 -19 -42 -33s-21.5 -30.5 -28.5 -49.5s-10.5 -39.167 -10.5 -60.5
c0 -29.333 8.33301 -52.5 25 -69.5s39 -25.5 67 -25.5zM220.001 -12c-26.667 0 -51.6689 4.99902 -75.002 14.999s-43.666 24.5 -60.999 43.5s-31 42.167 -41 69.5s-15 58.666 -15 93.999c0 48.667 7.83301 93.834 23.5 135.501s36.834 77.834 63.501 108.501
s57.667 54.834 93 72.501s72.333 26.5 111 26.5c40.667 0 74 -8 100 -24s47.333 -36.667 64 -62l70 263h190l-195 -730h-190l16 57c-21.333 -20.667 -44.833 -37.334 -70.5 -50.001s-53.5 -19 -83.5 -19z" />
    <glyph glyph-name="e" unicode="e" horiz-adv-x="601" 
d="M409 315c3.33301 10 5 19.666 5 28.999c0 18.667 -6 34.834 -18 48.501s-30.667 20.5 -56 20.5s-49.5 -8.16699 -72.5 -24.5s-40.167 -40.833 -51.5 -73.5h193zM203 217.999c2 -27.333 11.1689 -49 27.502 -65s40.833 -24 73.5 -24c19.333 0 38.166 3.33301 56.499 10
s37.833 17.667 58.5 33l88 -104c-28 -24 -60 -43.5 -96 -58.5s-77.667 -22.5 -125 -22.5c-40 0 -76 5.66699 -108 17s-59 27.5 -81 48.5s-39 46.167 -51 75.5s-18 62.333 -18 99c0 40 7.5 79.5 22.5 118.5s36.667 73.833 65 104.5s62.5 55.5 102.5 74.5s85 28.5 135 28.5
c40 0 74.5 -6.16699 103.5 -18.5s52.833 -28.833 71.5 -49.5s32.5 -44.5 41.5 -71.5s13.5 -55.167 13.5 -84.5c0 -18.667 -1.83301 -37.5 -5.5 -56.5s-8.83398 -37.167 -15.501 -54.5h-359z" />
    <glyph glyph-name="f" unicode="f" horiz-adv-x="418" 
d="M118 388h-63.999l41 153h63l3 11c16.667 66 44 113.333 82 142s88 43 150 43c23.333 0 44.833 -1.5 64.5 -4.5s38.5 -7.5 56.5 -13.5l-35 -133c-10 3.33301 -20.833 6.16602 -32.5 8.49902s-22.167 3.5 -31.5 3.5c-19.333 0 -34.333 -4.16699 -45 -12.5
s-18.334 -21.166 -23.001 -38.499l-3 -9h122l-40 -150h-118l-105 -388h-190z" />
    <glyph glyph-name="g" unicode="g" horiz-adv-x="668" 
d="M310 185c18 0 34.832 3.66699 50.499 11s29.334 17 41.001 29s20.667 25.833 27 41.5s9.5 32.167 9.5 49.5c0 25.333 -8 46 -24 62s-38 24 -66 24c-18 0 -34.833 -3.66699 -50.5 -11s-29 -17.333 -40 -30s-19.667 -27 -26 -43s-9.5 -32.667 -9.5 -50
c0 -25.333 8 -45.5 24 -60.5s37.333 -22.5 64 -22.5zM237.999 -162c-26 0 -52.1631 1.83203 -78.4961 5.49902s-51.833 8.66699 -76.5 15s-48.167 14 -70.5 23s-42.166 19.167 -59.499 30.5l85 119c30.667 -18.667 62.667 -32.667 96 -42s65.333 -14 96 -14
c25.333 0 47 3.33301 65 10s33.667 16.667 47 30c10 10 18.667 22.167 26 36.5s13.666 31.166 18.999 50.499l3 12c-24 -21.333 -49 -37.666 -75 -48.999s-55.667 -17 -89 -17c-24.667 0 -48.5 4 -71.5 12s-43.5 20 -61.5 36s-32.5 35.667 -43.5 59s-16.5 50 -16.5 80
c0 42 7.16699 82.167 21.5 120.5s34.333 72 60 101s55.834 52.167 90.501 69.5s72 26 112 26c41.333 0 75.166 -8.66699 101.499 -26s47.166 -38 62.499 -62l20 77h190l-115 -430c-6.66699 -24 -13.334 -45.5 -20.001 -64.5s-13.834 -36.333 -21.501 -52
s-16 -29.667 -25 -42s-18.833 -24.166 -29.5 -35.499c-27.333 -26.667 -60.333 -46.5 -99 -59.5s-86.334 -19.5 -143.001 -19.5z" />
    <glyph glyph-name="h" unicode="h" horiz-adv-x="632" 
d="M174 730l189.999 -0.000976562l-67 -251c18.667 19.333 41.167 36.5 67.5 51.5s55.5 22.5 87.5 22.5c49.333 0 87.833 -14.5 115.5 -43.5s41.5 -68.5 41.5 -118.5c0 -14.667 -1.5 -30.167 -4.5 -46.5s-6.83301 -33.166 -11.5 -50.499l-78 -294h-190l76 283
c2 7.33301 3.5 15 4.5 23s1.5 15 1.5 21c0 18 -5.16699 32 -15.5 42s-25.166 15 -44.499 15c-26.667 0 -48 -8.5 -64 -25.5s-28.333 -41.167 -37 -72.5l-77 -286h-190z" />
    <glyph glyph-name="i" unicode="i" horiz-adv-x="301" 
d="M128 541h190l-145 -541h-190zM176 730h198l-38 -140h-198z" />
    <glyph glyph-name="j" unicode="j" horiz-adv-x="303" 
d="M-53 -163c-16 0 -30.167 0.499023 -42.5 1.49902s-25.166 2.83301 -38.499 5.5l33 126c8 -2 16 -3 24 -3c19.333 0 34.666 5.83301 45.999 17.5s20.666 31.834 27.999 60.501l133 496h190l-140 -520c-10 -36 -22 -65.833 -36 -89.5s-30.667 -42.5 -50 -56.5
s-41.166 -23.833 -65.499 -29.5s-51.5 -8.5 -81.5 -8.5zM177 729.999h198l-38 -140h-198z" />
    <glyph glyph-name="k" unicode="k" horiz-adv-x="599" 
d="M175 730h190l-96 -357l181 168h229l-249 -222l106 -319h-203l-58 192l-71 -63l-35 -129h-190z" />
    <glyph glyph-name="l" unicode="l" horiz-adv-x="301" 
d="M179 730h190l-196 -730h-190z" />
    <glyph glyph-name="m" unicode="m" horiz-adv-x="968" 
d="M124 541l190.001 0.00195312l-16 -60c18.667 19.333 40.5 36.166 65.5 50.499s53.5 21.5 85.5 21.5c37.333 0 67.666 -8.66699 90.999 -26s40 -40 50 -68c25.333 29.333 54.333 52.333 87 69s69 25 109 25c52 0 91.667 -14.333 119 -43s41 -68 41 -118
c0 -14.667 -1.5 -30.334 -4.5 -47.001s-6.83301 -33.667 -11.5 -51l-79 -294h-189l75 283c2 7.33301 3.66699 15 5 23s2 15 2 21c0 18 -4.66699 32 -14 42s-24 15 -44 15c-25.333 0 -46 -8.5 -62 -25.5s-28.333 -41.167 -37 -72.5l-77 -286h-190l76 283
c2 7.33301 3.66699 15 5 23s2 15 2 21c0 18 -4.83301 32 -14.5 42s-24.167 15 -43.5 15c-25.333 0 -46 -8.5 -62 -25.5s-28.333 -41.167 -37 -72.5l-77 -286h-190z" />
    <glyph glyph-name="n" unicode="n" horiz-adv-x="630" 
d="M124 541l189.999 -0.000976562l-17 -62c18.667 19.333 41.167 36.5 67.5 51.5s55.5 22.5 87.5 22.5c49.333 0 87.833 -14.5 115.5 -43.5s41.5 -68.5 41.5 -118.5c0 -14.667 -1.5 -30.167 -4.5 -46.5s-6.83301 -33.166 -11.5 -50.499l-78 -294h-190l76 283
c2 7.33301 3.5 15 4.5 23s1.5 15 1.5 21c0 18 -5.16699 32 -15.5 42s-25.166 15 -44.499 15c-26.667 0 -48 -8.5 -64 -25.5s-28.333 -41.167 -37 -72.5l-77 -286h-190z" />
    <glyph glyph-name="o" unicode="o" horiz-adv-x="644" 
d="M306 145c18.667 0 35.834 4.5 51.501 13.5s29 20.667 40 35s19.5 30.333 25.5 48s9 35.5 9 53.5c0 30.667 -8.66699 55 -26 73s-40 27 -68 27c-18.667 0 -35.834 -4.5 -51.501 -13.5s-29 -20.667 -40 -35s-19.5 -30.333 -25.5 -48s-9 -35.167 -9 -52.5
c0 -31.333 8.66699 -56 26 -74s40 -27 68 -27zM295 -13c-41.333 0 -78.335 6.49902 -111.002 19.499s-60.5 30.667 -83.5 53s-40.5 48.833 -52.5 79.5s-18 64 -18 100c0 40.667 8 80 24 118s38.333 71.5 67 100.5s62.334 52.167 101.001 69.5s80.667 26 126 26
c41.333 0 78.5 -6.5 111.5 -19.5s61 -30.667 84 -53s40.5 -48.833 52.5 -79.5s18 -63.667 18 -99c0 -41.333 -8.16699 -80.833 -24.5 -118.5s-38.666 -71.167 -66.999 -100.5s-62 -52.666 -101 -69.999s-81.167 -26 -126.5 -26z" />
    <glyph glyph-name="p" unicode="p" horiz-adv-x="672" 
d="M320 146c18 0 34.999 4 50.999 12s30 19 42 33s21.5 30.5 28.5 49.5s10.5 39.167 10.5 60.5c0 29.333 -8.33301 52.5 -25 69.5s-39 25.5 -67 25.5c-18 0 -35.167 -4.16699 -51.5 -12.5s-30.666 -19.5 -42.999 -33.5s-22 -30.333 -29 -49s-10.5 -38.334 -10.5 -59.001
c0 -29.333 8.66699 -52.666 26 -69.999s40 -26 68 -26zM123.999 541l190.002 0.00488281l-16 -57c21.333 21.333 44.833 38.166 70.5 50.499s53.5 18.5 83.5 18.5c26.667 0 51.667 -5 75 -15s43.666 -24.5 60.999 -43.5s31 -42.333 41 -70s15 -58.834 15 -93.501
c0 -48.667 -7.83301 -93.834 -23.5 -135.501s-36.834 -77.834 -63.501 -108.501s-57.667 -54.834 -93 -72.501s-72.333 -26.5 -111 -26.5c-40.667 0 -74 8 -100 24s-47.333 36.667 -64 62l-63 -234h-190z" />
    <glyph glyph-name="q" unicode="q" horiz-adv-x="672" 
d="M312 145c18 0 35.168 4.16699 51.501 12.5s30.666 19.5 42.999 33.5s22 30.333 29 49s10.5 38.334 10.5 59.001c0 29.333 -8.66699 52.666 -26 69.999s-40 26 -68 26c-18 0 -35 -4 -51 -12s-30 -19 -42 -33s-21.5 -30.5 -28.5 -49.5s-10.5 -39.167 -10.5 -60.5
c0 -29.333 8.33301 -52.5 25 -69.5s39 -25.5 67 -25.5zM374.001 57c-21.333 -20.667 -44.835 -37.335 -70.502 -50.002s-53.5 -19 -83.5 -19c-26.667 0 -51.667 5 -75 15s-43.666 24.5 -60.999 43.5s-31 42.167 -41 69.5s-15 58.666 -15 93.999
c0 48.667 7.83301 93.834 23.5 135.501s36.834 77.834 63.501 108.501s57.667 54.834 93 72.501s72.333 26.5 111 26.5c40.667 0 74 -8 100 -24s47.333 -36.667 64 -62l20 74h190l-193 -721h-190z" />
    <glyph glyph-name="r" unicode="r" horiz-adv-x="430" 
d="M124 541l190 -0.00195312l-29 -109c26 38.667 55.333 68.834 88 90.501s71 30.834 115 27.501l-54 -200h-16c-52 0 -94.833 -15 -128.5 -45s-59.167 -77.333 -76.5 -142l-44 -163h-190z" />
    <glyph glyph-name="s" unicode="s" horiz-adv-x="511" 
d="M230 -13c-52 0 -101.326 8.33301 -147.993 25s-86.334 39.667 -119.001 69l94 111c26 -23.333 55.667 -41.333 89 -54s63.666 -19 90.999 -19c16 0 28 3 36 9s12 14 12 24c0 9.33301 -5.66699 17.5 -17 24.5s-30.333 15.833 -57 26.5
c-21.333 8.66699 -41.333 17.667 -60 27s-34.834 20.166 -48.501 32.499s-24.334 26.5 -32.001 42.5s-11.5 34.667 -11.5 56c0 26.667 5.33301 51.834 16 75.501s26 44 46 61s44.667 30.5 74 40.5s62.666 15 99.999 15c49.333 0 94.5 -7.66699 135.5 -23
s73.833 -33 98.5 -53l-91 -114c-23.333 17.333 -48.5 31.333 -75.5 42s-52.833 16 -77.5 16c-31.333 0 -47 -10.333 -47 -31c0 -9.33301 5.5 -17.333 16.5 -24s30.5 -15.667 58.5 -27c19.333 -8 38.166 -16.5 56.499 -25.5s34.5 -19.5 48.5 -31.5s25.167 -26.167 33.5 -42.5
s12.5 -35.833 12.5 -58.5c0 -26 -4.83301 -50.667 -14.5 -74s-24.334 -44 -44.001 -62s-44.167 -32.167 -73.5 -42.5s-63.333 -15.5 -102 -15.5z" />
    <glyph glyph-name="t" unicode="t" horiz-adv-x="430" 
d="M214 -11c-55.333 0 -96.5 11.335 -123.5 34.002s-40.5 54 -40.5 94c0 11.333 0.833008 22.666 2.5 33.999s4.16699 23.666 7.5 36.999l54 200h-64l41 153h64l37 137h190l-37 -137h126l-41 -153h-126l-46 -170c-3.33301 -14.667 -5 -25.667 -5 -33
c0 -22.667 14.333 -34 43 -34c20 0 44 5 72 15l-42 -158c-17.333 -6 -35.5 -10.667 -54.5 -14s-38.167 -5 -57.5 -5z" />
    <glyph glyph-name="u" unicode="u" horiz-adv-x="632" 
d="M183 -12c-49.333 0 -87.834 14.501 -115.501 43.501s-41.5 68.5 -41.5 118.5c0 14.667 1.33301 30.167 4 46.5s6.33398 33.166 11.001 50.499l79 294h190l-76 -283c-2 -7.33301 -3.66699 -15 -5 -23s-2 -15 -2 -21c0 -18 5.16699 -32 15.5 -42s25.5 -15 45.5 -15
c26.667 0 48 8.5 64 25.5s28 41.167 36 72.5l77 286h190l-144 -541h-190l16 62c-18.667 -19.333 -41 -36.5 -67 -51.5s-55 -22.5 -87 -22.5z" />
    <glyph glyph-name="v" unicode="v" horiz-adv-x="621" 
d="M81 541h195l20 -315l187 315h202l-361 -545h-173z" />
    <glyph glyph-name="w" unicode="w" horiz-adv-x="859" 
d="M84 541h183l-2 -272l157 274h156l11 -276l146 274h185l-313 -545h-162l-13 281l-165 -281h-164z" />
    <glyph glyph-name="x" unicode="x" horiz-adv-x="589" 
d="M197 281l-112 260h197l47 -131l109 131h214l-252 -274l114 -267h-197l-49 137l-116 -137h-214z" />
    <glyph glyph-name="y" unicode="y" horiz-adv-x="622" 
d="M94 -163c-32 0 -59.332 3.5 -81.999 10.5s-43.334 16.5 -62.001 28.5l85 139c24.667 -18 49.667 -27 75 -27c9.33301 0 17.5 1.33301 24.5 4s14.5 8 22.5 16l-70 533h193l22 -325l182 325h200l-335 -538c-19.333 -30.667 -38.5 -56.5 -57.5 -77.5s-38.833 -38 -59.5 -51
s-42.167 -22.5 -64.5 -28.5s-46.833 -9 -73.5 -9z" />
    <glyph glyph-name="z" unicode="z" horiz-adv-x="558" 
d="M-6 125l318 265h-238l40 151h486l-33 -125l-319 -265h249l-40 -151h-497z" />
    <glyph glyph-name="braceleft" unicode="{" horiz-adv-x="497" 
d="M322 -141c-41.333 4.66699 -75.6689 11.334 -103.002 20.001s-49.166 19.334 -65.499 32.001s-27.833 26.834 -34.5 42.501s-10 32.834 -10 51.501c0 12 1.33301 24.833 4 38.5s6.66699 28.167 12 43.5c4.66699 14.667 8.5 28.667 11.5 42s4.5 24.666 4.5 33.999
s-1.16699 17.833 -3.5 25.5s-6.66602 14.167 -12.999 19.5s-15.166 9.33301 -26.499 12s-26.333 4 -45 4h-26l33 126h27c26.667 0 48.667 2.5 66 7.5s31.5 13.5 42.5 25.5s19.5 27.833 25.5 47.5s11 43.834 15 72.501c4.66699 34 12.667 64.167 24 90.5
s28.666 48.5 51.999 66.5s53.833 31.667 91.5 41s85.167 14 142.5 14l12 -112c-32.667 -2.66699 -59.167 -7.83398 -79.5 -15.501s-36.333 -17.834 -48 -30.501s-20 -27.834 -25 -45.501s-8.83301 -37.5 -11.5 -59.5c-3.33301 -27.333 -8.33301 -51.333 -15 -72
s-16.167 -38.167 -28.5 -52.5s-28.5 -25.833 -48.5 -34.5s-45 -14.667 -75 -18c30.667 -6 52.667 -17.5 66 -34.5s20 -37.167 20 -60.5c0 -12 -1.5 -24 -4.5 -36s-6.16699 -23.667 -9.5 -35c-4 -11.333 -7.5 -22.833 -10.5 -34.5s-4.5 -22.834 -4.5 -33.501
c0 -20 6 -36 18 -48s36.333 -22.333 73 -31z" />
    <glyph glyph-name="bar" unicode="|" horiz-adv-x="356" 
d="M122 798h145v-926h-145v926z" />
    <glyph glyph-name="braceright" unicode="}" horiz-adv-x="497" 
d="M-52 -29c32.667 2.66699 59.0039 7.83398 79.0039 15.501s35.833 17.834 47.5 30.501s20 27.834 25 45.501s9.16699 37.5 12.5 59.5c3.33301 27.333 8.33301 51.333 15 72s16.167 38.167 28.5 52.5s28.5 25.833 48.5 34.5s45 14.667 75 18
c-30.667 6 -52.667 17.5 -66 34.5s-20 37.167 -20 60.5c0 12 1.5 24 4.5 36s6.16699 23.667 9.5 35c4 11.333 7.5 22.833 10.5 34.5s4.5 22.834 4.5 33.501c0 10 -1.33301 18.833 -4 26.5s-7.33398 14.667 -14.001 21s-16 12 -28 17s-27 9.83301 -45 14.5l53 103
c41.333 -4.66699 75.666 -11.334 102.999 -20.001s49.166 -19.334 65.499 -32.001s27.833 -26.834 34.5 -42.501s10 -32.834 10 -51.501c0 -12 -1.33301 -24.833 -4 -38.5s-6.66699 -28.167 -12 -43.5c-4.66699 -14.667 -8.5 -28.667 -11.5 -42s-4.5 -24.666 -4.5 -33.999
s1.16699 -17.833 3.5 -25.5s6.66602 -14.167 12.999 -19.5s15.166 -9.33301 26.499 -12s26.333 -4 45 -4h26l-33 -126h-27c-26.667 0 -48.667 -2.5 -66 -7.5s-31.5 -13.5 -42.5 -25.5s-19.5 -27.833 -25.5 -47.5s-11 -43.834 -15 -72.501
c-4.66699 -34 -12.667 -64.167 -24 -90.5s-28.666 -48.5 -51.999 -66.5s-53.833 -31.667 -91.5 -41s-85.167 -14 -142.5 -14z" />
    <glyph glyph-name="asciitilde" unicode="~" horiz-adv-x="505" 
d="M41 257c19.333 46.667 42.833 82.334 70.5 107.001s57.5 37 89.5 37c17.333 0 32.833 -3 46.5 -9s26.167 -13.333 37.5 -22c11.333 -8 21 -14 29 -18s15.667 -6 23 -6c14 0 26.167 5.16699 36.5 15.5s20.166 24.166 29.499 41.499l89 -41
c-19.333 -46.667 -43 -82.334 -71 -107.001s-58 -37 -90 -37c-17.333 0 -32.833 3 -46.5 9s-26.167 13.333 -37.5 22c-11.333 8 -21 14 -29 18s-15.667 6 -23 6c-14 0 -26.167 -5.16699 -36.5 -15.5s-20.166 -24.166 -29.499 -41.499z" />
    <glyph glyph-name="nonbreakingspace" unicode="&#xa0;" horiz-adv-x="277" 
 />
    <glyph glyph-name="exclamdown" unicode="&#xa1;" horiz-adv-x="322" 
d="M4 85l162 387h99l-45 -387l-23 -85h-217zM178 700h197l-45 -170h-198z" />
    <glyph glyph-name="cent" unicode="&#xa2;" horiz-adv-x="585" 
d="M350 494c-20 -2 -38 -8.16699 -54 -18.5s-29.667 -23.333 -41 -39s-20 -33 -26 -52s-9 -38.167 -9 -57.5c0 -18 3 -33.833 9 -47.5s14 -24.5 24 -32.5zM190 101c-42.667 19.333 -76 47.6689 -100 85.002s-36 81.666 -36 132.999c0 44.667 8.16699 86.5 24.5 125.5
s39 73 68 102s63.5 51.833 103.5 68.5s83.333 25 130 25h21l26 66h110l-35 -89c30 -13.333 54.667 -31 74 -53s33.666 -46.667 42.999 -74l-137 -71c-9.33301 24.667 -23.333 43.334 -42 56.001l-98 -254c19.333 1.33301 37.5 6.66602 54.5 15.999
s33.167 21.666 48.5 36.999l108 -96c-27.333 -32 -59.666 -57.167 -96.999 -75.5s-81 -27.5 -131 -27.5h-17.5c-5.66699 0 -11.5 0.666992 -17.5 2l-32 -83h-110z" />
    <glyph glyph-name="sterling" unicode="&#xa3;" horiz-adv-x="631" 
d="M9 116l81.999 28.001l33 121h-75l36 135h75l15 57c10 38.667 22.5 72.667 37.5 102s33.167 54.666 54.5 75.999c25.333 25.333 54.833 44.5 88.5 57.5s72.834 19.5 117.501 19.5c50 0 93.5 -9.83301 130.5 -29.5s65.167 -44.5 84.5 -74.5l-131 -118
c-12 16 -25 28.5 -39 37.5s-31.667 13.5 -53 13.5c-14.667 0 -27 -2.5 -37 -7.5s-19 -11.5 -27 -19.5c-8 -7.33301 -15 -17 -21 -29s-11 -25.333 -15 -40l-13 -45h209l-36 -135h-208l-30 -111h285l-41 -154h-553z" />
    <glyph glyph-name="currency" unicode="&#xa4;" horiz-adv-x="677" 
d="M385 -14c-38 0 -72.999 5.49902 -104.999 16.499s-60 26.833 -84 47.5s-43.5 45.667 -58.5 75s-24.5 62 -28.5 98h-90l28 104h67c1.33301 8.66699 2.83301 17.167 4.5 25.5s3.83398 16.5 6.50098 24.5h-65l28 104h65c14 33.333 31.667 64.333 53 93
s46.166 53.334 74.499 74.001s59.833 36.834 94.5 48.501s72.667 17.5 114 17.5c64.667 0 116.834 -13.5 156.501 -40.5s69.5 -62.5 89.5 -106.5l-142 -95c-13.333 25.333 -29 44.166 -47 56.499s-42 18.5 -72 18.5c-27.333 0 -51 -6 -71 -18s-37.333 -28.667 -52 -50h169
l-27 -101h-180c-5.33301 -17.333 -9.33301 -34.666 -12 -51.999h178l-27 -101h-154c5.33301 -24.667 16.666 -42.834 33.999 -54.501s37.666 -17.5 60.999 -17.5c24.667 0 46.667 4.66699 66 14s39.333 24.333 60 45l111 -119c-31.333 -33.333 -67 -59.5 -107 -78.5
s-86 -28.5 -138 -28.5z" />
    <glyph glyph-name="yen" unicode="&#xa5;" horiz-adv-x="718" 
d="M215 93h-184l32 120h184l13 50h-184l32 120h140l-122 317h205l73 -230l188 230h229l-291 -317h138l-32 -120h-184l-13 -50h183l-32 -120h-184l-25 -93h-191z" />
    <glyph glyph-name="section" unicode="&#xa7;" horiz-adv-x="625" 
d="M404 292c14 0 25.999 3.16895 35.999 9.50195s15 15.166 15 26.499s-6.83301 21 -20.5 29s-35.834 17 -66.501 27c-25.333 8.66699 -45.833 15.167 -61.5 19.5s-29.5 6.5 -41.5 6.5c-14.667 0 -27 -3.33301 -37 -10s-15 -15.667 -15 -27s6.83301 -20.833 20.5 -28.5
s35.834 -16.834 66.501 -27.501c25.333 -8.66699 45.833 -15 61.5 -19s29.834 -6 42.501 -6zM279.999 -11.998c-54 0 -103.499 8.50293 -148.499 25.5029s-81.167 39.833 -108.5 68.5l99 105c20.667 -19.333 45.834 -35.666 75.501 -48.999s58.5 -20 86.5 -20
c35.333 0 53 10 53 30c0 9.33301 -7 17.333 -21 24s-39.667 15.667 -77 27c-24.667 7.33301 -47.834 15.166 -69.501 23.499s-40.5 18 -56.5 29s-28.5 23.667 -37.5 38s-13.5 30.833 -13.5 49.5c0 30 9.66699 56.5 29 79.5s51.666 39.833 96.999 50.5
c-10 10.667 -18 22.667 -24 36s-9 28.666 -9 45.999c0 22 5.33301 43 16 63s26 37.333 46 52s44.5 26.334 73.5 35.001s61.5 13 97.5 13c54 0 103.667 -8.66699 149 -26s81.333 -40 108 -68l-98 -105c-20.667 19.333 -46 35.5 -76 48.5s-59 19.5 -87 19.5
c-34.667 0 -52 -9.66699 -52 -29c0 -9.33301 6.83301 -17.5 20.5 -24.5s39.167 -15.833 76.5 -26.5c24.667 -7.33301 47.834 -15.333 69.501 -24s40.5 -18.5 56.5 -29.5s28.5 -23.667 37.5 -38s13.5 -30.833 13.5 -49.5c0 -30 -9.5 -56.333 -28.5 -79
s-51.167 -39.667 -96.5 -51c9.33301 -10.667 17 -22.5 23 -35.5s9 -28.167 9 -45.5c0 -22.667 -5.33301 -43.834 -16 -63.501s-26 -36.834 -46 -51.501s-44.333 -26.334 -73 -35.001s-61.334 -13 -98.001 -13z" />
    <glyph glyph-name="dieresis" unicode="&#xa8;" 
d="M181 730h166l-39 -143h-166zM400 730h166l-39 -143h-166z" />
    <glyph glyph-name="copyright" unicode="&#xa9;" horiz-adv-x="830" 
d="M443 156c-29.333 0 -56.332 5.00098 -80.999 15.001s-46 23.833 -64 41.5s-32 38.5 -42 62.5s-15 50 -15 78v2c0 27.333 5 53 15 77s24 45 42 63s39.5 32.333 64.5 43s52.5 16 82.5 16c40 0 72.667 -7.33301 98 -22s46.666 -33.667 63.999 -57l-81 -64
c-10.667 13.333 -22.667 24.166 -36 32.499s-29 12.5 -47 12.5c-26.667 0 -48.5 -9.66699 -65.5 -29s-25.5 -43 -25.5 -71v-2c0 -28 8.5 -51.667 25.5 -71s38.833 -29 65.5 -29c20 0 36.5 4.33301 49.5 13s25.167 19.667 36.5 33l81 -58c-18 -25.333 -40 -46 -66 -62
s-59.667 -24 -101 -24zM437.001 26.001c46 0 88.499 8.5 127.499 25.5s72.833 40.333 101.5 70s51.167 64.167 67.5 103.5s24.5 81 24.5 125v2c0 44 -8.16699 85.667 -24.5 125s-38.666 73.5 -66.999 102.5s-62 52 -101 69s-81.167 25.5 -126.5 25.5
c-46 0 -88.5 -8.5 -127.5 -25.5s-72.833 -40.333 -101.5 -70s-51.167 -64.167 -67.5 -103.5s-24.5 -81 -24.5 -125v-2c0 -44 8 -85.667 24 -125s38.333 -73.5 67 -102.5s62.5 -52 101.5 -69s81.167 -25.5 126.5 -25.5zM437 -13.999c-50.667 0 -98 9.66699 -142 29
s-82.167 45.5 -114.5 78.5s-57.833 71.333 -76.5 115s-28 90.167 -28 139.5v2c0 49.333 9.33301 96 28 140s44.334 82.667 77.001 116s71.167 59.666 115.5 78.999s91.833 29 142.5 29s98 -9.66699 142 -29s82.167 -45.5 114.5 -78.5s57.833 -71.333 76.5 -115
s28 -90.167 28 -139.5v-2c0 -49.333 -9.33301 -96 -28 -140s-44.334 -82.667 -77.001 -116s-71.167 -59.666 -115.5 -78.999s-91.833 -29 -142.5 -29z" />
    <glyph glyph-name="ordfeminine" unicode="&#xaa;" horiz-adv-x="395" 
d="M231 462c13.333 0 25.833 5 37.5 15s19.167 22.667 22.5 38l3 11c-6.66699 2 -13.167 3.66699 -19.5 5s-13.166 2 -20.499 2c-15.333 0 -28 -3.83301 -38 -11.5s-15 -18.167 -15 -31.5c0 -8 2.66699 -14.667 8 -20s12.666 -8 21.999 -8zM66 347h288l-21 -77h-288z
M182 398c-24.667 0 -44.667 7.16699 -60 21.5s-23 33.833 -23 58.5c0 33.333 12 59.333 36 78s55.667 28 95 28c13.333 0 25.833 -1 37.5 -3s24.167 -5.33301 37.5 -10l2 6c1.33301 2.66699 2.16602 5.5 2.49902 8.5s0.5 5.5 0.5 7.5c0 22 -17 33 -51 33
c-13.333 0 -27.166 -1.33301 -41.499 -4s-26.833 -6 -37.5 -10l-15 75c16 6 34.167 10.667 54.5 14s40.833 5 61.5 5c44.667 0 77.834 -8.33301 99.501 -25s32.5 -40 32.5 -70c0 -14 -2 -28.333 -6 -43l-44 -164h-104l9 32c-12.667 -12 -25.834 -21.333 -39.501 -28
s-29.167 -10 -46.5 -10z" />
    <glyph glyph-name="guillemotleft" unicode="&#xab;" horiz-adv-x="630" 
d="M30 252l13 49l215 212l105 -96l-166 -161l82 -165l-141 -63zM288 260l2 8l241 237l105 -96l-171 -166l77 -155l-141 -63z" />
    <glyph glyph-name="registered" unicode="&#xae;" horiz-adv-x="830" 
d="M455 368c18.667 0 33 4 43 12s15 19 15 33v2c0 15.333 -5.33301 26.833 -16 34.5s-24.667 11.5 -42 11.5h-69v-93h69zM278 553h180.001c30 0 55.667 -3.83301 77 -11.5s38.666 -18.167 51.999 -31.5c22.667 -22.667 34 -52 34 -88v-2c0 -30 -7.33301 -54.667 -22 -74
s-34 -34 -58 -44l92 -134h-123l-78 117h-2h-44v-117h-108v385zM437.001 26c46 0 88.499 8.5 127.499 25.5s72.833 40.333 101.5 70s51.167 64.167 67.5 103.5s24.5 81 24.5 125v2c0 44 -8.16699 85.667 -24.5 125s-38.666 73.5 -66.999 102.5s-62 52 -101 69
s-81.167 25.5 -126.5 25.5c-46 0 -88.5 -8.5 -127.5 -25.5s-72.833 -40.333 -101.5 -70s-51.167 -64.167 -67.5 -103.5s-24.5 -81 -24.5 -125v-2c0 -44 8 -85.667 24 -125s38.333 -73.5 67 -102.5s62.5 -52 101.5 -69s81.167 -25.5 126.5 -25.5zM437 -14
c-50.667 0 -98 9.66699 -142 29s-82.167 45.5 -114.5 78.5s-57.833 71.333 -76.5 115s-28 90.167 -28 139.5v2c0 49.333 9.33301 96 28 140s44.334 82.667 77.001 116s71.167 59.666 115.5 78.999s91.833 29 142.5 29s98 -9.66699 142 -29s82.167 -45.5 114.5 -78.5
s57.833 -71.333 76.5 -115s28 -90.167 28 -139.5v-2c0 -49.333 -9.33301 -96 -28 -140s-44.334 -82.667 -77.001 -116s-71.167 -59.666 -115.5 -78.999s-91.833 -29 -142.5 -29z" />
    <glyph glyph-name="macron" unicode="&#xaf;" 
d="M179 708h376l-31 -116h-375z" />
    <glyph glyph-name="macron" unicode="&#x2c9;" 
d="M179 708h376l-31 -116h-375z" />
    <glyph glyph-name="degree" unicode="&#xb0;" horiz-adv-x="452" 
d="M265 440c14 0 26.5 3 37.5 9s20.333 14 28 24s13.5 21 17.5 33s6 24 6 36c0 21.333 -6.33301 38.833 -19 52.5s-29.334 20.5 -50.001 20.5c-14 0 -26.5 -3 -37.5 -9s-20.333 -14 -28 -24s-13.5 -21 -17.5 -33s-6 -24 -6 -36c0 -21.333 6.33301 -38.833 19 -52.5
s29.334 -20.5 50.001 -20.5zM260 346c-26 0 -49.501 4.16699 -70.501 12.5s-38.833 19.833 -53.5 34.5s-26 31.834 -34 51.501s-12 40.834 -12 63.501c0 27.333 5.16699 53.166 15.5 77.499s24.333 45.666 42 63.999s38.667 32.833 63 43.5s50.5 16 78.5 16
c26.667 0 50.5 -4.16699 71.5 -12.5s38.833 -19.833 53.5 -34.5s25.834 -31.834 33.501 -51.501s11.5 -40.834 11.5 -63.501c0 -27.333 -5.16699 -53.166 -15.5 -77.499s-24.333 -45.666 -42 -63.999s-38.667 -32.833 -63 -43.5s-50.5 -16 -78.5 -16z" />
    <glyph glyph-name="plusminus" unicode="&#xb1;" horiz-adv-x="624" 
d="M265 -14c-39.333 0 -74.168 3.66406 -104.501 10.9971s-57.166 17.333 -80.499 30s-43.333 26.834 -60 42.501s-30.667 32.167 -42 49.5l129 112c22.667 -27.333 46.5 -47.666 71.5 -60.999s54.5 -20 88.5 -20c34.667 0 61.167 7.83301 79.5 23.5
s27.5 32.834 27.5 51.501c0 17.333 -6.5 30.833 -19.5 40.5s-35.5 14.5 -67.5 14.5h-72l39 146h68c32.667 0 59.167 6 79.5 18s30.5 29.333 30.5 52c0 16 -6.83301 29 -20.5 39s-30.5 15 -50.5 15c-28 0 -54 -5.83301 -78 -17.5s-49.333 -28.5 -76 -50.5l-99 122
c32.667 31.333 71.667 57.5 117 78.5s98.666 31.5 159.999 31.5c38.667 0 73 -5 103 -15s55.333 -23.333 76 -40s36.334 -35.834 47.001 -57.501s16 -44.5 16 -68.5c0 -48 -14.5 -87.167 -43.5 -117.5s-68.833 -52.5 -119.5 -66.5c30.667 -11.333 55.667 -28.666 75 -51.999
s29 -53 29 -89c0 -32.667 -7.5 -62.5 -22.5 -89.5s-36 -50.333 -63 -70s-59 -35 -96 -46s-77.5 -16.5 -121.5 -16.5z" />
    <glyph glyph-name="acute" unicode="&#xb4;" 
d="M355 772l173 -57l-181 -128h-147z" />
    <glyph glyph-name="mu" unicode="&#xb5;" horiz-adv-x="813" 
d="M402 157c9.33301 0 18.1689 0.833008 26.502 2.5s16.166 3.83398 23.499 6.50098l-77 104l139 92l60 -94c10 17.333 17.667 35.833 23 55.5s8 39.167 8 58.5c0 22.667 -3.33301 43.667 -10 63s-16.5 36 -29.5 50s-29 24.833 -48 32.5s-40.833 11.5 -65.5 11.5
c-30.667 0 -58.5 -6.83301 -83.5 -20.5s-46.333 -31.167 -64 -52.5s-31.334 -45.333 -41.001 -72s-14.5 -53.334 -14.5 -80.001c0 -22.667 3.33301 -43.667 10 -63s16.5 -36 29.5 -50s29 -24.833 48 -32.5s40.833 -11.5 65.5 -11.5zM558.003 24
c-53.333 -24.667 -110.667 -37 -172 -37c-50 0 -95.5 8 -136.5 24s-76.167 38 -105.5 66s-52 61.167 -68 99.5s-24 79.833 -24 124.5c0 53.333 10.333 104.833 31 154.5s49.5 93.5 86.5 131.5s81 68.5 132 91.5s106.833 34.5 167.5 34.5c50 0 95.5 -8 136.5 -24
s76.167 -38 105.5 -66s52 -61.167 68 -99.5s24 -79.833 24 -124.5c0 -52 -10.167 -102.333 -30.5 -151s-48.5 -92 -84.5 -130l53 -72l-138 -91z" />
    <glyph glyph-name="mu" unicode="&#x3bc;" horiz-adv-x="813" 
d="M402 157c9.33301 0 18.1689 0.833008 26.502 2.5s16.166 3.83398 23.499 6.50098l-77 104l139 92l60 -94c10 17.333 17.667 35.833 23 55.5s8 39.167 8 58.5c0 22.667 -3.33301 43.667 -10 63s-16.5 36 -29.5 50s-29 24.833 -48 32.5s-40.833 11.5 -65.5 11.5
c-30.667 0 -58.5 -6.83301 -83.5 -20.5s-46.333 -31.167 -64 -52.5s-31.334 -45.333 -41.001 -72s-14.5 -53.334 -14.5 -80.001c0 -22.667 3.33301 -43.667 10 -63s16.5 -36 29.5 -50s29 -24.833 48 -32.5s40.833 -11.5 65.5 -11.5zM558.003 24
c-53.333 -24.667 -110.667 -37 -172 -37c-50 0 -95.5 8 -136.5 24s-76.167 38 -105.5 66s-52 61.167 -68 99.5s-24 79.833 -24 124.5c0 53.333 10.333 104.833 31 154.5s49.5 93.5 86.5 131.5s81 68.5 132 91.5s106.833 34.5 167.5 34.5c50 0 95.5 -8 136.5 -24
s76.167 -38 105.5 -66s52 -61.167 68 -99.5s24 -79.833 24 -124.5c0 -52 -10.167 -102.333 -30.5 -151s-48.5 -92 -84.5 -130l53 -72l-138 -91z" />
    <glyph glyph-name="paragraph" unicode="&#xb6;" horiz-adv-x="597" 
d="M326 212c-88 4.66699 -152.832 24.667 -194.499 60s-62.5 85 -62.5 149c0 40.667 7.5 78 22.5 112s37.167 63.333 66.5 88s66.166 44 110.499 58s95.5 21 153.5 21h230l-188 -700h-194z" />
    <glyph glyph-name="periodcentered" unicode="&#xb7;" horiz-adv-x="302" 
d="M87 410h198l-53 -195h-197z" />
    <glyph glyph-name="periodcentered" unicode="&#x2219;" horiz-adv-x="302" 
d="M87 410h198l-53 -195h-197z" />
    <glyph glyph-name="cedilla" unicode="&#xb8;" 
d="M21 -109l125 124h129l-115 -188z" />
    <glyph glyph-name="ordmasculine" unicode="&#xba;" horiz-adv-x="402" 
d="M254 482c10 0 19.334 2.33105 28.001 6.99805s16 10.834 22 18.501s10.667 16.334 14 26.001s5 19.5 5 29.5c0 16.667 -4.66699 30.167 -14 40.5s-21.666 15.5 -36.999 15.5c-20.667 0 -37.334 -8.5 -50.001 -25.5s-19 -35.833 -19 -56.5c0 -16 4.66699 -29.167 14 -39.5
s21.666 -15.5 36.999 -15.5zM69.001 346.998h283l-20 -77h-284zM249.001 394.998c-22.667 0 -43.165 3.5 -61.498 10.5s-33.833 16.833 -46.5 29.5s-22.334 27.5 -29.001 44.5s-10 35.5 -10 55.5c0 22 4.5 43.333 13.5 64s21.333 38.834 37 54.501
s34.167 28.334 55.5 38.001s44.666 14.5 69.999 14.5c22.667 0 43 -3.5 61 -10.5s33.333 -16.833 46 -29.5s22.334 -27.5 29.001 -44.5s10 -35.5 10 -55.5c0 -22 -4.5 -43.333 -13.5 -64s-21.167 -38.834 -36.5 -54.501s-33.833 -28.334 -55.5 -38.001
s-44.834 -14.5 -69.501 -14.5z" />
    <glyph glyph-name="guillemotright" unicode="&#xbb;" horiz-adv-x="630" 
d="M-6 132l171 166l-77 155l142 63l112 -234l-2 -8l-241 -237zM267 124l166 161l-82 165l142 63l108 -224l-14 -49l-215 -212z" />
    <glyph glyph-name="questiondown" unicode="&#xbf;" horiz-adv-x="540" 
d="M240 -10c-35.333 0 -67.001 4.66602 -95.001 13.999s-51.833 22.333 -71.5 39s-34.667 36 -45 58s-15.5 45.667 -15.5 71c0 56.667 20.333 105 61 145s104.334 67 191.001 81l30 74h120l-17 -168l-10 -8c-120.667 -10 -181 -39 -181 -87
c0 -15.333 5.33301 -27.5 16 -36.5s27.334 -13.5 50.001 -13.5c21.333 0 43.333 4.33301 66 13s45.667 22.334 69 41.001l78 -135c-32.667 -28.667 -70.334 -50.5 -113.001 -65.5s-87 -22.5 -133 -22.5zM318.999 699.999h198l-46 -170h-198z" />
    <glyph glyph-name="Agrave" unicode="&#xc0;" horiz-adv-x="775" 
d="M347 875l179 57l55 -185h-123zM475 276l-25 201l-131 -201h156zM413 705h190l109 -705h-204l-17 125h-270l-84 -125h-211z" />
    <glyph glyph-name="Aacute" unicode="&#xc1;" horiz-adv-x="775" 
d="M580 932l173 -57l-181 -128h-147zM475 276l-25 201l-131 -201h156zM413 705h190l109 -705h-204l-17 125h-270l-84 -125h-211z" />
    <glyph glyph-name="Acircumflex" unicode="&#xc2;" horiz-adv-x="775" 
d="M471 912h154l84 -165h-113l-68 61l-101 -61h-128zM475 276l-25 201l-131 -201h156zM413 705h190l109 -705h-204l-17 125h-270l-84 -125h-211z" />
    <glyph glyph-name="Atilde" unicode="&#xc3;" horiz-adv-x="775" 
d="M301 784c19.333 47.333 42.999 83.166 70.999 107.499s58 36.5 90 36.5c17.333 0 32.833 -3 46.5 -9s26.167 -13 37.5 -21s20.833 -14.167 28.5 -18.5s15.167 -6.5 22.5 -6.5c14 0 26.167 5.16699 36.5 15.5s20.166 24.166 29.499 41.499l89 -40
c-19.333 -47.333 -43 -83.166 -71 -107.499s-58 -36.5 -90 -36.5c-17.333 0 -32.833 3 -46.5 9s-26.167 13 -37.5 21s-21 14.167 -29 18.5s-15.667 6.5 -23 6.5c-13.333 0 -25.166 -5.16699 -35.499 -15.5s-20.166 -24.166 -29.499 -41.499zM474.999 276l-25 201l-131 -201
h156zM412.999 705h190l109 -705h-204l-17 125h-270l-84 -125h-211z" />
    <glyph glyph-name="Adieresis" unicode="&#xc4;" horiz-adv-x="775" 
d="M358 890h166l-39 -143h-166zM577 890h166l-39 -143h-166zM475 276l-25 201l-131 -201h156zM413 705h190l109 -705h-204l-17 125h-270l-84 -125h-211z" />
    <glyph glyph-name="Aring" unicode="&#xc5;" horiz-adv-x="775" 
d="M475 276l-25 201l-131 -201h156zM506 698c10.667 0 20.499 2.33203 29.499 6.99902s16.833 10.834 23.5 18.501s11.667 16.5 15 26.5s5 20.333 5 31c0 14.667 -4.5 27.167 -13.5 37.5s-21.833 15.5 -38.5 15.5c-10.667 0 -20.5 -2.33301 -29.5 -7s-16.667 -11 -23 -19
s-11.166 -17 -14.499 -27s-5 -20 -5 -30c0 -15.333 4.5 -28 13.5 -38s21.5 -15 37.5 -15zM-74.001 -0.000976562l237.999 344l238 344c-12.667 18.667 -19 39 -19 61c0 20 3.83301 38.667 11.5 56s18.167 32.666 31.5 45.999s28.833 23.833 46.5 31.5
s36.834 11.5 57.501 11.5c37.333 0 66.833 -10.667 88.5 -32s32.5 -48 32.5 -80c0 -19.333 -4 -37.666 -12 -54.999s-18.667 -32.333 -32 -45l105 -682h-204l-17 125h-270l-84 -125h-211z" />
    <glyph glyph-name="AE" unicode="&#xc6;" horiz-adv-x="1080" 
d="M496 276l71 268h-13l-206 -268h148zM474 700h673l-44 -165h-349l-28 -106h313l-41 -153h-313l-31 -111h354l-44 -165h-543l34 125h-223l-97 -125h-211z" />
    <glyph glyph-name="Ccedilla" unicode="&#xc7;" horiz-adv-x="727" 
d="M265 3c-65.333 19.333 -117.335 53.999 -156.002 103.999s-58 111.667 -58 185c0 51.333 10.167 102.166 30.5 152.499s49.333 95.333 87 135s83 71.834 136 96.501s112.5 37 178.5 37c72.667 0 133.834 -16 183.501 -48s84.834 -75 105.501 -129l-167 -90
c-14 28.667 -32.333 50.834 -55 66.501s-51.667 23.5 -87 23.5c-29.333 0 -56.666 -6.33301 -81.999 -19s-47.333 -29.5 -66 -50.5s-33.5 -45.5 -44.5 -73.5s-16.5 -57 -16.5 -87c0 -44 13.167 -78.833 39.5 -104.5s59.833 -38.5 100.5 -38.5
c30.667 0 57.667 6.16699 81 18.5s46.333 29.833 69 52.5l131 -116c-34 -38 -73.833 -69 -119.5 -93s-100.834 -36.667 -165.501 -38l-99 -160l-139 64z" />
    <glyph glyph-name="Egrave" unicode="&#xc8;" horiz-adv-x="669" 
d="M317 875l179 57l55 -185h-123zM176 700h561l-45 -165h-368l-29 -106h334l-41 -153h-334l-30 -111h374l-44 -165h-566z" />
    <glyph glyph-name="Eacute" unicode="&#xc9;" horiz-adv-x="669" 
d="M525 932l173 -57l-181 -128h-147zM176 700h561l-45 -165h-368l-29 -106h334l-41 -153h-334l-30 -111h374l-44 -165h-566z" />
    <glyph glyph-name="Ecircumflex" unicode="&#xca;" horiz-adv-x="669" 
d="M432 912h154l84 -165h-113l-68 61l-101 -61h-128zM176 700h561l-45 -165h-368l-29 -106h334l-41 -153h-334l-30 -111h374l-44 -165h-566z" />
    <glyph glyph-name="Edieresis" unicode="&#xcb;" horiz-adv-x="669" 
d="M312 890h166l-39 -143h-166zM531 890h166l-39 -143h-166zM176 700h561l-45 -165h-368l-29 -106h334l-41 -153h-334l-30 -111h374l-44 -165h-566z" />
    <glyph glyph-name="Igrave" unicode="&#xcc;" horiz-adv-x="325" 
d="M129 875l179 57l55 -185h-123zM181 700h194l-188 -700h-194z" />
    <glyph glyph-name="Iacute" unicode="&#xcd;" horiz-adv-x="325" 
d="M354 932l173 -57l-181 -128h-147zM181 700h194l-188 -700h-194z" />
    <glyph glyph-name="Icircumflex" unicode="&#xce;" horiz-adv-x="325" 
d="M248 912h154l84 -165h-113l-68 61l-101 -61h-128zM181 700h194l-188 -700h-194z" />
    <glyph glyph-name="Idieresis" unicode="&#xcf;" horiz-adv-x="325" 
d="M136 890h166l-39 -143h-166zM355 890h166l-39 -143h-166zM181 700h194l-188 -700h-194z" />
    <glyph glyph-name="Eth" unicode="&#xd0;" horiz-adv-x="800" 
d="M333 166c41.333 0 79.999 6.33398 115.999 19.001s65.667 30.667 89 54c19.333 19.333 34.666 42.333 45.999 69s17 54 17 82c0 22 -3.16699 41.167 -9.5 57.5s-15.166 30.166 -26.499 41.499c-14 13.333 -32.167 24 -54.5 32s-51.166 12 -86.499 12h-58l-28 -104h114
l-41 -153h-114l-30 -110h66zM106.999 276.001l-84 0.00195312l42 153h84l73 271h221c68 0 124 -8.33301 168 -25s79.333 -38.334 106 -65.001c50.667 -50.667 76 -119 76 -205c0 -52.667 -9.66699 -102.334 -29 -149.001s-48 -89 -86 -127c-42 -42 -93.333 -74 -154 -96
s-131.667 -33 -213 -33h-277z" />
    <glyph glyph-name="Ntilde" unicode="&#xd1;" horiz-adv-x="781" 
d="M299 784c19.333 47.333 42.999 83.166 70.999 107.499s58 36.5 90 36.5c17.333 0 32.833 -3 46.5 -9s26.167 -13 37.5 -21s20.833 -14.167 28.5 -18.5s15.167 -6.5 22.5 -6.5c14 0 26.167 5.16699 36.5 15.5s20.166 24.166 29.499 41.499l89 -40
c-19.333 -47.333 -43 -83.166 -71 -107.499s-58 -36.5 -90 -36.5c-17.333 0 -32.833 3 -46.5 9s-26.167 13 -37.5 21s-21 14.167 -29 18.5s-15.667 6.5 -23 6.5c-13.333 0 -25.166 -5.16699 -35.499 -15.5s-20.166 -24.166 -29.499 -41.499zM175.999 700h181l181 -389
l105 389h193l-188 -700h-170l-189 403l-108 -403h-193z" />
    <glyph glyph-name="Ograve" unicode="&#xd2;" horiz-adv-x="813" 
d="M344 875l179 57l55 -185h-123zM403 161c30.667 0 58.5029 6.66699 83.5029 20s46.167 30.833 63.5 52.5s30.833 45.667 40.5 72s14.5 52.5 14.5 78.5c0 22 -3.33301 42.5 -10 61.5s-16.5 35.5 -29.5 49.5s-29 24.833 -48 32.5s-40.833 11.5 -65.5 11.5
c-30.667 0 -58.334 -6.66699 -83.001 -20s-45.834 -30.833 -63.501 -52.5s-31.334 -45.667 -41.001 -72s-14.5 -52.5 -14.5 -78.5c0 -22 3.33301 -42.5 10 -61.5s16.5 -35.5 29.5 -49.5s29 -24.833 48 -32.5s40.833 -11.5 65.5 -11.5zM386.003 -13c-50 0 -95.5 8 -136.5 24
s-76.167 38 -105.5 66s-52 61.167 -68 99.5s-24 79.833 -24 124.5c0 53.333 10.333 104.833 31 154.5s49.5 93.5 86.5 131.5s81 68.5 132 91.5s106.833 34.5 167.5 34.5c50 0 95.5 -8 136.5 -24s76.167 -38 105.5 -66s52 -61.167 68 -99.5s24 -79.833 24 -124.5
c0 -53.333 -10.333 -104.833 -31 -154.5s-49.5 -93.5 -86.5 -131.5s-81 -68.5 -132 -91.5s-106.833 -34.5 -167.5 -34.5z" />
    <glyph glyph-name="Oacute" unicode="&#xd3;" horiz-adv-x="813" 
d="M549 932l173 -57l-181 -128h-147zM403 161c30.667 0 58.5029 6.66699 83.5029 20s46.167 30.833 63.5 52.5s30.833 45.667 40.5 72s14.5 52.5 14.5 78.5c0 22 -3.33301 42.5 -10 61.5s-16.5 35.5 -29.5 49.5s-29 24.833 -48 32.5s-40.833 11.5 -65.5 11.5
c-30.667 0 -58.334 -6.66699 -83.001 -20s-45.834 -30.833 -63.501 -52.5s-31.334 -45.667 -41.001 -72s-14.5 -52.5 -14.5 -78.5c0 -22 3.33301 -42.5 10 -61.5s16.5 -35.5 29.5 -49.5s29 -24.833 48 -32.5s40.833 -11.5 65.5 -11.5zM386.003 -13c-50 0 -95.5 8 -136.5 24
s-76.167 38 -105.5 66s-52 61.167 -68 99.5s-24 79.833 -24 124.5c0 53.333 10.333 104.833 31 154.5s49.5 93.5 86.5 131.5s81 68.5 132 91.5s106.833 34.5 167.5 34.5c50 0 95.5 -8 136.5 -24s76.167 -38 105.5 -66s52 -61.167 68 -99.5s24 -79.833 24 -124.5
c0 -53.333 -10.333 -104.833 -31 -154.5s-49.5 -93.5 -86.5 -131.5s-81 -68.5 -132 -91.5s-106.833 -34.5 -167.5 -34.5z" />
    <glyph glyph-name="Ocircumflex" unicode="&#xd4;" horiz-adv-x="813" 
d="M468 912h154l84 -165h-113l-68 61l-101 -61h-128zM403 161c30.667 0 58.5029 6.66699 83.5029 20s46.167 30.833 63.5 52.5s30.833 45.667 40.5 72s14.5 52.5 14.5 78.5c0 22 -3.33301 42.5 -10 61.5s-16.5 35.5 -29.5 49.5s-29 24.833 -48 32.5s-40.833 11.5 -65.5 11.5
c-30.667 0 -58.334 -6.66699 -83.001 -20s-45.834 -30.833 -63.501 -52.5s-31.334 -45.667 -41.001 -72s-14.5 -52.5 -14.5 -78.5c0 -22 3.33301 -42.5 10 -61.5s16.5 -35.5 29.5 -49.5s29 -24.833 48 -32.5s40.833 -11.5 65.5 -11.5zM386.003 -13c-50 0 -95.5 8 -136.5 24
s-76.167 38 -105.5 66s-52 61.167 -68 99.5s-24 79.833 -24 124.5c0 53.333 10.333 104.833 31 154.5s49.5 93.5 86.5 131.5s81 68.5 132 91.5s106.833 34.5 167.5 34.5c50 0 95.5 -8 136.5 -24s76.167 -38 105.5 -66s52 -61.167 68 -99.5s24 -79.833 24 -124.5
c0 -53.333 -10.333 -104.833 -31 -154.5s-49.5 -93.5 -86.5 -131.5s-81 -68.5 -132 -91.5s-106.833 -34.5 -167.5 -34.5z" />
    <glyph glyph-name="Otilde" unicode="&#xd5;" horiz-adv-x="813" 
d="M301 784c19.333 47.333 42.999 83.166 70.999 107.499s58 36.5 90 36.5c17.333 0 32.833 -3 46.5 -9s26.167 -13 37.5 -21s20.833 -14.167 28.5 -18.5s15.167 -6.5 22.5 -6.5c14 0 26.167 5.16699 36.5 15.5s20.166 24.166 29.499 41.499l89 -40
c-19.333 -47.333 -43 -83.166 -71 -107.499s-58 -36.5 -90 -36.5c-17.333 0 -32.833 3 -46.5 9s-26.167 13 -37.5 21s-21 14.167 -29 18.5s-15.667 6.5 -23 6.5c-13.333 0 -25.166 -5.16699 -35.499 -15.5s-20.166 -24.166 -29.499 -41.499zM402.999 161
c30.667 0 58.5029 6.66699 83.5029 20s46.167 30.833 63.5 52.5s30.833 45.667 40.5 72s14.5 52.5 14.5 78.5c0 22 -3.33301 42.5 -10 61.5s-16.5 35.5 -29.5 49.5s-29 24.833 -48 32.5s-40.833 11.5 -65.5 11.5c-30.667 0 -58.334 -6.66699 -83.001 -20
s-45.834 -30.833 -63.501 -52.5s-31.334 -45.667 -41.001 -72s-14.5 -52.5 -14.5 -78.5c0 -22 3.33301 -42.5 10 -61.5s16.5 -35.5 29.5 -49.5s29 -24.833 48 -32.5s40.833 -11.5 65.5 -11.5zM386.002 -13c-50 0 -95.5 8 -136.5 24s-76.167 38 -105.5 66
s-52 61.167 -68 99.5s-24 79.833 -24 124.5c0 53.333 10.333 104.833 31 154.5s49.5 93.5 86.5 131.5s81 68.5 132 91.5s106.833 34.5 167.5 34.5c50 0 95.5 -8 136.5 -24s76.167 -38 105.5 -66s52 -61.167 68 -99.5s24 -79.833 24 -124.5
c0 -53.333 -10.333 -104.833 -31 -154.5s-49.5 -93.5 -86.5 -131.5s-81 -68.5 -132 -91.5s-106.833 -34.5 -167.5 -34.5z" />
    <glyph glyph-name="Odieresis" unicode="&#xd6;" horiz-adv-x="813" 
d="M357 890h166l-39 -143h-166zM576 890h166l-39 -143h-166zM403 161c30.667 0 58.5029 6.66699 83.5029 20s46.167 30.833 63.5 52.5s30.833 45.667 40.5 72s14.5 52.5 14.5 78.5c0 22 -3.33301 42.5 -10 61.5s-16.5 35.5 -29.5 49.5s-29 24.833 -48 32.5
s-40.833 11.5 -65.5 11.5c-30.667 0 -58.334 -6.66699 -83.001 -20s-45.834 -30.833 -63.501 -52.5s-31.334 -45.667 -41.001 -72s-14.5 -52.5 -14.5 -78.5c0 -22 3.33301 -42.5 10 -61.5s16.5 -35.5 29.5 -49.5s29 -24.833 48 -32.5s40.833 -11.5 65.5 -11.5zM386.003 -13
c-50 0 -95.5 8 -136.5 24s-76.167 38 -105.5 66s-52 61.167 -68 99.5s-24 79.833 -24 124.5c0 53.333 10.333 104.833 31 154.5s49.5 93.5 86.5 131.5s81 68.5 132 91.5s106.833 34.5 167.5 34.5c50 0 95.5 -8 136.5 -24s76.167 -38 105.5 -66s52 -61.167 68 -99.5
s24 -79.833 24 -124.5c0 -53.333 -10.333 -104.833 -31 -154.5s-49.5 -93.5 -86.5 -131.5s-81 -68.5 -132 -91.5s-106.833 -34.5 -167.5 -34.5z" />
    <glyph glyph-name="Oslash" unicode="&#xd8;" horiz-adv-x="813" 
d="M403 155c31.333 0 59.834 7.00098 85.501 21.001s47.5 32 65.5 54s32 46.667 42 74s15 54.333 15 81c0 18 -2.66699 35.667 -8 53l-287 -262c12 -6.66699 25.167 -11.834 39.5 -15.501s30.166 -5.5 47.499 -5.5zM547.001 518.001c-25.333 18 -57.001 27 -95.001 27
c-31.333 0 -59.666 -7 -84.999 -21s-47 -32 -65 -54s-32 -46.667 -42 -74s-15 -54.333 -15 -81c0 -23.333 3.33301 -44 10 -62zM386 -12.999c-42 0 -80.834 5.66797 -116.501 17.001s-67.5 27.666 -95.5 48.999l-63 -58h-147l141 128
c-17.333 25.333 -30.5 52.833 -39.5 82.5s-13.5 61.5 -13.5 95.5c0 53.333 10.333 104.833 31 154.5s49.5 93.5 86.5 131.5s81 68.5 132 91.5s106.833 34.5 167.5 34.5c44 0 84.333 -6.16699 121 -18.5s69.334 -29.5 98.001 -51.5l68 62h147l-149 -135
c32.667 -49.333 49 -106.333 49 -171c0 -53.333 -10.333 -104.833 -31 -154.5s-49.5 -93.5 -86.5 -131.5s-81 -68.5 -132 -91.5s-106.833 -34.5 -167.5 -34.5z" />
    <glyph glyph-name="Ugrave" unicode="&#xd9;" horiz-adv-x="760" 
d="M342 873l179 57l55 -185h-123zM342 -13c-90.667 0 -160.499 21.499 -209.499 64.499s-73.5 103.167 -73.5 180.5c0 17.333 1.33301 35.5 4 54.5s6.66699 38.167 12 57.5l96 356h196l-99 -370c-3.33301 -11.333 -5.83301 -22.333 -7.5 -33s-2.5 -21.667 -2.5 -33
c0 -32 9.33301 -57 28 -75s45.667 -27 81 -27c38 0 69.333 12.333 94 37c13.333 12.667 24.666 28.167 33.999 46.5s17.666 41.5 24.999 69.5l104 385h196l-111 -414c-24.667 -91.333 -61 -161 -109 -209c-31.333 -31.333 -68.666 -54.166 -111.999 -68.499
s-92 -21.5 -146 -21.5z" />
    <glyph glyph-name="Uacute" unicode="&#xda;" horiz-adv-x="760" 
d="M561 930l173 -57l-181 -128h-147zM342 -13c-90.667 0 -160.499 21.499 -209.499 64.499s-73.5 103.167 -73.5 180.5c0 17.333 1.33301 35.5 4 54.5s6.66699 38.167 12 57.5l96 356h196l-99 -370c-3.33301 -11.333 -5.83301 -22.333 -7.5 -33s-2.5 -21.667 -2.5 -33
c0 -32 9.33301 -57 28 -75s45.667 -27 81 -27c38 0 69.333 12.333 94 37c13.333 12.667 24.666 28.167 33.999 46.5s17.666 41.5 24.999 69.5l104 385h196l-111 -414c-24.667 -91.333 -61 -161 -109 -209c-31.333 -31.333 -68.666 -54.166 -111.999 -68.499
s-92 -21.5 -146 -21.5z" />
    <glyph glyph-name="Ucircumflex" unicode="&#xdb;" horiz-adv-x="760" 
d="M466 912h154l84 -165h-113l-68 61l-101 -61h-128zM342 -13c-90.667 0 -160.499 21.499 -209.499 64.499s-73.5 103.167 -73.5 180.5c0 17.333 1.33301 35.5 4 54.5s6.66699 38.167 12 57.5l96 356h196l-99 -370c-3.33301 -11.333 -5.83301 -22.333 -7.5 -33
s-2.5 -21.667 -2.5 -33c0 -32 9.33301 -57 28 -75s45.667 -27 81 -27c38 0 69.333 12.333 94 37c13.333 12.667 24.666 28.167 33.999 46.5s17.666 41.5 24.999 69.5l104 385h196l-111 -414c-24.667 -91.333 -61 -161 -109 -209
c-31.333 -31.333 -68.666 -54.166 -111.999 -68.499s-92 -21.5 -146 -21.5z" />
    <glyph glyph-name="Udieresis" unicode="&#xdc;" horiz-adv-x="760" 
d="M353 890h166l-39 -143h-166zM572 890h166l-39 -143h-166zM342 -13c-90.667 0 -160.499 21.499 -209.499 64.499s-73.5 103.167 -73.5 180.5c0 17.333 1.33301 35.5 4 54.5s6.66699 38.167 12 57.5l96 356h196l-99 -370c-3.33301 -11.333 -5.83301 -22.333 -7.5 -33
s-2.5 -21.667 -2.5 -33c0 -32 9.33301 -57 28 -75s45.667 -27 81 -27c38 0 69.333 12.333 94 37c13.333 12.667 24.666 28.167 33.999 46.5s17.666 41.5 24.999 69.5l104 385h196l-111 -414c-24.667 -91.333 -61 -161 -109 -209
c-31.333 -31.333 -68.666 -54.166 -111.999 -68.499s-92 -21.5 -146 -21.5z" />
    <glyph glyph-name="Yacute" unicode="&#xdd;" horiz-adv-x="677" 
d="M512 932l173 -57l-181 -128h-147zM232 271l-141 429h209l69 -262l211 262h232l-391 -450l-67 -250h-195z" />
    <glyph glyph-name="Thorn" unicode="&#xde;" horiz-adv-x="682" 
d="M326 260c48 0 85 9.83203 111 29.499s39 45.834 39 78.501c0 20 -6.66699 36.667 -20 50c-9.33301 9.33301 -21 16 -35 20s-30 6 -48 6h-71l-49 -184h73zM176 699.999h195l-26 -100h37c56.667 0 104.167 -5.83301 142.5 -17.5s70.166 -30.167 95.499 -55.5
c36 -37.333 54 -84.333 54 -141c0 -43.333 -8.33301 -82.333 -25 -117s-40.167 -64 -70.5 -88s-66.666 -42.5 -108.999 -55.5s-88.833 -19.5 -139.5 -19.5h-119l-28 -106h-195z" />
    <glyph glyph-name="germandbls" unicode="&#xdf;" horiz-adv-x="639" 
d="M271 135c25.333 0 46.668 2.50195 64.001 7.50195s31.5 11.833 42.5 20.5s19 18.5 24 29.5s7.5 22.5 7.5 34.5c0 17.333 -7.16699 32.666 -21.5 45.999s-38.5 21.666 -72.5 24.999l27 101c43.333 9.33301 74.333 24.166 93 44.499s28 43.833 28 70.5
c0 21.333 -6.33301 37.833 -19 49.5s-27.667 17.5 -45 17.5c-25.333 0 -46.333 -9.5 -63 -28.5s-29.667 -46.167 -39 -81.5l-126 -471h-190l129 479c11.333 42 24.5 77.833 39.5 107.5s33.167 55.167 54.5 76.5c24.667 24.667 53.5 43.334 86.5 56.001s71.5 19 115.5 19
c36 0 68.333 -4.83301 97 -14.5s53.167 -23 73.5 -40s36 -37.667 47 -62s16.5 -50.833 16.5 -79.5c0 -48.667 -13.167 -90.167 -39.5 -124.5s-65.5 -59.166 -117.5 -74.499c32 -11.333 57.667 -28.333 77 -51s29 -50.334 29 -83.001c0 -30.667 -7 -59.667 -21 -87
s-35.5 -50.833 -64.5 -70.5s-65.833 -34.5 -110.5 -44.5s-97.334 -13.333 -158.001 -10z" />
    <glyph glyph-name="agrave" unicode="&#xe0;" horiz-adv-x="597" 
d="M223 715l179 57l55 -185h-123zM240 106c24.667 0 47.501 9.33496 68.501 28.002s35.167 42 42.5 70l5 18c-10.667 3.33301 -21.834 6.16602 -33.501 8.49902s-24.167 3.5 -37.5 3.5c-30 0 -54 -6.83301 -72 -20.5s-27 -32.834 -27 -57.501c0 -15.333 5 -27.5 15 -36.5
s23 -13.5 39 -13.5zM152.001 -10.998c-44.667 0 -81.0049 13.166 -109.005 39.499s-42 62.166 -42 107.499c0 30 5.66699 56.667 17 80s27.5 43.333 48.5 60s46 29.334 75 38.001s61.5 13 97.5 13c24.667 0 48.334 -1.83301 71.001 -5.5s44.667 -8.83398 66 -15.501l2 7
c1.33301 4.66699 2.5 9.66699 3.5 15s1.5 11.333 1.5 18c0 17.333 -7.16699 31.333 -21.5 42s-38.166 16 -71.499 16c-25.333 0 -51.166 -2.66699 -77.499 -8s-49.166 -11.666 -68.499 -18.999l-27 138c28.667 10 61.5 18 98.5 24s75.167 9 114.5 9
c81.333 0 141.833 -15.167 181.5 -45.5s59.5 -72.5 59.5 -126.5c0 -24 -3.66699 -50 -11 -78l-80 -298h-187l15 58c-23.333 -21.333 -47.166 -38.166 -71.499 -50.499s-52.5 -18.5 -84.5 -18.5z" />
    <glyph glyph-name="aacute" unicode="&#xe1;" horiz-adv-x="597" 
d="M434 772l173 -57l-181 -128h-147zM240 106c24.667 0 47.501 9.33496 68.501 28.002s35.167 42 42.5 70l5 18c-10.667 3.33301 -21.834 6.16602 -33.501 8.49902s-24.167 3.5 -37.5 3.5c-30 0 -54 -6.83301 -72 -20.5s-27 -32.834 -27 -57.501c0 -15.333 5 -27.5 15 -36.5
s23 -13.5 39 -13.5zM152.001 -10.998c-44.667 0 -81.0049 13.166 -109.005 39.499s-42 62.166 -42 107.499c0 30 5.66699 56.667 17 80s27.5 43.333 48.5 60s46 29.334 75 38.001s61.5 13 97.5 13c24.667 0 48.334 -1.83301 71.001 -5.5s44.667 -8.83398 66 -15.501l2 7
c1.33301 4.66699 2.5 9.66699 3.5 15s1.5 11.333 1.5 18c0 17.333 -7.16699 31.333 -21.5 42s-38.166 16 -71.499 16c-25.333 0 -51.166 -2.66699 -77.499 -8s-49.166 -11.666 -68.499 -18.999l-27 138c28.667 10 61.5 18 98.5 24s75.167 9 114.5 9
c81.333 0 141.833 -15.167 181.5 -45.5s59.5 -72.5 59.5 -126.5c0 -24 -3.66699 -50 -11 -78l-80 -298h-187l15 58c-23.333 -21.333 -47.166 -38.166 -71.499 -50.499s-52.5 -18.5 -84.5 -18.5z" />
    <glyph glyph-name="acircumflex" unicode="&#xe2;" horiz-adv-x="597" 
d="M348 752h154l84 -165h-113l-68 61l-101 -61h-128zM240 106c24.667 0 47.501 9.33496 68.501 28.002s35.167 42 42.5 70l5 18c-10.667 3.33301 -21.834 6.16602 -33.501 8.49902s-24.167 3.5 -37.5 3.5c-30 0 -54 -6.83301 -72 -20.5s-27 -32.834 -27 -57.501
c0 -15.333 5 -27.5 15 -36.5s23 -13.5 39 -13.5zM152.001 -10.998c-44.667 0 -81.0049 13.166 -109.005 39.499s-42 62.166 -42 107.499c0 30 5.66699 56.667 17 80s27.5 43.333 48.5 60s46 29.334 75 38.001s61.5 13 97.5 13c24.667 0 48.334 -1.83301 71.001 -5.5
s44.667 -8.83398 66 -15.501l2 7c1.33301 4.66699 2.5 9.66699 3.5 15s1.5 11.333 1.5 18c0 17.333 -7.16699 31.333 -21.5 42s-38.166 16 -71.499 16c-25.333 0 -51.166 -2.66699 -77.499 -8s-49.166 -11.666 -68.499 -18.999l-27 138c28.667 10 61.5 18 98.5 24
s75.167 9 114.5 9c81.333 0 141.833 -15.167 181.5 -45.5s59.5 -72.5 59.5 -126.5c0 -24 -3.66699 -50 -11 -78l-80 -298h-187l15 58c-23.333 -21.333 -47.166 -38.166 -71.499 -50.499s-52.5 -18.5 -84.5 -18.5z" />
    <glyph glyph-name="atilde" unicode="&#xe3;" horiz-adv-x="597" 
d="M168 624c19.333 47.333 42.999 83.166 70.999 107.499s58 36.5 90 36.5c17.333 0 32.833 -3 46.5 -9s26.167 -13 37.5 -21s20.833 -14.167 28.5 -18.5s15.167 -6.5 22.5 -6.5c14 0 26.167 5.16699 36.5 15.5s20.166 24.166 29.499 41.499l89 -40
c-19.333 -47.333 -43 -83.166 -71 -107.499s-58 -36.5 -90 -36.5c-17.333 0 -32.833 3 -46.5 9s-26.167 13 -37.5 21s-21 14.167 -29 18.5s-15.667 6.5 -23 6.5c-13.333 0 -25.166 -5.16699 -35.499 -15.5s-20.166 -24.166 -29.499 -41.499zM239.999 106
c24.667 0 47.501 9.33496 68.501 28.002s35.167 42 42.5 70l5 18c-10.667 3.33301 -21.834 6.16602 -33.501 8.49902s-24.167 3.5 -37.5 3.5c-30 0 -54 -6.83301 -72 -20.5s-27 -32.834 -27 -57.501c0 -15.333 5 -27.5 15 -36.5s23 -13.5 39 -13.5zM152 -10.998
c-44.667 0 -81.0049 13.166 -109.005 39.499s-42 62.166 -42 107.499c0 30 5.66699 56.667 17 80s27.5 43.333 48.5 60s46 29.334 75 38.001s61.5 13 97.5 13c24.667 0 48.334 -1.83301 71.001 -5.5s44.667 -8.83398 66 -15.501l2 7c1.33301 4.66699 2.5 9.66699 3.5 15
s1.5 11.333 1.5 18c0 17.333 -7.16699 31.333 -21.5 42s-38.166 16 -71.499 16c-25.333 0 -51.166 -2.66699 -77.499 -8s-49.166 -11.666 -68.499 -18.999l-27 138c28.667 10 61.5 18 98.5 24s75.167 9 114.5 9c81.333 0 141.833 -15.167 181.5 -45.5
s59.5 -72.5 59.5 -126.5c0 -24 -3.66699 -50 -11 -78l-80 -298h-187l15 58c-23.333 -21.333 -47.166 -38.166 -71.499 -50.499s-52.5 -18.5 -84.5 -18.5z" />
    <glyph glyph-name="adieresis" unicode="&#xe4;" horiz-adv-x="597" 
d="M229 731h166l-39 -143h-166zM448 731h166l-39 -143h-166zM240 106c24.667 0 47.501 9.33496 68.501 28.002s35.167 42 42.5 70l5 18c-10.667 3.33301 -21.834 6.16602 -33.501 8.49902s-24.167 3.5 -37.5 3.5c-30 0 -54 -6.83301 -72 -20.5s-27 -32.834 -27 -57.501
c0 -15.333 5 -27.5 15 -36.5s23 -13.5 39 -13.5zM152.001 -10.998c-44.667 0 -81.0049 13.166 -109.005 39.499s-42 62.166 -42 107.499c0 30 5.66699 56.667 17 80s27.5 43.333 48.5 60s46 29.334 75 38.001s61.5 13 97.5 13c24.667 0 48.334 -1.83301 71.001 -5.5
s44.667 -8.83398 66 -15.501l2 7c1.33301 4.66699 2.5 9.66699 3.5 15s1.5 11.333 1.5 18c0 17.333 -7.16699 31.333 -21.5 42s-38.166 16 -71.499 16c-25.333 0 -51.166 -2.66699 -77.499 -8s-49.166 -11.666 -68.499 -18.999l-27 138c28.667 10 61.5 18 98.5 24
s75.167 9 114.5 9c81.333 0 141.833 -15.167 181.5 -45.5s59.5 -72.5 59.5 -126.5c0 -24 -3.66699 -50 -11 -78l-80 -298h-187l15 58c-23.333 -21.333 -47.166 -38.166 -71.499 -50.499s-52.5 -18.5 -84.5 -18.5z" />
    <glyph glyph-name="aring" unicode="&#xe5;" horiz-adv-x="597" 
d="M405 653c10.667 0 20.501 2.33203 29.501 6.99902s16.833 10.834 23.5 18.501s11.667 16.5 15 26.5s5 20.333 5 31c0 14.667 -4.66699 27.167 -14 37.5s-22 15.5 -38 15.5c-11.333 0 -21.333 -2.33301 -30 -7s-16.334 -11 -23.001 -19s-11.667 -17 -15 -27s-5 -20 -5 -30
c0 -15.333 4.66699 -28 14 -38s22 -15 38 -15zM402.001 591.999c-37.333 0 -66.666 10.668 -87.999 32.001s-32 48 -32 80c0 20 3.83301 38.667 11.5 56s18.167 32.666 31.5 45.999s28.833 23.833 46.5 31.5s36.834 11.5 57.501 11.5c37.333 0 66.666 -10.667 87.999 -32
s32 -48 32 -80c0 -19.333 -3.83301 -37.833 -11.5 -55.5s-18.167 -33.167 -31.5 -46.5s-28.833 -23.833 -46.5 -31.5s-36.834 -11.5 -57.501 -11.5zM240.001 106c24.667 0 47.501 9.33496 68.501 28.002s35.167 42 42.5 70l5 18
c-10.667 3.33301 -21.834 6.16602 -33.501 8.49902s-24.167 3.5 -37.5 3.5c-30 0 -54 -6.83301 -72 -20.5s-27 -32.834 -27 -57.501c0 -15.333 5 -27.5 15 -36.5s23 -13.5 39 -13.5zM152.002 -10.998c-44.667 0 -81.0049 13.166 -109.005 39.499s-42 62.166 -42 107.499
c0 30 5.66699 56.667 17 80s27.5 43.333 48.5 60s46 29.334 75 38.001s61.5 13 97.5 13c24.667 0 48.334 -1.83301 71.001 -5.5s44.667 -8.83398 66 -15.501l2 7c1.33301 4.66699 2.5 9.66699 3.5 15s1.5 11.333 1.5 18c0 17.333 -7.16699 31.333 -21.5 42
s-38.166 16 -71.499 16c-25.333 0 -51.166 -2.66699 -77.499 -8s-49.166 -11.666 -68.499 -18.999l-27 138c28.667 10 61.5 18 98.5 24s75.167 9 114.5 9c81.333 0 141.833 -15.167 181.5 -45.5s59.5 -72.5 59.5 -126.5c0 -24 -3.66699 -50 -11 -78l-80 -298h-187l15 58
c-23.333 -21.333 -47.166 -38.166 -71.499 -50.499s-52.5 -18.5 -84.5 -18.5z" />
    <glyph glyph-name="ae" unicode="&#xe6;" horiz-adv-x="931" 
d="M364 218c-14 6 -27.5 10.168 -40.5 12.501s-25.833 3.5 -38.5 3.5c-30 0 -54 -6.83301 -72 -20.5s-27 -32.834 -27 -57.501c0 -15.333 5.5 -27.666 16.5 -36.999s26.833 -14 47.5 -14c19.333 0 40 4.66699 62 14s42.333 22.666 61 39.999
c-4.66699 18 -7.66699 37.667 -9 59zM739 315.001c3.33301 10 5 19.666 5 28.999c0 18.667 -6 34.834 -18 48.501s-30.667 20.5 -56 20.5s-49.5 -8.16699 -72.5 -24.5s-40.167 -40.833 -51.5 -73.5h193zM407 85c-34 -34 -69.999 -58.5 -107.999 -73.5
s-79.667 -22.5 -125 -22.5c-54 0 -96.333 13 -127 39s-46 62 -46 108c0 30 5.66699 56.667 17 80s27.5 43.333 48.5 60s46 29.334 75 38.001s61.5 13 97.5 13c24.667 0 48.334 -1.83301 71.001 -5.5s44.667 -8.83398 66 -15.501l2 7c1.33301 4.66699 2.5 9.66699 3.5 15
s1.5 11.333 1.5 18c0 17.333 -7.16699 31.333 -21.5 42s-38.166 16 -71.499 16c-25.333 0 -51.166 -2.66699 -77.499 -8s-49.166 -11.666 -68.499 -18.999l-27 138c28.667 10 61.5 18 98.5 24s75.167 9 114.5 9c42.667 0 78.5 -5.5 107.5 -16.5s51.833 -26.833 68.5 -47.5
c25.333 21.333 53.666 38.166 84.999 50.499s64.666 18.5 99.999 18.5c38 0 71 -6.16699 99 -18.5s51 -28.833 69 -49.5s31.5 -44.5 40.5 -71.5s13.5 -55.167 13.5 -84.5c0 -18.667 -1.83301 -37.5 -5.5 -56.5s-8.83398 -37.167 -15.501 -54.5h-359
c2 -27.333 11.167 -49 27.5 -65s40.833 -24 73.5 -24c19.333 0 38.166 3.33301 56.499 10s37.833 17.667 58.5 33l88 -104c-27.333 -24 -59.833 -43.5 -97.5 -58.5s-79.834 -22.5 -126.501 -22.5c-46 0 -86.5 8.5 -121.5 25.5s-63.167 41.167 -84.5 72.5z" />
    <glyph glyph-name="ccedilla" unicode="&#xe7;" horiz-adv-x="563" 
d="M56 -109l116.001 115.002c-44 17.333 -79 44.666 -105 81.999s-39 82.666 -39 135.999c0 45.333 8.5 88 25.5 128s40.167 74.833 69.5 104.5s63.666 53 102.999 70s81.666 25.5 126.999 25.5c31.333 0 59.666 -3.83301 84.999 -11.5s47.5 -18.167 66.5 -31.5
s35 -29 48 -47s23.167 -37.333 30.5 -58l-149 -77c-9.33301 21.333 -21 38 -35 50s-33.333 18 -58 18c-18 0 -34.833 -4.5 -50.5 -13.5s-29.5 -21 -41.5 -36s-21.333 -32.167 -28 -51.5s-10 -39.333 -10 -60c0 -28 7.83301 -50 23.5 -66s34.834 -24 57.501 -24
c20.667 0 38.834 4 54.501 12s32.167 20.667 49.5 38l116 -101c-26.667 -30.667 -57 -55.5 -91 -74.5s-76.333 -29.5 -127 -31.5l-99 -160z" />
    <glyph glyph-name="egrave" unicode="&#xe8;" horiz-adv-x="601" 
d="M219 715l179 57l55 -185h-123zM409 315c3.33301 10 5 19.666 5 28.999c0 18.667 -6 34.834 -18 48.501s-30.667 20.5 -56 20.5s-49.5 -8.16699 -72.5 -24.5s-40.167 -40.833 -51.5 -73.5h193zM203 217.999c2 -27.333 11.1689 -49 27.502 -65s40.833 -24 73.5 -24
c19.333 0 38.166 3.33301 56.499 10s37.833 17.667 58.5 33l88 -104c-28 -24 -60 -43.5 -96 -58.5s-77.667 -22.5 -125 -22.5c-40 0 -76 5.66699 -108 17s-59 27.5 -81 48.5s-39 46.167 -51 75.5s-18 62.333 -18 99c0 40 7.5 79.5 22.5 118.5s36.667 73.833 65 104.5
s62.5 55.5 102.5 74.5s85 28.5 135 28.5c40 0 74.5 -6.16699 103.5 -18.5s52.833 -28.833 71.5 -49.5s32.5 -44.5 41.5 -71.5s13.5 -55.167 13.5 -84.5c0 -18.667 -1.83301 -37.5 -5.5 -56.5s-8.83398 -37.167 -15.501 -54.5h-359z" />
    <glyph glyph-name="eacute" unicode="&#xe9;" horiz-adv-x="601" 
d="M429 772l173 -57l-181 -128h-147zM409 315c3.33301 10 5 19.666 5 28.999c0 18.667 -6 34.834 -18 48.501s-30.667 20.5 -56 20.5s-49.5 -8.16699 -72.5 -24.5s-40.167 -40.833 -51.5 -73.5h193zM203 217.999c2 -27.333 11.1689 -49 27.502 -65s40.833 -24 73.5 -24
c19.333 0 38.166 3.33301 56.499 10s37.833 17.667 58.5 33l88 -104c-28 -24 -60 -43.5 -96 -58.5s-77.667 -22.5 -125 -22.5c-40 0 -76 5.66699 -108 17s-59 27.5 -81 48.5s-39 46.167 -51 75.5s-18 62.333 -18 99c0 40 7.5 79.5 22.5 118.5s36.667 73.833 65 104.5
s62.5 55.5 102.5 74.5s85 28.5 135 28.5c40 0 74.5 -6.16699 103.5 -18.5s52.833 -28.833 71.5 -49.5s32.5 -44.5 41.5 -71.5s13.5 -55.167 13.5 -84.5c0 -18.667 -1.83301 -37.5 -5.5 -56.5s-8.83398 -37.167 -15.501 -54.5h-359z" />
    <glyph glyph-name="ecircumflex" unicode="&#xea;" horiz-adv-x="601" 
d="M340 752h154l84 -165h-113l-68 61l-101 -61h-128zM409 315c3.33301 10 5 19.666 5 28.999c0 18.667 -6 34.834 -18 48.501s-30.667 20.5 -56 20.5s-49.5 -8.16699 -72.5 -24.5s-40.167 -40.833 -51.5 -73.5h193zM203 217.999c2 -27.333 11.1689 -49 27.502 -65
s40.833 -24 73.5 -24c19.333 0 38.166 3.33301 56.499 10s37.833 17.667 58.5 33l88 -104c-28 -24 -60 -43.5 -96 -58.5s-77.667 -22.5 -125 -22.5c-40 0 -76 5.66699 -108 17s-59 27.5 -81 48.5s-39 46.167 -51 75.5s-18 62.333 -18 99c0 40 7.5 79.5 22.5 118.5
s36.667 73.833 65 104.5s62.5 55.5 102.5 74.5s85 28.5 135 28.5c40 0 74.5 -6.16699 103.5 -18.5s52.833 -28.833 71.5 -49.5s32.5 -44.5 41.5 -71.5s13.5 -55.167 13.5 -84.5c0 -18.667 -1.83301 -37.5 -5.5 -56.5s-8.83398 -37.167 -15.501 -54.5h-359z" />
    <glyph glyph-name="edieresis" unicode="&#xeb;" horiz-adv-x="601" 
d="M224 730h166l-39 -143h-166zM443 730h166l-39 -143h-166zM409 315c3.33301 10 5 19.666 5 28.999c0 18.667 -6 34.834 -18 48.501s-30.667 20.5 -56 20.5s-49.5 -8.16699 -72.5 -24.5s-40.167 -40.833 -51.5 -73.5h193zM203 217.999c2 -27.333 11.1689 -49 27.502 -65
s40.833 -24 73.5 -24c19.333 0 38.166 3.33301 56.499 10s37.833 17.667 58.5 33l88 -104c-28 -24 -60 -43.5 -96 -58.5s-77.667 -22.5 -125 -22.5c-40 0 -76 5.66699 -108 17s-59 27.5 -81 48.5s-39 46.167 -51 75.5s-18 62.333 -18 99c0 40 7.5 79.5 22.5 118.5
s36.667 73.833 65 104.5s62.5 55.5 102.5 74.5s85 28.5 135 28.5c40 0 74.5 -6.16699 103.5 -18.5s52.833 -28.833 71.5 -49.5s32.5 -44.5 41.5 -71.5s13.5 -55.167 13.5 -84.5c0 -18.667 -1.83301 -37.5 -5.5 -56.5s-8.83398 -37.167 -15.501 -54.5h-359z" />
    <glyph glyph-name="igrave" unicode="&#xec;" horiz-adv-x="301" 
d="M87 715l179 57l55 -185h-123zM128 541h190l-145 -541h-190z" />
    <glyph glyph-name="iacute" unicode="&#xed;" horiz-adv-x="301" 
d="M293 772l173 -57l-181 -128h-147zM128 541h190l-145 -541h-190z" />
    <glyph glyph-name="icircumflex" unicode="&#xee;" horiz-adv-x="301" 
d="M196 752h154l84 -165h-113l-68 61l-101 -61h-128zM128 541h190l-145 -541h-190z" />
    <glyph glyph-name="idieresis" unicode="&#xef;" horiz-adv-x="301" 
d="M80 730h166l-39 -143h-166zM299 730h166l-39 -143h-166zM128 541h190l-145 -541h-190z" />
    <glyph glyph-name="eth" unicode="&#xf0;" horiz-adv-x="642" 
d="M301 146c18 0 34.334 3.33105 49.001 9.99805s27.167 15.334 37.5 26.001s18.5 23 24.5 37s9 28.667 9 44c0 26.667 -8.66699 48.167 -26 64.5s-39.333 24.5 -66 24.5c-17.333 0 -33.333 -3.16699 -48 -9.5s-27.334 -14.666 -38.001 -24.999s-19 -22.5 -25 -36.5
s-9 -29 -9 -45c0 -28 9 -50 27 -66s39.667 -24 65 -24zM288.001 -12.002c-39.333 0 -75 5.83105 -107 17.498s-59.5 27.834 -82.5 48.501s-40.833 45.167 -53.5 73.5s-19 59.5 -19 93.5c0 34.667 6.66699 67.834 20 99.501s32 59.167 56 82.5s52.667 42 86 56
s69.666 21 108.999 21c26.667 0 50.834 -3.5 72.501 -10.5s41.167 -17.167 58.5 -30.5l-55 119l-131 -45l-41 89l133 42l-39 86h181l15 -34l121 41l41 -89l-124 -39l39 -89c29.333 -65.333 44 -131.666 44 -198.999c0 -47.333 -7.5 -91.333 -22.5 -132
s-36.5 -75.834 -64.5 -105.501s-62 -53 -102 -70s-85 -25.5 -135 -25.5z" />
    <glyph glyph-name="ntilde" unicode="&#xf1;" horiz-adv-x="630" 
d="M179 624c19.333 47.333 42.999 83.166 70.999 107.499s58 36.5 90 36.5c17.333 0 32.833 -3 46.5 -9s26.167 -13 37.5 -21s20.833 -14.167 28.5 -18.5s15.167 -6.5 22.5 -6.5c14 0 26.167 5.16699 36.5 15.5s20.166 24.166 29.499 41.499l89 -40
c-19.333 -47.333 -43 -83.166 -71 -107.499s-58 -36.5 -90 -36.5c-17.333 0 -32.833 3 -46.5 9s-26.167 13 -37.5 21s-21 14.167 -29 18.5s-15.667 6.5 -23 6.5c-13.333 0 -25.166 -5.16699 -35.499 -15.5s-20.166 -24.166 -29.499 -41.499zM123.999 541
l189.999 -0.000976562l-17 -62c18.667 19.333 41.167 36.5 67.5 51.5s55.5 22.5 87.5 22.5c49.333 0 87.833 -14.5 115.5 -43.5s41.5 -68.5 41.5 -118.5c0 -14.667 -1.5 -30.167 -4.5 -46.5s-6.83301 -33.166 -11.5 -50.499l-78 -294h-190l76 283c2 7.33301 3.5 15 4.5 23
s1.5 15 1.5 21c0 18 -5.16699 32 -15.5 42s-25.166 15 -44.499 15c-26.667 0 -48 -8.5 -64 -25.5s-28.333 -41.167 -37 -72.5l-77 -286h-190z" />
    <glyph glyph-name="ograve" unicode="&#xf2;" horiz-adv-x="644" 
d="M228 715l179 57l55 -185h-123zM306 145c18.667 0 35.834 4.5 51.501 13.5s29 20.667 40 35s19.5 30.333 25.5 48s9 35.5 9 53.5c0 30.667 -8.66699 55 -26 73s-40 27 -68 27c-18.667 0 -35.834 -4.5 -51.501 -13.5s-29 -20.667 -40 -35s-19.5 -30.333 -25.5 -48
s-9 -35.167 -9 -52.5c0 -31.333 8.66699 -56 26 -74s40 -27 68 -27zM295 -13c-41.333 0 -78.335 6.49902 -111.002 19.499s-60.5 30.667 -83.5 53s-40.5 48.833 -52.5 79.5s-18 64 -18 100c0 40.667 8 80 24 118s38.333 71.5 67 100.5s62.334 52.167 101.001 69.5
s80.667 26 126 26c41.333 0 78.5 -6.5 111.5 -19.5s61 -30.667 84 -53s40.5 -48.833 52.5 -79.5s18 -63.667 18 -99c0 -41.333 -8.16699 -80.833 -24.5 -118.5s-38.666 -71.167 -66.999 -100.5s-62 -52.666 -101 -69.999s-81.167 -26 -126.5 -26z" />
    <glyph glyph-name="oacute" unicode="&#xf3;" horiz-adv-x="644" 
d="M436 772l173 -57l-181 -128h-147zM306 145c18.667 0 35.834 4.5 51.501 13.5s29 20.667 40 35s19.5 30.333 25.5 48s9 35.5 9 53.5c0 30.667 -8.66699 55 -26 73s-40 27 -68 27c-18.667 0 -35.834 -4.5 -51.501 -13.5s-29 -20.667 -40 -35s-19.5 -30.333 -25.5 -48
s-9 -35.167 -9 -52.5c0 -31.333 8.66699 -56 26 -74s40 -27 68 -27zM295 -13c-41.333 0 -78.335 6.49902 -111.002 19.499s-60.5 30.667 -83.5 53s-40.5 48.833 -52.5 79.5s-18 64 -18 100c0 40.667 8 80 24 118s38.333 71.5 67 100.5s62.334 52.167 101.001 69.5
s80.667 26 126 26c41.333 0 78.5 -6.5 111.5 -19.5s61 -30.667 84 -53s40.5 -48.833 52.5 -79.5s18 -63.667 18 -99c0 -41.333 -8.16699 -80.833 -24.5 -118.5s-38.666 -71.167 -66.999 -100.5s-62 -52.666 -101 -69.999s-81.167 -26 -126.5 -26z" />
    <glyph glyph-name="ocircumflex" unicode="&#xf4;" horiz-adv-x="644" 
d="M344 752h154l84 -165h-113l-68 61l-101 -61h-128zM306 145c18.667 0 35.834 4.5 51.501 13.5s29 20.667 40 35s19.5 30.333 25.5 48s9 35.5 9 53.5c0 30.667 -8.66699 55 -26 73s-40 27 -68 27c-18.667 0 -35.834 -4.5 -51.501 -13.5s-29 -20.667 -40 -35
s-19.5 -30.333 -25.5 -48s-9 -35.167 -9 -52.5c0 -31.333 8.66699 -56 26 -74s40 -27 68 -27zM295 -13c-41.333 0 -78.335 6.49902 -111.002 19.499s-60.5 30.667 -83.5 53s-40.5 48.833 -52.5 79.5s-18 64 -18 100c0 40.667 8 80 24 118s38.333 71.5 67 100.5
s62.334 52.167 101.001 69.5s80.667 26 126 26c41.333 0 78.5 -6.5 111.5 -19.5s61 -30.667 84 -53s40.5 -48.833 52.5 -79.5s18 -63.667 18 -99c0 -41.333 -8.16699 -80.833 -24.5 -118.5s-38.666 -71.167 -66.999 -100.5s-62 -52.666 -101 -69.999s-81.167 -26 -126.5 -26
z" />
    <glyph glyph-name="otilde" unicode="&#xf5;" horiz-adv-x="644" 
d="M170 624c19.333 47.333 42.999 83.166 70.999 107.499s58 36.5 90 36.5c17.333 0 32.833 -3 46.5 -9s26.167 -13 37.5 -21s20.833 -14.167 28.5 -18.5s15.167 -6.5 22.5 -6.5c14 0 26.167 5.16699 36.5 15.5s20.166 24.166 29.499 41.499l89 -40
c-19.333 -47.333 -43 -83.166 -71 -107.499s-58 -36.5 -90 -36.5c-17.333 0 -32.833 3 -46.5 9s-26.167 13 -37.5 21s-21 14.167 -29 18.5s-15.667 6.5 -23 6.5c-13.333 0 -25.166 -5.16699 -35.499 -15.5s-20.166 -24.166 -29.499 -41.499zM305.999 145
c18.667 0 35.834 4.5 51.501 13.5s29 20.667 40 35s19.5 30.333 25.5 48s9 35.5 9 53.5c0 30.667 -8.66699 55 -26 73s-40 27 -68 27c-18.667 0 -35.834 -4.5 -51.501 -13.5s-29 -20.667 -40 -35s-19.5 -30.333 -25.5 -48s-9 -35.167 -9 -52.5c0 -31.333 8.66699 -56 26 -74
s40 -27 68 -27zM294.999 -13c-41.333 0 -78.335 6.49902 -111.002 19.499s-60.5 30.667 -83.5 53s-40.5 48.833 -52.5 79.5s-18 64 -18 100c0 40.667 8 80 24 118s38.333 71.5 67 100.5s62.334 52.167 101.001 69.5s80.667 26 126 26c41.333 0 78.5 -6.5 111.5 -19.5
s61 -30.667 84 -53s40.5 -48.833 52.5 -79.5s18 -63.667 18 -99c0 -41.333 -8.16699 -80.833 -24.5 -118.5s-38.666 -71.167 -66.999 -100.5s-62 -52.666 -101 -69.999s-81.167 -26 -126.5 -26z" />
    <glyph glyph-name="odieresis" unicode="&#xf6;" horiz-adv-x="644" 
d="M226 730h166l-39 -143h-166zM445 730h166l-39 -143h-166zM306 145c18.667 0 35.834 4.5 51.501 13.5s29 20.667 40 35s19.5 30.333 25.5 48s9 35.5 9 53.5c0 30.667 -8.66699 55 -26 73s-40 27 -68 27c-18.667 0 -35.834 -4.5 -51.501 -13.5s-29 -20.667 -40 -35
s-19.5 -30.333 -25.5 -48s-9 -35.167 -9 -52.5c0 -31.333 8.66699 -56 26 -74s40 -27 68 -27zM295 -13c-41.333 0 -78.335 6.49902 -111.002 19.499s-60.5 30.667 -83.5 53s-40.5 48.833 -52.5 79.5s-18 64 -18 100c0 40.667 8 80 24 118s38.333 71.5 67 100.5
s62.334 52.167 101.001 69.5s80.667 26 126 26c41.333 0 78.5 -6.5 111.5 -19.5s61 -30.667 84 -53s40.5 -48.833 52.5 -79.5s18 -63.667 18 -99c0 -41.333 -8.16699 -80.833 -24.5 -118.5s-38.666 -71.167 -66.999 -100.5s-62 -52.666 -101 -69.999s-81.167 -26 -126.5 -26
z" />
    <glyph glyph-name="oslash" unicode="&#xf8;" horiz-adv-x="644" 
d="M304 138c20 0 38.333 4.66699 55 14s31 21.5 43 36.5s21.333 32 28 51s10 37.833 10 56.5c0 4 -0.166992 8 -0.5 12s-0.833008 7.66699 -1.5 11l-187 -168c16 -8.66699 33.667 -13 53 -13zM395 388c-14.667 9.33301 -33 14.001 -55 14.001
c-20 0 -38.333 -4.66699 -55 -14s-31 -21.5 -43 -36.5s-21.333 -31.833 -28 -50.5s-10 -37.334 -10 -56.001c0 -4.66699 0.166992 -9 0.5 -13s0.833008 -8.33301 1.5 -13zM295 -11.999c-34.667 0 -66.1699 4.5 -94.5029 13.5s-53.166 21.5 -74.499 37.5l-49 -44h-133
l122 109c-12 19.333 -21 40.833 -27 64.5s-9 48.167 -9 73.5c0 40 8 78.667 24 116s38.333 70.5 67 99.5s62.334 52.167 101.001 69.5s80.667 26 126 26c35.333 0 67.333 -4.5 96 -13.5s54 -21.833 76 -38.5l50 45h133l-124 -111c23.333 -38.667 35 -84 35 -136
c0 -40 -8.16699 -78.667 -24.5 -116s-38.666 -70.5 -66.999 -99.5s-62 -52.167 -101 -69.5s-81.167 -26 -126.5 -26z" />
    <glyph glyph-name="ugrave" unicode="&#xf9;" horiz-adv-x="632" 
d="M255 715l179 57l55 -185h-123zM183 -12c-49.333 0 -87.834 14.501 -115.501 43.501s-41.5 68.5 -41.5 118.5c0 14.667 1.33301 30.167 4 46.5s6.33398 33.166 11.001 50.499l79 294h190l-76 -283c-2 -7.33301 -3.66699 -15 -5 -23s-2 -15 -2 -21
c0 -18 5.16699 -32 15.5 -42s25.5 -15 45.5 -15c26.667 0 48 8.5 64 25.5s28 41.167 36 72.5l77 286h190l-144 -541h-190l16 62c-18.667 -19.333 -41 -36.5 -67 -51.5s-55 -22.5 -87 -22.5z" />
    <glyph glyph-name="uacute" unicode="&#xfa;" horiz-adv-x="632" 
d="M452 772l173 -57l-181 -128h-147zM183 -12c-49.333 0 -87.834 14.501 -115.501 43.501s-41.5 68.5 -41.5 118.5c0 14.667 1.33301 30.167 4 46.5s6.33398 33.166 11.001 50.499l79 294h190l-76 -283c-2 -7.33301 -3.66699 -15 -5 -23s-2 -15 -2 -21
c0 -18 5.16699 -32 15.5 -42s25.5 -15 45.5 -15c26.667 0 48 8.5 64 25.5s28 41.167 36 72.5l77 286h190l-144 -541h-190l16 62c-18.667 -19.333 -41 -36.5 -67 -51.5s-55 -22.5 -87 -22.5z" />
    <glyph glyph-name="ucircumflex" unicode="&#xfb;" horiz-adv-x="632" 
d="M362 752h154l84 -165h-113l-68 61l-101 -61h-128zM183 -12c-49.333 0 -87.834 14.501 -115.501 43.501s-41.5 68.5 -41.5 118.5c0 14.667 1.33301 30.167 4 46.5s6.33398 33.166 11.001 50.499l79 294h190l-76 -283c-2 -7.33301 -3.66699 -15 -5 -23s-2 -15 -2 -21
c0 -18 5.16699 -32 15.5 -42s25.5 -15 45.5 -15c26.667 0 48 8.5 64 25.5s28 41.167 36 72.5l77 286h190l-144 -541h-190l16 62c-18.667 -19.333 -41 -36.5 -67 -51.5s-55 -22.5 -87 -22.5z" />
    <glyph glyph-name="udieresis" unicode="&#xfc;" horiz-adv-x="632" 
d="M247 730h166l-39 -143h-166zM466 730h166l-39 -143h-166zM183 -12c-49.333 0 -87.834 14.501 -115.501 43.501s-41.5 68.5 -41.5 118.5c0 14.667 1.33301 30.167 4 46.5s6.33398 33.166 11.001 50.499l79 294h190l-76 -283c-2 -7.33301 -3.66699 -15 -5 -23
s-2 -15 -2 -21c0 -18 5.16699 -32 15.5 -42s25.5 -15 45.5 -15c26.667 0 48 8.5 64 25.5s28 41.167 36 72.5l77 286h190l-144 -541h-190l16 62c-18.667 -19.333 -41 -36.5 -67 -51.5s-55 -22.5 -87 -22.5z" />
    <glyph glyph-name="yacute" unicode="&#xfd;" horiz-adv-x="622" 
d="M454 772l173 -57l-181 -128h-147zM94 -163c-32 0 -59.332 3.5 -81.999 10.5s-43.334 16.5 -62.001 28.5l85 139c24.667 -18 49.667 -27 75 -27c9.33301 0 17.5 1.33301 24.5 4s14.5 8 22.5 16l-70 533h193l22 -325l182 325h200l-335 -538
c-19.333 -30.667 -38.5 -56.5 -57.5 -77.5s-38.833 -38 -59.5 -51s-42.167 -22.5 -64.5 -28.5s-46.833 -9 -73.5 -9z" />
    <glyph glyph-name="thorn" unicode="&#xfe;" horiz-adv-x="672" 
d="M320 146c18 0 34.999 4 50.999 12s30 19 42 33s21.5 30.5 28.5 49.5s10.5 39.167 10.5 60.5c0 29.333 -8.33301 52.5 -25 69.5s-39 25.5 -67 25.5c-18 0 -35.167 -4.16699 -51.5 -12.5s-30.666 -19.5 -42.999 -33.5s-22 -30.333 -29 -49s-10.5 -38.334 -10.5 -59.001
c0 -29.333 8.66699 -52.666 26 -69.999s40 -26 68 -26zM173.999 730l190.002 0.00488281l-66 -246c21.333 21.333 44.833 38.166 70.5 50.499s53.5 18.5 83.5 18.5c26.667 0 51.667 -5 75 -15s43.666 -24.5 60.999 -43.5s31 -42.333 41 -70s15 -58.834 15 -93.501
c0 -48.667 -7.83301 -93.834 -23.5 -135.501s-36.834 -77.834 -63.501 -108.501s-57.667 -54.834 -93 -72.501s-72.333 -26.5 -111 -26.5c-40.667 0 -74 8 -100 24s-47.333 36.667 -64 62l-63 -234h-190z" />
    <glyph glyph-name="ydieresis" unicode="&#xff;" horiz-adv-x="622" 
d="M234 730h166l-39 -143h-166zM453 730h166l-39 -143h-166zM94 -163c-32 0 -59.332 3.5 -81.999 10.5s-43.334 16.5 -62.001 28.5l85 139c24.667 -18 49.667 -27 75 -27c9.33301 0 17.5 1.33301 24.5 4s14.5 8 22.5 16l-70 533h193l22 -325l182 325h200l-335 -538
c-19.333 -30.667 -38.5 -56.5 -57.5 -77.5s-38.833 -38 -59.5 -51s-42.167 -22.5 -64.5 -28.5s-46.833 -9 -73.5 -9z" />
    <glyph glyph-name="dotlessi" unicode="&#x131;" horiz-adv-x="301" 
d="M128 541h190l-145 -541h-190z" />
    <glyph glyph-name="Lslash" unicode="&#x141;" horiz-adv-x="662" 
d="M101 245l-82 -22l47 173l82 22l75 282h192l-60 -225l192 53l-46 -174l-192 -52l-36 -132h334l-46 -170h-526z" />
    <glyph glyph-name="lslash" unicode="&#x142;" horiz-adv-x="398" 
d="M103 263l-88 -23l46 170l88 24l79 296h190l-65 -242l88 24l-46 -171l-88 -24l-85 -317h-190z" />
    <glyph glyph-name="OE" unicode="&#x152;" horiz-adv-x="1080" 
d="M464 172l95.999 356h-49c-41.333 0 -79.166 -6 -113.499 -18s-63.166 -29.667 -86.499 -53c-18.667 -18.667 -33.334 -40.667 -44.001 -66s-16 -52 -16 -80c0 -21.333 3 -39.833 9 -55.5s14.667 -29.167 26 -40.5c13.333 -13.333 30.833 -23.833 52.5 -31.5
s49.5 -11.5 83.5 -11.5h42zM400.999 0c-68 0 -124 8.33203 -168 24.999s-80 39 -108 67c-49.333 49.333 -74 117 -74 203c0 52.667 9.66699 102.334 29 149.001s48 89 86 127c42 42 93.333 74 154 96s131.667 33 213 33h614l-44 -165h-349l-28 -106h313l-41 -153h-313
l-31 -111h354l-44 -165h-563z" />
    <glyph glyph-name="oe" unicode="&#x153;" horiz-adv-x="1002" 
d="M305 146c18.667 0 35.834 4.16602 51.501 12.499s29.167 19.5 40.5 33.5s20 29.833 26 47.5s9 35.834 9 54.501c0 30 -8.5 54.333 -25.5 73s-39.833 28 -68.5 28c-18.667 0 -35.834 -4.33301 -51.501 -13s-29 -20 -40 -34s-19.5 -29.833 -25.5 -47.5s-9 -35.5 -9 -53.5
c0 -30 8.5 -54.333 25.5 -73s39.5 -28 67.5 -28zM810 314.999c2.66699 8 4 17.666 4 28.999c0 18.667 -6 34.834 -18 48.501s-30.333 20.5 -55 20.5c-26 0 -50.5 -8.16699 -73.5 -24.5s-40.167 -40.833 -51.5 -73.5h194zM603 217.998
c2 -27.333 11.1631 -49.001 27.4961 -65.001s41.166 -24 74.499 -24c19.333 0 38 3.33301 56 10s37.333 17.667 58 33l88 -104c-27.333 -24 -59.666 -43.5 -96.999 -58.5s-79.666 -22.5 -126.999 -22.5c-42 0 -78.667 7.5 -110 22.5s-56.666 35.833 -75.999 62.5
c-25.333 -25.333 -55.166 -45.666 -89.499 -60.999s-71.5 -23 -111.5 -23c-41.333 0 -78.5 6.5 -111.5 19.5s-61 30.833 -84 53.5s-40.5 49.5 -52.5 80.5s-18 64.5 -18 100.5c0 40 8 78.833 24 116.5s38.167 70.834 66.5 99.501s62 51.667 101 69s81.167 26 126.5 26
c44.667 0 83.5 -8 116.5 -24s59.5 -38 79.5 -66c26 27.333 56.667 49.166 92 65.499s75.333 24.5 120 24.5c38.667 0 72.334 -6.16699 101.001 -18.5s52.334 -28.833 71.001 -49.5s32.5 -44.5 41.5 -71.5s13.5 -55.167 13.5 -84.5c0 -18.667 -1.83301 -37.5 -5.5 -56.5
s-8.83398 -37.167 -15.501 -54.5h-359z" />
    <glyph glyph-name="Scaron" unicode="&#x160;" horiz-adv-x="645" 
d="M275 912h113l68 -61l101 61h128l-172 -165h-154zM302 -12c-68.667 0 -130.496 11.1641 -185.496 33.4971s-101.5 53.833 -139.5 94.5l125 129c68.667 -63.333 140.667 -95 216 -95c23.333 0 42.333 4.66699 57 14s22 22 22 38c0 6.66699 -1.5 12.834 -4.5 18.501
s-8.83301 11.334 -17.5 17.001s-20.5 12 -35.5 19s-34.833 15.167 -59.5 24.5c-28 10.667 -53.167 21.834 -75.5 33.501s-41.333 25 -57 40s-27.834 32.167 -36.501 51.5s-13 42 -13 68c0 34.667 7.5 66.667 22.5 96s35.667 54.5 62 75.5s57.666 37.333 93.999 49
s75.833 17.5 118.5 17.5c62 0 116.833 -9.33301 164.5 -28s88.5 -44 122.5 -76l-120 -134c-26.667 23.333 -55.167 42 -85.5 56s-63.5 21 -99.5 21c-23.333 0 -41.833 -4.83301 -55.5 -14.5s-20.5 -21.5 -20.5 -35.5c0 -7.33301 1.66699 -13.5 5 -18.5
s9.16602 -10.167 17.499 -15.5s20.166 -11.333 35.499 -18s35 -14.667 59 -24c26.667 -10 51.167 -21 73.5 -33s41.5 -25.5 57.5 -40.5s28.5 -32.5 37.5 -52.5s13.5 -43 13.5 -69c0 -36 -7.33301 -68.833 -22 -98.5s-35.167 -55.167 -61.5 -76.5
s-57.833 -37.833 -94.5 -49.5s-76.667 -17.5 -120 -17.5z" />
    <glyph glyph-name="scaron" unicode="&#x161;" horiz-adv-x="511" 
d="M182 752h113l68 -61l101 61h128l-172 -165h-154zM230 -13c-52 0 -101.326 8.33301 -147.993 25s-86.334 39.667 -119.001 69l94 111c26 -23.333 55.667 -41.333 89 -54s63.666 -19 90.999 -19c16 0 28 3 36 9s12 14 12 24c0 9.33301 -5.66699 17.5 -17 24.5
s-30.333 15.833 -57 26.5c-21.333 8.66699 -41.333 17.667 -60 27s-34.834 20.166 -48.501 32.499s-24.334 26.5 -32.001 42.5s-11.5 34.667 -11.5 56c0 26.667 5.33301 51.834 16 75.501s26 44 46 61s44.667 30.5 74 40.5s62.666 15 99.999 15
c49.333 0 94.5 -7.66699 135.5 -23s73.833 -33 98.5 -53l-91 -114c-23.333 17.333 -48.5 31.333 -75.5 42s-52.833 16 -77.5 16c-31.333 0 -47 -10.333 -47 -31c0 -9.33301 5.5 -17.333 16.5 -24s30.5 -15.667 58.5 -27c19.333 -8 38.166 -16.5 56.499 -25.5
s34.5 -19.5 48.5 -31.5s25.167 -26.167 33.5 -42.5s12.5 -35.833 12.5 -58.5c0 -26 -4.83301 -50.667 -14.5 -74s-24.334 -44 -44.001 -62s-44.167 -32.167 -73.5 -42.5s-63.333 -15.5 -102 -15.5z" />
    <glyph glyph-name="Ydieresis" unicode="&#x178;" horiz-adv-x="677" 
d="M295 890h166l-39 -143h-166zM514 890h166l-39 -143h-166zM232 271l-141 429h209l69 -262l211 262h232l-391 -450l-67 -250h-195z" />
    <glyph glyph-name="Zcaron" unicode="&#x17d;" horiz-adv-x="681" 
d="M300 912h113l68 -61l101 61h128l-172 -165h-154zM1 141l446 395h-328l45 164h595l-38 -141l-446 -395h341l-44 -164h-608z" />
    <glyph glyph-name="zcaron" unicode="&#x17e;" horiz-adv-x="558" 
d="M196 752h113l68 -61l101 61h128l-172 -165h-154zM-6 125l318 265h-238l40 151h486l-33 -125l-319 -265h249l-40 -151h-497z" />
    <glyph glyph-name="florin" unicode="&#x192;" horiz-adv-x="559" 
d="M55 -12c-20 0 -37.8311 0.833008 -53.498 2.5s-30.834 4.16699 -45.501 7.5l32 139c9.33301 -2.66699 17.666 -4.5 24.999 -5.5s15.666 -1.5 24.999 -1.5c16.667 0 31.5 4.83301 44.5 14.5s25.5 28.167 37.5 55.5l58 129h-63l33 144h94l35 76
c24.667 57.333 56.5 98.833 95.5 124.5s88.833 38.5 149.5 38.5c24.667 0 47 -1.33301 67 -4s37.667 -6.66699 53 -12l-32 -140c-22 8 -45.333 12 -70 12c-23.333 0 -42.333 -5.5 -57 -16.5s-26.667 -27.5 -36 -49.5l-13 -29h117l-32 -144h-149l-78 -174
c-27.333 -62 -60.166 -105.333 -98.499 -130s-84.5 -37 -138.5 -37z" />
    <glyph glyph-name="circumflex" unicode="&#x2c6;" 
d="M302 752h154l84 -165h-113l-68 61l-101 -61h-128z" />
    <glyph glyph-name="caron" unicode="&#x2c7;" 
d="M172 752h113l68 -61l101 61h128l-172 -165h-154z" />
    <glyph glyph-name="breve" unicode="&#x2d8;" 
d="M359 586c-57.333 0 -101.498 15 -132.498 45s-46.5 69 -46.5 117v4h113c1.33301 -16.667 8.16602 -30.5 20.499 -41.5s30.166 -16.5 53.499 -16.5c21.333 0 40.166 5.33301 56.499 16s29.5 24.667 39.5 42h114c-7.33301 -26 -18.166 -49.333 -32.499 -70s-31 -38 -50 -52
s-40.167 -24.833 -63.5 -32.5s-47.333 -11.5 -72 -11.5z" />
    <glyph glyph-name="dotaccent" unicode="&#x2d9;" 
d="M289 730h170l-39 -143h-170z" />
    <glyph glyph-name="ring" unicode="&#x2da;" 
d="M359 653c10.667 0 20.501 2.33203 29.501 6.99902s16.833 10.834 23.5 18.501s11.667 16.5 15 26.5s5 20.333 5 31c0 14.667 -4.66699 27.167 -14 37.5s-22 15.5 -38 15.5c-11.333 0 -21.333 -2.33301 -30 -7s-16.334 -11 -23.001 -19s-11.667 -17 -15 -27s-5 -20 -5 -30
c0 -15.333 4.66699 -28 14 -38s22 -15 38 -15zM356.001 591.999c-37.333 0 -66.666 10.668 -87.999 32.001s-32 48 -32 80c0 20 3.83301 38.667 11.5 56s18.167 32.666 31.5 45.999s28.833 23.833 46.5 31.5s36.834 11.5 57.501 11.5c37.333 0 66.666 -10.667 87.999 -32
s32 -48 32 -80c0 -19.333 -3.83301 -37.833 -11.5 -55.5s-18.167 -33.167 -31.5 -46.5s-28.833 -23.833 -46.5 -31.5s-36.834 -11.5 -57.501 -11.5z" />
    <glyph glyph-name="ogonek" unicode="&#x2db;" 
d="M252 -164c-66 -7.33301 -115.501 -3.83398 -148.501 10.499s-49.5 37.166 -49.5 68.499c0 14 3.83301 29.333 11.5 46s18.834 33 33.501 49h118c-7.33301 -11.333 -12.333 -21.166 -15 -29.499s-4 -16.166 -4 -23.499c0 -12 6 -21.5 18 -28.5s31.333 -10.833 58 -11.5z
" />
    <glyph glyph-name="tilde" unicode="&#x2dc;" 
d="M133 624c19.333 47.333 42.999 83.166 70.999 107.499s58 36.5 90 36.5c17.333 0 32.833 -3 46.5 -9s26.167 -13 37.5 -21s20.833 -14.167 28.5 -18.5s15.167 -6.5 22.5 -6.5c14 0 26.167 5.16699 36.5 15.5s20.166 24.166 29.499 41.499l89 -40
c-19.333 -47.333 -43 -83.166 -71 -107.499s-58 -36.5 -90 -36.5c-17.333 0 -32.833 3 -46.5 9s-26.167 13 -37.5 21s-21 14.167 -29 18.5s-15.667 6.5 -23 6.5c-13.333 0 -25.166 -5.16699 -35.499 -15.5s-20.166 -24.166 -29.499 -41.499z" />
    <glyph glyph-name="hungarumlaut" unicode="&#x2dd;" 
d="M265 772l148 -54l43 54l156 -57l-170 -127h-131l86 109l-150 -109h-131z" />
    <glyph glyph-name="Omega" unicode="&#x3a9;" horiz-adv-x="836" 
d="M536 388h-63.999l41 153h63l3 11c16.667 66 44 113.333 82 142s88 43 150 43c23.333 0 44.833 -1.5 64.5 -4.5s38.5 -7.5 56.5 -13.5l-35 -133c-10 3.33301 -20.833 6.16602 -32.5 8.49902s-22.167 3.5 -31.5 3.5c-19.333 0 -34.333 -4.16699 -45 -12.5
s-18.334 -21.166 -23.001 -38.499l-3 -9h122l-40 -150h-118l-105 -388h-190zM118.001 388h-63.999l41 153h63l3 11c16.667 66 44 113.333 82 142s88 43 150 43c23.333 0 44.833 -1.5 64.5 -4.5s38.5 -7.5 56.5 -13.5l-35 -133c-10 3.33301 -20.833 6.16602 -32.5 8.49902
s-22.167 3.5 -31.5 3.5c-19.333 0 -34.333 -4.16699 -45 -12.5s-18.334 -21.166 -23.001 -38.499l-3 -9h122l-40 -150h-118l-105 -388h-190z" />
    <glyph glyph-name="Omega" unicode="&#x2126;" horiz-adv-x="836" 
d="M536 388h-63.999l41 153h63l3 11c16.667 66 44 113.333 82 142s88 43 150 43c23.333 0 44.833 -1.5 64.5 -4.5s38.5 -7.5 56.5 -13.5l-35 -133c-10 3.33301 -20.833 6.16602 -32.5 8.49902s-22.167 3.5 -31.5 3.5c-19.333 0 -34.333 -4.16699 -45 -12.5
s-18.334 -21.166 -23.001 -38.499l-3 -9h122l-40 -150h-118l-105 -388h-190zM118.001 388h-63.999l41 153h63l3 11c16.667 66 44 113.333 82 142s88 43 150 43c23.333 0 44.833 -1.5 64.5 -4.5s38.5 -7.5 56.5 -13.5l-35 -133c-10 3.33301 -20.833 6.16602 -32.5 8.49902
s-22.167 3.5 -31.5 3.5c-19.333 0 -34.333 -4.16699 -45 -12.5s-18.334 -21.166 -23.001 -38.499l-3 -9h122l-40 -150h-118l-105 -388h-190z" />
    <glyph glyph-name="pi" unicode="&#x3c0;" horiz-adv-x="830" 
d="M453 358c18.667 0 33.5 4.33301 44.5 13s16.5 20.667 16.5 36v2c0 16.667 -5.5 29.167 -16.5 37.5s-26.167 12.5 -45.5 12.5h-49v-101h50zM295 549l166 -0.000976562c49.333 0 88.333 -11.833 117 -35.5s43 -57.167 43 -100.5v-2c0 -22 -4.16699 -41.667 -12.5 -59
s-19.833 -31.666 -34.5 -42.999s-32 -20 -52 -26s-42 -9 -66 -9h-53v-110h-108v385zM437 25.999c46 0 88.499 8.5 127.499 25.5s72.833 40.333 101.5 70s51.167 64.167 67.5 103.5s24.5 81 24.5 125v2c0 44 -8.16699 85.667 -24.5 125s-38.666 73.5 -66.999 102.5
s-62 52 -101 69s-81.167 25.5 -126.5 25.5c-46 0 -88.5 -8.5 -127.5 -25.5s-72.833 -40.333 -101.5 -70s-51.167 -64.167 -67.5 -103.5s-24.5 -81 -24.5 -125v-2c0 -44 8 -85.667 24 -125s38.333 -73.5 67 -102.5s62.5 -52 101.5 -69s81.167 -25.5 126.5 -25.5z
M436.999 -14.001c-50.667 0 -98 9.66699 -142 29s-82.167 45.5 -114.5 78.5s-57.833 71.333 -76.5 115s-28 90.167 -28 139.5v2c0 49.333 9.33301 96 28 140s44.334 82.667 77.001 116s71.167 59.666 115.5 78.999s91.833 29 142.5 29s98 -9.66699 142 -29
s82.167 -45.5 114.5 -78.5s57.833 -71.333 76.5 -115s28 -90.167 28 -139.5v-2c0 -49.333 -9.33301 -96 -28 -140s-44.334 -82.667 -77.001 -116s-71.167 -59.666 -115.5 -78.999s-91.833 -29 -142.5 -29z" />
    <glyph glyph-name="endash" unicode="&#x2013;" horiz-adv-x="526" 
d="M77 394h438l-44 -163h-438z" />
    <glyph glyph-name="emdash" unicode="&#x2014;" horiz-adv-x="896" 
d="M77 394h808l-44 -163h-808z" />
    <glyph glyph-name="quoteleft" unicode="&#x2018;" horiz-adv-x="302" 
d="M108 513c8.66699 32 19.5 59.832 32.5 83.499s29.5 43.334 49.5 59.001s43.833 27.667 71.5 36s60.167 13.5 97.5 15.5l8 -74c-40 -4 -70.333 -13.833 -91 -29.5s-34 -37.167 -40 -64.5h77l-53 -195h-197z" />
    <glyph glyph-name="quoteright" unicode="&#x2019;" horiz-adv-x="302" 
d="M58 411c40 4 70.333 13.832 91 29.499s34 37.167 40 64.5h-77l53 195h197l-45 -169c-8.66699 -32 -19.5 -59.667 -32.5 -83s-29.5 -43 -49.5 -59s-43.833 -28.167 -71.5 -36.5s-60.167 -13.166 -97.5 -14.499z" />
    <glyph glyph-name="quotesinglbase" unicode="&#x201a;" horiz-adv-x="302" 
d="M-74 -94c39.333 4 69.332 13.832 89.999 29.499s34 37.167 40 64.5h-76l52 195h198l-45 -168c-8.66699 -32 -19.667 -59.833 -33 -83.5s-30 -43.5 -50 -59.5s-43.667 -28.167 -71 -36.5s-59.666 -13.166 -96.999 -14.499z" />
    <glyph glyph-name="quotedblleft" unicode="&#x201c;" horiz-adv-x="565" 
d="M109 512c8.66699 32 19.502 59.832 32.502 83.499s29.167 43.334 48.5 59.001s42.666 27.667 69.999 36s59.666 13.5 96.999 15.5l8 -74c-39.333 -4 -69 -13.833 -89 -29.5s-33 -37.167 -39 -64.5h74l-52 -195h-195zM375.002 511.999
c8.66699 32 19.502 59.832 32.502 83.499s29.167 43.334 48.5 59.001s42.666 27.667 69.999 36s59.666 13.5 96.999 15.5l8 -74c-39.333 -4 -69 -13.833 -89 -29.5s-33 -37.167 -39 -64.5h74l-52 -195h-195z" />
    <glyph glyph-name="quotedblright" unicode="&#x201d;" horiz-adv-x="565" 
d="M59 411c39.333 4 68.998 13.832 88.998 29.499s33 37.167 39 64.5h-74l52 195h195l-45 -169c-8.66699 -32 -19.5 -59.667 -32.5 -83s-29.167 -43 -48.5 -59s-42.666 -28.167 -69.999 -36.5s-59.666 -13.166 -96.999 -14.499zM324.998 410.999
c39.333 4 68.998 13.832 88.998 29.499s33 37.167 39 64.5h-74l52 195h195l-45 -169c-8.66699 -32 -19.5 -59.667 -32.5 -83s-29.167 -43 -48.5 -59s-42.666 -28.167 -69.999 -36.5s-59.666 -13.166 -96.999 -14.499z" />
    <glyph glyph-name="quotedblbase" unicode="&#x201e;" horiz-adv-x="565" 
d="M-74 -94c39.333 4 68.998 13.832 88.998 29.499s33 37.167 39 64.5h-74l52 195h195l-45 -168c-8.66699 -32 -19.5 -59.833 -32.5 -83.5s-29.167 -43.5 -48.5 -59.5s-42.666 -28.167 -69.999 -36.5s-59.666 -13.166 -96.999 -14.499zM191.998 -94.001
c39.333 4 68.998 13.832 88.998 29.499s33 37.167 39 64.5h-74l52 195h195l-45 -168c-8.66699 -32 -19.5 -59.833 -32.5 -83.5s-29.167 -43.5 -48.5 -59.5s-42.666 -28.167 -69.999 -36.5s-59.666 -13.166 -96.999 -14.499z" />
    <glyph glyph-name="dagger" unicode="&#x2020;" horiz-adv-x="412" 
d="M226 493l-129 -13l28 104l121 -13l19 129h112l-50 -129l128 13l-28 -104l-122 13l-62 -270h-100z" />
    <glyph glyph-name="daggerdbl" unicode="&#x2021;" horiz-adv-x="422" 
d="M132 129l-127 -13l27 104l122 -13l26 143l51 143l-129 -13l28 104l121 -13l19 129h112l-50 -129l127 13l-28 -104l-121 13l-26 -143l-52 -143l130 13l-28 -104l-121 13l-19 -129h-112z" />
    <glyph glyph-name="bullet" unicode="&#x2022;" horiz-adv-x="501" 
d="M246 180c-42.667 0 -75.667 12.333 -99 37s-35 57 -35 97c0 25.333 4.5 50.666 13.5 75.999s21.667 48 38 68s36 36.167 59 48.5s48.5 18.5 76.5 18.5c42 0 74.833 -12.333 98.5 -37s35.5 -57 35.5 -97c0 -25.333 -4.5 -50.666 -13.5 -75.999s-21.667 -48 -38 -68
s-36 -36.167 -59 -48.5s-48.5 -18.5 -76.5 -18.5z" />
    <glyph glyph-name="ellipsis" unicode="&#x2026;" horiz-adv-x="858" 
d="M31 192h195l-52 -192h-194zM311 192h195l-52 -192h-194zM591 192h195l-52 -192h-194z" />
    <glyph glyph-name="perthousand" unicode="&#x2030;" horiz-adv-x="1349" 
d="M688 95c12.667 0 24 3.16699 34 9.5s18.5 14.666 25.5 24.999s12.5 21.833 16.5 34.5s6 25.334 6 38.001c0 18.667 -5 33.834 -15 45.501s-23.667 17.5 -41 17.5c-12.667 0 -24 -3.16699 -34 -9.5s-18.5 -14.5 -25.5 -24.5s-12.5 -21.5 -16.5 -34.5s-6 -25.833 -6 -38.5
c0 -18.667 5 -33.834 15 -45.501s23.667 -17.5 41 -17.5zM1114 95c12 0 23 3.16699 33 9.5s18.5 14.666 25.5 24.999s12.5 21.833 16.5 34.5s6 25.334 6 38.001c0 18.667 -5 33.834 -15 45.501s-23.667 17.5 -41 17.5c-12 0 -23 -3.16699 -33 -9.5s-18.5 -14.5 -25.5 -24.5
s-12.5 -21.5 -16.5 -34.5s-6 -25.833 -6 -38.5c0 -18.667 5 -33.834 15 -45.501s23.667 -17.5 41 -17.5zM252 435c12 0 23 3.16699 33 9.5s18.5 14.5 25.5 24.5s12.5 21.333 16.5 34s6 25.667 6 39c0 18.667 -5 33.834 -15 45.501s-23.667 17.5 -41 17.5
c-12 0 -23 -3.16699 -33 -9.5s-18.5 -14.666 -25.5 -24.999s-12.5 -21.833 -16.5 -34.5s-6 -25.334 -6 -38.001c0 -18.667 5 -33.834 15 -45.501s23.667 -17.5 41 -17.5zM683 -10c-26.667 0 -50.334 4.16797 -71.001 12.501s-38.167 19.666 -52.5 33.999
s-25.166 31.5 -32.499 51.5s-11 41.667 -11 65c0 26.667 4.83301 53 14.5 79s23.334 49.333 41.001 70s39 37.167 64 49.5s52.833 18.5 83.5 18.5c26.667 0 50.334 -4.16699 71.001 -12.5s38.167 -19.666 52.5 -33.999s25.166 -31.5 32.499 -51.5s11 -41.667 11 -65
c0 -27.333 -4.83301 -53.833 -14.5 -79.5s-23.334 -48.834 -41.001 -69.501s-39 -37.167 -64 -49.5s-52.833 -18.5 -83.5 -18.5zM1109 -9.99902c-26.667 0 -50.334 4.16797 -71.001 12.501s-38.167 19.666 -52.5 33.999s-25.166 31.5 -32.499 51.5s-11 41.667 -11 65
c0 26.667 4.83301 53 14.5 79s23.334 49.333 41.001 70s39 37.167 64 49.5s52.5 18.5 82.5 18.5c26.667 0 50.334 -4.16699 71.001 -12.5s38.167 -19.666 52.5 -33.999s25.166 -31.5 32.499 -51.5s11 -41.667 11 -65c0 -27.333 -4.83301 -53.833 -14.5 -79.5
s-23.334 -48.834 -41.001 -69.501s-39 -37.167 -64 -49.5s-52.5 -18.5 -82.5 -18.5zM757 700.002h141l-690 -700h-140zM247 330.002c-26.667 0 -50.501 4 -71.501 12s-38.667 19.333 -53 34s-25.166 32 -32.499 52s-11 41.667 -11 65c0 26.667 4.83301 53 14.5 79
s23.334 49.333 41.001 70s39 37.167 64 49.5s52.833 18.5 83.5 18.5c26.667 0 50.334 -4.16699 71.001 -12.5s38.167 -19.666 52.5 -33.999s25.166 -31.5 32.499 -51.5s11 -41.667 11 -65c0 -27.333 -4.83301 -53.833 -14.5 -79.5s-23.334 -48.834 -41.001 -69.501
s-39 -37.167 -64 -49.5s-52.5 -18.5 -82.5 -18.5z" />
    <glyph glyph-name="guilsinglleft" unicode="&#x2039;" horiz-adv-x="357" 
d="M28 244l13 49l218 214l104 -96l-168 -163l79 -160l-141 -63z" />
    <glyph glyph-name="guilsinglright" unicode="&#x203a;" horiz-adv-x="357" 
d="M-9 121l168 164l-79 160l141 62l106 -219l-14 -48l-217 -215z" />
    <glyph glyph-name="fraction" unicode="&#x2044;" horiz-adv-x="546" 
d="M554 758h159l-695 -856h-158z" />
    <glyph glyph-name="fraction" unicode="&#x2215;" horiz-adv-x="546" 
d="M554 758h159l-695 -856h-158z" />
    <glyph glyph-name="trademark" unicode="&#x2122;" horiz-adv-x="695" 
d="M193 625h-92l20 75h270l-20 -75h-92l-62 -233h-87zM439 700h87l41 -119l105 119h95l-82 -308h-85l48 180l-111 -122h-3l-45 122l-48 -180h-84z" />
    <glyph glyph-name="radical" unicode="&#x221a;" horiz-adv-x="1137" 
d="M1015 730h190l-196 -730h-190zM536 388h-63.999l41 153h63l3 11c16.667 66 44 113.333 82 142s88 43 150 43c23.333 0 44.833 -1.5 64.5 -4.5s38.5 -7.5 56.5 -13.5l-35 -133c-10 3.33301 -20.833 6.16602 -32.5 8.49902s-22.167 3.5 -31.5 3.5
c-19.333 0 -34.333 -4.16699 -45 -12.5s-18.334 -21.166 -23.001 -38.499l-3 -9h122l-40 -150h-118l-105 -388h-190zM118.001 388h-63.999l41 153h63l3 11c16.667 66 44 113.333 82 142s88 43 150 43c23.333 0 44.833 -1.5 64.5 -4.5s38.5 -7.5 56.5 -13.5l-35 -133
c-10 3.33301 -20.833 6.16602 -32.5 8.49902s-22.167 3.5 -31.5 3.5c-19.333 0 -34.333 -4.16699 -45 -12.5s-18.334 -21.166 -23.001 -38.499l-3 -9h122l-40 -150h-118l-105 -388h-190z" />
    <glyph glyph-name="approxequal" unicode="&#x2248;" horiz-adv-x="1137" 
d="M964 541h190l-145 -541h-190zM1012 730h198l-38 -140h-198zM536 388h-63.999l41 153h63l3 11c16.667 66 44 113.333 82 142s88 43 150 43c23.333 0 44.833 -1.5 64.5 -4.5s38.5 -7.5 56.5 -13.5l-35 -133c-10 3.33301 -20.833 6.16602 -32.5 8.49902
s-22.167 3.5 -31.5 3.5c-19.333 0 -34.333 -4.16699 -45 -12.5s-18.334 -21.166 -23.001 -38.499l-3 -9h122l-40 -150h-118l-105 -388h-190zM118.001 388h-63.999l41 153h63l3 11c16.667 66 44 113.333 82 142s88 43 150 43c23.333 0 44.833 -1.5 64.5 -4.5
s38.5 -7.5 56.5 -13.5l-35 -133c-10 3.33301 -20.833 6.16602 -32.5 8.49902s-22.167 3.5 -31.5 3.5c-19.333 0 -34.333 -4.16699 -45 -12.5s-18.334 -21.166 -23.001 -38.499l-3 -9h122l-40 -150h-118l-105 -388h-190z" />
    <glyph glyph-name="NUL" horiz-adv-x="0" 
 />
    <glyph glyph-name="nonmarkingreturn" horiz-adv-x="277" 
 />
    <glyph glyph-name="apple" horiz-adv-x="967" 
d="M417 64c0 -4.66699 -0.832031 -8.66699 -2.49902 -12s-4.83398 -5 -9.50098 -5c-4 0 -7 1.66699 -9 5s-3 7.33301 -3 12c0 10.667 4 16 12 16s12 -5.33301 12 -16zM352.001 64h-3c-5.33301 0 -8 2.66699 -8 8c0 4 2.33301 6 7 6c2.66699 0 4 -1.33301 4 -4v-10z
M553.001 79c2.66699 0 2.66699 -3 0 -9c-3.33301 6 -3.33301 9 0 9zM393.001 182c0 -4.66699 -1.33203 -7.00098 -3.99902 -7.00098h-5c-7.33301 0 -13.5 3.33301 -18.5 10s-7.5 14 -7.5 22c0 11.333 4.66699 17 14 17h6c2 -0.666992 3.16699 -1.16699 3.5 -1.5
s1.16602 -2.16602 2.49902 -5.49902zM716.002 186.999c0 -8.66699 -3.66699 -12.999 -11 -12.999c-6 0 -11.667 3.83301 -17 11.5s-8 16.5 -8 26.5c0 9.33301 3.66699 14 11 14c6 0 11.667 -3.83301 17 -11.5s8 -16.834 8 -27.501zM275.002 200
c-5.33301 0 -9.16699 1.66797 -11.5 5.00098s-3.5 6.66602 -3.5 9.99902c0 6 2.66699 9 8 9s8.33301 -1.66699 9 -5l3 -19h-5zM381.001 384.001c-8.66699 0 -13 3.66699 -13 11s4.33301 11 13 11h11v-22h-11zM684.001 535.001c0 -8.66699 -3.66699 -12.999 -11 -12.999
c-6 0 -11.667 3.83301 -17 11.5s-8 16.5 -8 26.5c0 9.33301 3.66699 14 11 14c6 0 11.667 -3.83301 17 -11.5s8 -16.834 8 -27.501zM272.001 553.002c-2 -2.66699 -4.33203 -4 -6.99902 -4s-4 0.666992 -4 2c0 2 1.33301 3 4 3c3.33301 0 5.66602 -0.333008 6.99902 -1z
M566.002 553.002c-2 -2.66699 -4.33203 -4 -6.99902 -4s-4 0.666992 -4 2c0 2 1.33301 3 4 3c3.33301 0 5.66602 -0.333008 6.99902 -1zM171.003 548.002c-5.33301 0 -9.16699 1.66797 -11.5 5.00098s-3.5 6.66602 -3.5 9.99902c0 6 2.66699 9 8 9s8.33301 -1.66699 9 -5
l3 -19h-5zM441.002 -87.9971c0 8.66699 -3.66699 13 -11 13s-11 -4 -11 -12c0 -8.66699 3.66699 -13 11 -13s11 4 11 12zM800.002 -87.9971c0 8.66699 -3.66699 13 -11 13s-11 -4 -11 -12c0 -8.66699 3.66699 -13 11 -13s11 4 11 12zM559.002 -79.9971l-5 -12h10z
M394.002 -82.9971c0 5.33301 -3.66699 7.66699 -11 7v-13c7.33301 0 11 2 11 6zM525.002 -81.9961c0 5.33301 -3.66699 7.33301 -11 6v-12c7.33301 -0.666992 11 1.33301 11 6zM606.002 -82.9961c0 5.33301 -3.66699 7.66699 -11 7v-13c7.33301 0 11 2 11 6z
M309.002 48.0049c-1.33301 0 -2.3291 0.333984 -2.99609 1.00098c-2 0.666992 -3 2.33398 -3 5.00098v20c0 1.33301 1 2.66602 3 3.99902c0.666992 0.666992 1.66699 1 3 1v2h-18v-2c0.666992 0 1.66699 -0.333008 3 -1c2 -2 3 -3.33301 3 -4v-9
c-1.33301 0 -2.66602 0.666992 -3.99902 2l-8 8c-2 0.666992 -2.33301 1.66699 -1 3c0.666992 0.666992 1.33398 1 2.00098 1v2h-14v-2c0.666992 0 1.66699 -0.333008 3 -1s2.16602 -1.16699 2.49902 -1.5s1.16602 -0.833008 2.49902 -1.5l10 -9l-13 -13
c-0.666992 -0.666992 -1.33398 -1.16699 -2.00098 -1.5s-1.33398 -0.833008 -2.00098 -1.5c-1.33301 -0.666992 -2.33301 -1.33398 -3 -2.00098v-2h17v2c-1.33301 0 -2.33301 0.333008 -3 1s-0.333984 2 0.999023 4l8 8c1.33301 1.33301 2.66602 2 3.99902 2v-9
c0 -1.33301 -1 -3 -3 -5c-1.33301 -0.666992 -2.33301 -1 -3 -1v-2h18v2zM364.006 48.0059c-1.33301 0 -2.33105 0.332031 -2.99805 0.999023c-1.33301 1.33301 -2 2.66602 -2 3.99902v20c0 2 0.666992 3.66699 2 5c0.666992 0.666992 1.66699 1 3 1v2h-18
c-8.66699 0 -13 -3 -13 -9c0 -3.33301 3 -6.33301 9 -9l-7 -10c-1.33301 -1.33301 -2.5 -2.16602 -3.5 -2.49902s-1.83301 -0.833008 -2.5 -1.5l-2 -1v-2h11l7 12c2 2.66699 4.33301 4 7 4v-9c0 -1.33301 -0.333008 -2.16602 -1 -2.49902s-1.33398 -0.833008 -2.00098 -1.5
s-1.33398 -1 -2.00098 -1v-2h17v2zM425.008 64.0049c0 5.33301 -1.66699 9.66602 -5 12.999s-8.33301 5 -15 5s-11.667 -1.66699 -15 -5s-5 -7.66602 -5 -12.999s1.66699 -9.83301 5 -13.5s8.33301 -5.5 15 -5.5s11.667 1.83301 15 5.5s5 8.16699 5 13.5zM480.008 81.0049
l-15.002 0.00195312v-2c0.666992 0 1.33398 -0.333008 2.00098 -1s0.333984 -2 -0.999023 -4l-6 -9l-6 9c-1.33301 1.33301 -1.33301 2.66602 0 3.99902c0.666992 0.666992 1.66699 1 3 1v2h-15v-2c0.666992 0 1.66699 -0.333008 3 -1s3 -2 5 -4l8 -12v-8
c0 -1.33301 -1 -3 -3 -5c-0.666992 -0.666992 -1.33398 -1 -2.00098 -1v-2h17v2c-1.33301 0 -2.33301 0.333008 -3 1c-1.33301 1.33301 -2 3 -2 5v8l8 12c0.666992 1.33301 1.5 2.16602 2.5 2.49902s1.83301 0.833008 2.5 1.5s1.33398 1 2.00098 1v2zM568.006 81.0068
l-0.00683594 -2c0.666992 0 1.33398 -0.333008 2.00098 -1s0.666992 -2 0 -4l-9 -19l-5 10l4 8c0.666992 1.33301 1.33398 2.16602 2.00098 2.49902s1.33398 0.833008 2.00098 1.5l2 2v2h-26l1 -2c0.666992 0 1.33398 -0.333008 2.00098 -1l2 -2l3 -3l3 -5l-7 -13l-8 18
c-1.33301 2 -1.33301 3.66699 0 5c0.666992 0.666992 1.33398 1 2.00098 1v2h-13v-2c0.666992 0 1.33398 -0.333008 2.00098 -1c2 -2 3.33301 -3.66699 4 -5l13 -27h1c0.666992 -0.666992 1 -0.666992 1 0l8 16l9 -16h1l12 27c0.666992 1.33301 1.5 2.33301 2.5 3
s1.83301 1.33398 2.5 2.00098s1.33398 1 2.00098 1v2h-15zM632.999 48.0068c-1.33301 -0.666992 -2.33105 -0.666016 -2.99805 0.000976562c-1.33301 0 -2 1.66699 -2 5v21c0 2 0.666992 3.66699 2 5h3v2h-29l-2 -10l2 -1c0 1.33301 0.666992 2.66602 2 3.99902
c1.33301 2.66699 3.66602 4 6.99902 4h4c2.66699 0 4 -1 4 -3v-10h-4c-2 0 -3.66699 0.666992 -5 2c-0.666992 0.666992 -1 1.66699 -1 3h-2v-13h2c0 0.666992 0.333008 1.66699 1 3c2 2 3.66699 3 5 3h4v-11c0 -2 -1.33301 -3 -4 -3h-4
c-2.66699 0 -5.33398 1.33301 -8.00098 4c-1.33301 1.33301 -2 3 -2 5l-2 -1l2 -11h30v2zM694.001 48.0078c-1.33301 0 -2.33203 0.333008 -2.99902 1c-2 0.666992 -3 2 -3 4v20c0 1.33301 1 2.66602 3 3.99902c0.666992 0.666992 1.66699 1.33398 3 2.00098v2h-10l-24 -26
v18c0 2 1 3.66699 3 5c0.666992 0.666992 1.66699 1 3 1v2h-15v-2c0.666992 0 1.66699 -0.333008 3 -1c2 -2 3 -3.66699 3 -5v-28h3l25 28v-20c0 -0.666992 -1 -2 -3 -4c-0.666992 -0.666992 -1.33398 -1 -2.00098 -1v-2h14v2zM827.002 133.008h-685v-6h685v6z
M306.002 174.008c-1.33301 0 -2.66797 0.333984 -4.00098 1.00098s-2.5 1.33398 -3.5 2.00098s-1.83301 2.33398 -2.5 5.00098l-7 35c-0.666992 3.33301 0.333008 5.66602 3 6.99902c1.33301 0.666992 2.66602 1 3.99902 1l-1 3h-27c-13.333 0 -20 -5 -20 -15
c0 -4 1.83301 -7.33301 5.5 -10s8.16699 -4.33398 13.5 -5.00098l-9 -16c-1.33301 -2.66699 -2.83301 -4.33398 -4.5 -5.00098s-3.16699 -1.33398 -4.5 -2.00098c-2 -0.666992 -3.66699 -1 -5 -1l1 -3h19l12 23c0.666992 2 2.33398 3 5.00098 3l3 -15
c0.666992 -3.33301 -0.333008 -5.66602 -3 -6.99902c-1.33301 -0.666992 -2.66602 -1 -3.99902 -1l1 -3h29zM413 175.009c-1.33301 -0.666992 -2.66699 -0.666992 -4 0c-3.33301 1.33301 -5.33301 4.33301 -6 9l-8 31c-2 6 0.666992 9.33301 8 10l-1 3h-30
c-6 0 -11.667 -1.83301 -17 -5.5s-8 -9.16699 -8 -16.5c0 -10.667 3.66699 -19.167 11 -25.5s15.333 -9.5 24 -9.5h32zM521.999 174.009c-0.666992 0 -1.66602 0.333008 -2.99902 1c-3.33301 1.33301 -5.33301 4.33301 -6 9l-7 32c-0.666992 4 0.333008 6.66699 3 8
c1.33301 0.666992 3 1 5 1l-1 3h-14l-29 -42l-5 30c-0.666992 4 0.333008 6.66699 3 8c1.33301 0.666992 2.66602 1 3.99902 1l-1 3h-21l1 -3c1.33301 0 2.66602 -0.333008 3.99902 -1c2 -1.33301 3.66699 -4 5 -8l8 -45l3 -1l30 44l6 -30
c0.666992 -4.66699 0 -7.66699 -2 -9c-1.33301 -0.666992 -2.66602 -1 -3.99902 -1l1 -3h21zM620 228.009h-28.998l1 -3c1.33301 0 2.66602 -0.333008 3.99902 -1c3.33301 -1.33301 5.33301 -4 6 -8l5 -21c1.33301 -6.66699 1.66602 -11.667 0.999023 -15
s-4.66699 -5 -12 -5c-5.33301 0 -9.66602 2.16699 -12.999 6.5s-5.66602 9.5 -6.99902 15.5l-4 19c-0.666992 4.66699 0.333008 7.66699 3 9c1.33301 0.666992 2.66602 0.666992 3.99902 0v3h-24l1 -3c1.33301 0 3 -0.333008 5 -1c3.33301 -1.33301 5.33301 -4 6 -8l4 -19
c1.33301 -5.33301 4 -11.166 8 -17.499s10.667 -9.5 20 -9.5c11.333 0 17.666 2.66699 18.999 8s1.33301 10.666 0 15.999l-5 22c-1.33301 2.66699 -1.5 4.66699 -0.5 6s2.16699 2.33301 3.5 3s3 0.666992 5 0zM822.002 174.009
c-1.33301 0 -2.66504 0.331055 -3.99805 0.998047s-2.5 1.33398 -3.5 2.00098s-1.83301 2.33398 -2.5 5.00098l-7 35c-0.666992 3.33301 0.333008 5.66602 3 6.99902c1.33301 0.666992 2.66602 1 3.99902 1l-1 3h-45v-10v-7h4c-0.666992 2 -0.333984 4 0.999023 6
c1.33301 4.66699 5.33301 7 12 7h4c3.33301 0 5.33301 -2 6 -6l3 -16h-4c-3.33301 0 -6.33301 1.33301 -9 4c-1.33301 1.33301 -2.33301 3 -3 5h-3l5 -23h3c0 1.33301 0.333008 3 1 5c1.33301 4 3.66602 6 6.99902 6h4l3 -17
c0.666992 -3.33301 -0.333008 -5.66602 -3 -6.99902c-1.33301 -0.666992 -2.66602 -1 -3.99902 -1l1 -3h29zM203.003 217.007c-2 3.33301 -4.17188 6.33398 -6.50488 9.00098s-6.16602 4 -11.499 4c-10 0 -14.667 -7.66699 -14 -23c-2 6.66699 -4.66699 12.167 -8 16.5
s-7.66602 6.5 -12.999 6.5c-3.33301 0 -6.16602 -1 -8.49902 -3s-3.5 -5 -3.5 -9l3 -1c0 4 2.66699 6 8 6c6.66699 0 11.834 -3.5 15.501 -10.5s6.5 -14.5 8.5 -22.5c1.33301 -4.66699 1.66602 -7.83398 0.999023 -9.50098s-1.66699 -3.16699 -3 -4.5
s-2.66602 -1.66602 -3.99902 -0.999023l1 -4h28l-1 4c-1.33301 -0.666992 -2.66602 -0.666992 -3.99902 0c-3.33301 1.33301 -5.33301 4.33301 -6 9c-3.33301 11.333 -5 19.666 -5 24.999c0 8.66699 3 13 9 13c3.33301 0 5.83301 -0.833008 7.5 -2.5l4.5 -4.5z
M727.998 192.008c0 10 -3.83301 18.833 -11.5 26.5s-16.167 11.5 -25.5 11.5c-4.66699 0 -9.66699 -1.66699 -15 -5s-8 -9 -8 -17c0 -10.667 3.83301 -19.667 11.5 -27s16.167 -11 25.5 -11c4.66699 0 9.66699 1.66699 15 5s8 9 8 17zM826.998 277.008h-685v-6h685v6z
M282.998 341.008h-14v65h14v34h-141v-62h41v28h33v-20h-24v-24h24v-21h-33v28h-41v-61h141v33zM457.998 341.008h-14v65h14v34h-96c-14.667 0 -26.167 -3.83301 -34.5 -11.5s-12.5 -17.167 -12.5 -28.5s4.16699 -20.833 12.5 -28.5s19.833 -11.5 34.5 -11.5h30v-19h-15v-33
h81v33zM647.998 440.008h-81v-34h11l-15 -23l-15 23h10v34h-62v-34h12l37 -46v-19h-14v-33h81v33h-15v20l37 45h14v34zM826.998 440.008h-147v-62h36v28h11v-65h-14v-33h81v33h-14v65h11v-28h36v62zM826.998 481.008h-685v-6h685v6zM399.998 521.008
c0 1.33301 -1.00098 3.00098 -3.00098 5.00098s-5.33301 3.33301 -10 4c-2.66699 2 -4.16699 5.5 -4.5 10.5s-1 10.333 -2 16s-3 10.667 -6 15s-8.5 6.5 -16.5 6.5c-3.33301 0 -6.33301 -1.16699 -9 -3.5s-4 -4.5 -4 -6.5c0 -3.33301 1.66699 -5 5 -5c2.66699 0 4 2 4 6
s1.66699 6 5 6s5.5 -1.66699 6.5 -5s1.83301 -7.33301 2.5 -12s1.83398 -9.5 3.50098 -14.5s4.5 -9.5 8.5 -13.5c-7.33301 0 -12.166 -2.16699 -14.499 -6.5s-5.16602 -6.5 -8.49902 -6.5s-5 1.33301 -5 4c0 1.33301 0.333008 2.16602 1 2.49902s1 1.16602 1 2.49902
c0 3.33301 -1.66699 5 -5 5s-5 -2.33301 -5 -7c0 -3.33301 1.66699 -6.16602 5 -8.49902s6.66602 -3.5 9.99902 -3.5c8.66699 0 13.667 2.16699 15 6.5s4.66602 6.5 9.99902 6.5c2 -4.66699 6 -7 12 -7c2.66699 0 4 1 4 3zM201.997 522.009
c-1.33301 0 -2.66797 0.333984 -4.00098 1.00098s-2.5 1.33398 -3.5 2.00098s-1.83301 2.33398 -2.5 5.00098l-7 35c-0.666992 3.33301 0.333008 5.66602 3 6.99902c1.33301 0.666992 2.66602 1 3.99902 1l-1 3h-27c-13.333 0 -20 -5 -20 -15c0 -4 1.83301 -7.33301 5.5 -10
s8.16699 -4.33398 13.5 -5.00098l-9 -16c-1.33301 -2.66699 -2.83301 -4.33398 -4.5 -5.00098s-3.16699 -1.33398 -4.5 -2.00098c-2 -0.666992 -3.66699 -1 -5 -1l1 -3h19l12 23c0.666992 2 2.33398 3 5.00098 3l3 -15c0.666992 -3.33301 -0.333008 -5.66602 -3 -6.99902
c-1.33301 -0.666992 -2.66602 -1 -3.99902 -1l1 -3h29zM496.995 522.01c-1.33301 0 -2.66504 0.331055 -3.99805 0.998047s-2.5 1.33398 -3.5 2.00098s-1.83301 2.33398 -2.5 5.00098l-7 35c-0.666992 3.33301 0.333008 5.66602 3 6.99902
c1.33301 0.666992 2.66602 1 3.99902 1l-1 3h-45v-10v-7h4c-0.666992 2 -0.333984 4 0.999023 6c1.33301 4.66699 5.33301 7 12 7h4c3.33301 0 5.33301 -2 6 -6l3 -16h-4c-3.33301 0 -6.33301 1.33301 -9 4c-1.33301 1.33301 -2.33301 3 -3 5h-3l5 -23h3
c0 1.33301 0.333008 3 1 5c1.33301 4 3.66602 6 6.99902 6h4l3 -17c0.666992 -3.33301 -0.333008 -5.66602 -3 -6.99902c-1.33301 -0.666992 -2.66602 -1 -3.99902 -1l1 -3h29zM819.996 522.008c-1.33301 0 -2.66699 0.327148 -4 0.994141s-2.5 1.33398 -3.5 2.00098
s-1.83301 2.33398 -2.5 5.00098l-7 35c-0.666992 3.33301 0.333008 5.66602 3 6.99902c1.33301 0.666992 2.66602 1 3.99902 1l-1 3h-28l1 -3c1.33301 0 2.66602 -0.333008 3.99902 -1c2.66699 -1.33301 4.33398 -3.66602 5.00098 -6.99902l3 -15h-24l-3 15
c-0.666992 3.33301 0.333008 5.66602 3 6.99902c1.33301 0.666992 2.66602 1 3.99902 1l-1 3h-29l1 -3c1.33301 0 2.66602 -0.333008 3.99902 -1c3.33301 -1.33301 5.33301 -3.66602 6 -6.99902l7 -35c0.666992 -3.33301 -0.333008 -5.66602 -3 -6.99902
c-1.33301 -0.666992 -2.66602 -1 -3.99902 -1l1 -3h29l-1 3c-1.33301 0 -2.66602 0.333008 -3.99902 1s-2.5 1.33398 -3.5 2.00098s-1.83301 2.33398 -2.5 5.00098l-3 16h24l3 -16c0.666992 -3.33301 -0.333008 -5.66602 -3 -6.99902
c-1.33301 -0.666992 -2.66602 -1 -3.99902 -1l1 -3h29zM294.995 537.002c0 8 -4.66895 13.6689 -14.002 17.002c3.33301 2 5 5 5 9c0 3.33301 -1.66699 6.66602 -5 9.99902s-8.66602 5 -15.999 5c-8.66699 0 -13 -3.66699 -13 -11c0 -4 1.66699 -6 5 -6c2.66699 0 4 1 4 3
s-0.5 3.16699 -1.5 3.5s-1.5 1.16602 -1.5 2.49902c0 3.33301 2.33301 5 7 5c6.66699 0 10 -4 10 -12c0 -2.66699 -0.666992 -4.66699 -2 -6c-10.667 1.33301 -16 -0.666992 -16 -6c0 -4 2.66699 -6 8 -6c4 0 7.66699 1.66699 11 5c4 -3.33301 6 -8.33301 6 -15
c0 -9.33301 -4 -14 -12 -14s-12 3 -12 9c0 2 1 3 3 3c0.666992 0 1.33398 -0.333008 2.00098 -1s1.66699 -1 3 -1c2.66699 0 4 1.66699 4 5s-2.33301 5 -7 5c-6 0 -9 -3.33301 -9 -10c0 -8.66699 5.33301 -13 16 -13c8.66699 0 15 1.83301 19 5.5s6 8.16699 6 13.5z
M588.993 537.004c0 8 -4.66895 13.6689 -14.002 17.002c3.33301 2 5 5 5 9c0 3.33301 -1.66699 6.66602 -5 9.99902s-8.66602 5 -15.999 5c-8.66699 0 -13 -3.66699 -13 -11c0 -4 1.66699 -6 5 -6c2.66699 0 4 1 4 3s-0.5 3.16699 -1.5 3.5s-1.5 1.16602 -1.5 2.49902
c0 3.33301 2.33301 5 7 5c6.66699 0 10 -4 10 -12c0 -2.66699 -0.666992 -4.66699 -2 -6c-10.667 1.33301 -16 -0.666992 -16 -6c0 -4 2.66699 -6 8 -6c4 0 7.66699 1.66699 11 5c4 -3.33301 6 -8.33301 6 -15c0 -9.33301 -4 -14 -12 -14s-12 3 -12 9c0 2 1 3 3 3
c0.666992 0 1.33398 -0.333008 2.00098 -1s1.66699 -1 3 -1c2.66699 0 4 1.66699 4 5s-2.33301 5 -7 5c-6 0 -9 -3.33301 -9 -10c0 -8.66699 5.33301 -13 16 -13c8.66699 0 15 1.83301 19 5.5s6 8.16699 6 13.5zM695.991 540.006c0 10 -3.83301 18.833 -11.5 26.5
s-16.167 11.5 -25.5 11.5c-4.66699 0 -9.66699 -1.66699 -15 -5s-8 -9 -8 -17c0 -10.667 3.83301 -19.667 11.5 -27s16.167 -11 25.5 -11c4.66699 0 9.66699 1.66699 15 5s8 9 8 17zM826.991 624.006h-685v-6h685v6zM438.991 664.006
c-1.33301 -0.666992 -2.33105 -0.666016 -2.99805 0.000976562c-1.33301 0 -2 1.66699 -2 5v21c0 2 0.666992 3.66699 2 5h3v2h-29l-2 -10l2 -1c0 1.33301 0.666992 2.66602 2 3.99902c1.33301 2.66699 3.66602 4 6.99902 4h4c2.66699 0 4 -1 4 -3v-10h-4
c-2 0 -3.66699 0.666992 -5 2c-0.666992 0.666992 -1 1.66699 -1 3h-2v-13h2c0 0.666992 0.333008 1.66699 1 3c2 2 3.66699 3 5 3h4v-11c0 -2 -1.33301 -3 -4 -3h-4c-2.66699 0 -5.33398 1.33301 -8.00098 4c-1.33301 1.33301 -2 3 -2 5l-2 -1l2 -11h30v2zM503.993 664.007
c-1.33301 -0.666992 -2.33008 -0.666992 -2.99707 0c-2 0 -3 1.66699 -3 5v21c0 2 1 3.66699 3 5h3v2h-18v-1v-1h2c2 -2 3 -3.66699 3 -5v-9h-17v9c0 2 0.666992 3.66699 2 5h3v1v1h-17v-2h2c2 -2 3 -3.66699 3 -5v-21c0 -1.33301 -0.333008 -2.16602 -1 -2.49902
s-1.33398 -0.833008 -2.00098 -1.5s-1.33398 -1 -2.00098 -1v-2h17v2c-1.33301 0 -2.33301 0.333008 -3 1c-1.33301 1.33301 -2 2.66602 -2 3.99902v10h17v-10c0 -3.33301 -1 -5 -3 -5c-0.666992 -0.666992 -1.33398 -0.666992 -2.00098 0v-2h18v2zM558.996 686.007
l0.00195312 4c0 1.33301 -0.166992 2.66602 -0.5 3.99902s-0.5 2.66602 -0.5 3.99902c-1.33301 -0.666992 -7 -1 -17 -1s-16 0.333008 -18 1c0 -1.33301 -0.166992 -2.66602 -0.5 -3.99902s-0.5 -2.66602 -0.5 -3.99902v-4h2c0.666992 1.33301 1.66699 2.66602 3 3.99902
c3.33301 3.33301 5.66602 5 6.99902 5c2 0 3 -1 3 -3v-23c0 -3.33301 -1 -5 -3 -5c-0.666992 -0.666992 -1.33398 -0.666992 -2.00098 0v-2h17v2c-1.33301 -0.666992 -2.33301 -0.666992 -3 0c-1.33301 0 -2 1.66699 -2 5v23c0 2 1 3 3 3s4.66699 -1.66699 8 -5
c1.33301 -1.33301 2 -2.66602 2 -3.99902h2zM283.998 -100.993c0 -2.66699 -1.33301 -4 -4 -4s-4 1.33301 -4 4s1.33301 4 4 4s4 -1.33301 4 -4zM715.998 -100.993c0 -2.66699 -1.33301 -4 -4 -4s-4 1.33301 -4 4s1.33301 4 4 4s4 -1.33301 4 -4zM142.998 -104.993h-1
l-11 23l-10 -23h-1l-12 34l6 1l7 -23l10 23h1l10 -23l7 22h6zM198.998 -104.993h-1l-11 23l-10 -23h-1l-12 34l6 1l7 -23l10 23h1l10 -23l7 22h6zM254.998 -104.993h-1l-11 23l-10 -23h-1l-12 34l6 1l7 -23l10 23h1l10 -23l7 22h6zM322.998 -75.9932h-12v-28h-6v28h-12v5h30
v-5zM350.998 -89.9932v-14h-6v14l-14 19l6 1l11 -15l9 14h7zM399.998 -81.9932c0 -8 -5.66699 -11.999 -17 -11.999v-10h-6v33c9.33301 1.33301 15.5 0.666016 18.5 -2.00098s4.5 -5.66699 4.5 -9zM446.998 -86.9922c0 -5.33301 -1.49902 -9.66602 -4.49902 -12.999
s-7.16699 -5 -12.5 -5s-9.5 1.66699 -12.5 5s-4.5 7.33301 -4.5 12c0 5.33301 1.66699 9.66602 5 12.999s7.66602 5 12.999 5c4.66699 0 8.5 -1.66699 11.5 -5s4.5 -7.33301 4.5 -12zM490.999 -100.992c-4 -2.66699 -8.33301 -3.99902 -13 -3.99902
c-5.33301 0 -9.66602 1.5 -12.999 4.5s-5 7.16699 -5 12.5s1.83301 9.66602 5.5 12.999s8.16699 5 13.5 5c4 0 8 -1.33301 12 -4l-2 -5c-2.66699 2.66699 -6.33398 4 -11.001 4c-8 0 -12 -4.33301 -12 -13c0 -8 4.33301 -12 13 -12c1.33301 0 3.33301 0.666992 6 2v7h-9v5
h15v-15zM526.999 -103.991l-8 10.999h-5v-11h-6v33c9.33301 1.33301 15.5 0.833008 18.5 -1.5s4.5 -5.16602 4.5 -8.49902c0 -4.66699 -2.33301 -8 -7 -10l10 -13h-7zM569.999 -103.992l-4 8h-14l-3 -8h-6l15 34h2l16 -34h-6zM611.999 -81.9922
c0 -8 -5.66699 -11.999 -17 -11.999v-10h-6v33c9.33301 1.33301 15.5 0.666016 18.5 -2.00098s4.5 -5.66699 4.5 -9zM649.999 -103.991v15h-16v-15h-6v33h6v-13h16v13h6v-33h-6zM688.999 -89.9912v-14h-6v14l-14 19l6 1l11 -15l9 14h7zM756.999 -101.991
c-2 -2 -5.33301 -3 -10 -3c-12 0 -18 5.66699 -18 17c0 5.33301 1.66699 9.66602 5 12.999s7.66602 5 12.999 5c4 0 7.66699 -1 11 -3l-2 -5c-2 2 -5 3 -9 3c-3.33301 0 -6.16602 -1.16699 -8.49902 -3.5s-3.5 -5.16602 -3.5 -8.49902c0 -8.66699 4.33301 -13 13 -13
c2.66699 0 6 1.33301 10 4zM805.999 -86.9912c0 -5.33301 -1.49902 -9.66602 -4.49902 -12.999s-7.16699 -5 -12.5 -5s-9.5 1.66699 -12.5 5s-4.5 7.33301 -4.5 12c0 5.33301 1.66699 9.66602 5 12.999s7.66602 5 12.999 5c4.66699 0 8.5 -1.66699 11.5 -5
s4.5 -7.33301 4.5 -12zM853 -103.991l-3 20l-10 -21h-2l-10 21l-3 -20h-6l6 34h1l13 -26l13 26h1l6 -34h-6zM101 0.00878906v750h767v-750h-767z" />
  </font>
</defs>
</svg>
